<svg width="250" height="60" viewBox="0 0 250 60" fill="none" xmlns="http://www.w3.org/2000/svg">
<g clip-path="url(#clip0_86_313)">
<path d="M99.5361 47.8053H97.3094L96.8287 49.2729H95.7406L97.9336 42.9808H98.9289L101.097 49.2729H100.008L99.5361 47.8053ZM97.5962 46.9281H99.2494L98.4397 44.4484H98.4144L97.5962 46.9281Z" fill="#433E3F"/>
<path d="M104.31 46.9956C104.31 46.2534 104.47 45.6461 104.791 45.1906C105.111 44.7352 105.558 44.5074 106.14 44.5074C106.393 44.5074 106.621 44.558 106.824 44.6592C107.026 44.7605 107.195 44.9038 107.346 45.0978V42.5337H108.401V49.2729H107.549L107.422 48.6825C107.271 48.9018 107.093 49.0705 106.874 49.1886C106.663 49.3067 106.419 49.3657 106.132 49.3657C105.558 49.3657 105.111 49.1549 104.791 48.7416C104.47 48.3198 104.31 47.7716 104.31 47.0968V46.9956ZM105.364 47.0884C105.364 47.5186 105.449 47.8644 105.609 48.1174C105.778 48.3704 106.039 48.5054 106.393 48.5054C106.613 48.5054 106.807 48.4548 106.959 48.362C107.11 48.2692 107.237 48.1343 107.338 47.9572V45.916C107.237 45.7389 107.11 45.6123 106.959 45.5111C106.807 45.4184 106.621 45.3677 106.402 45.3677C106.048 45.3677 105.778 45.5196 105.609 45.8232C105.44 46.1269 105.356 46.5148 105.356 47.004V47.0884H105.364Z" fill="#433E3F"/>
<path d="M110.906 43.4531H109.852V42.5337H110.906V43.4531ZM110.906 49.2729H109.852V44.6002H110.906V49.2729Z" fill="#433E3F"/>
<path d="M112.18 46.9956C112.18 46.2534 112.34 45.6461 112.66 45.1906C112.981 44.7352 113.428 44.5074 114.01 44.5074C114.288 44.5074 114.533 44.5665 114.744 44.6846C114.955 44.8026 115.132 44.9798 115.283 45.1991L115.385 44.5918H116.262V49.2645C116.262 49.8634 116.076 50.3357 115.705 50.6647C115.334 50.9936 114.803 51.1539 114.12 51.1539C113.892 51.1539 113.647 51.1201 113.386 51.0526C113.124 50.9852 112.888 50.9008 112.669 50.7912L112.837 49.9646C113.015 50.0574 113.217 50.1248 113.436 50.1754C113.656 50.2261 113.883 50.2514 114.111 50.2514C114.491 50.2514 114.769 50.167 114.946 50.0068C115.123 49.8465 115.208 49.5935 115.208 49.2561V48.7753C115.064 48.9609 114.887 49.1043 114.685 49.197C114.482 49.2983 114.254 49.3404 113.993 49.3404C113.419 49.3404 112.972 49.1296 112.652 48.7163C112.331 48.2945 112.171 47.7463 112.171 47.0715V46.9956H112.18ZM113.225 47.0884C113.225 47.5186 113.31 47.8644 113.478 48.1174C113.647 48.3705 113.909 48.5054 114.271 48.5054C114.499 48.5054 114.685 48.4632 114.836 48.362C114.988 48.2608 115.115 48.1343 115.208 47.9572V45.9076C115.106 45.7389 114.98 45.6039 114.828 45.5111C114.676 45.4184 114.491 45.3678 114.271 45.3678C113.909 45.3678 113.647 45.5196 113.478 45.8232C113.31 46.1269 113.225 46.5149 113.225 47.0041V47.0884Z" fill="#433E3F"/>
<path d="M118.742 43.4531H117.687V42.5337H118.742V43.4531ZM118.742 49.2729H117.687V44.6002H118.742V49.2729Z" fill="#433E3F"/>
<path d="M121.525 43.4615V44.6002H122.36V45.3762H121.525V47.9572C121.525 48.1512 121.567 48.2861 121.652 48.3705C121.736 48.4548 121.846 48.497 121.98 48.497C122.04 48.497 122.09 48.4885 122.149 48.4801C122.2 48.4717 122.259 48.4548 122.301 48.4379L122.411 49.2055C122.318 49.2561 122.217 49.2898 122.09 49.3236C121.972 49.3489 121.837 49.3657 121.711 49.3657C121.323 49.3657 121.019 49.2561 120.8 49.0284C120.58 48.8006 120.471 48.4464 120.471 47.9656V45.3846H119.771V44.6086H120.488V43.4615H121.525Z" fill="#433E3F"/>
<path d="M126.299 49.2729C126.265 49.1549 126.232 49.0368 126.206 48.9271C126.181 48.8175 126.164 48.6994 126.156 48.5897C126.012 48.809 125.827 48.9946 125.59 49.138C125.354 49.2898 125.093 49.3573 124.798 49.3573C124.308 49.3573 123.937 49.2308 123.676 48.9777C123.414 48.7247 123.288 48.3789 123.288 47.9487C123.288 47.4933 123.465 47.1474 123.828 46.8944C124.19 46.6414 124.688 46.5148 125.337 46.5148H126.156V46.1016C126.156 45.857 126.088 45.663 125.945 45.528C125.801 45.3931 125.599 45.3171 125.321 45.3171C125.084 45.3171 124.89 45.3762 124.747 45.4858C124.604 45.6039 124.536 45.7473 124.536 45.9329H123.524L123.516 45.9076C123.499 45.5364 123.659 45.2075 124.013 44.9292C124.367 44.6508 124.823 44.499 125.38 44.499C125.928 44.499 126.366 44.6339 126.695 44.9123C127.033 45.1906 127.193 45.587 127.193 46.1016V48.1765C127.193 48.3704 127.21 48.556 127.235 48.7331C127.261 48.9103 127.303 49.0874 127.362 49.2561H126.299V49.2729ZM125.017 48.5223C125.278 48.5223 125.515 48.4548 125.725 48.3198C125.936 48.1849 126.08 48.0331 126.147 47.8644V47.1727H125.312C125.008 47.1727 124.764 47.2487 124.595 47.4005C124.427 47.5523 124.334 47.7294 124.334 47.9319C124.334 48.109 124.393 48.2524 124.511 48.3536C124.629 48.4717 124.798 48.5223 125.017 48.5223Z" fill="#433E3F"/>
<path d="M129.681 49.2729H128.627V42.5337H129.681V49.2729Z" fill="#433E3F"/>
<path d="M134.936 43.4615V44.6002H135.771V45.3762H134.936V47.9572C134.936 48.1512 134.978 48.2861 135.062 48.3705C135.147 48.4548 135.256 48.497 135.391 48.497C135.45 48.497 135.501 48.4885 135.56 48.4801C135.611 48.4717 135.67 48.4548 135.712 48.4379L135.822 49.2055C135.729 49.2561 135.628 49.2898 135.501 49.3236C135.383 49.3489 135.248 49.3657 135.121 49.3657C134.733 49.3657 134.43 49.2561 134.211 49.0284C133.991 48.8006 133.882 48.4464 133.882 47.9656V45.3846H133.165V44.6086H133.882V43.4615H134.936Z" fill="#433E3F"/>
<path d="M139.212 45.5449L138.765 45.528C138.563 45.528 138.386 45.5702 138.251 45.6545C138.116 45.7389 138.006 45.8654 137.93 46.0256V49.273H136.884V44.6002H137.846L137.913 45.275C138.031 45.0388 138.183 44.8532 138.369 44.7099C138.554 44.5749 138.765 44.5074 139.01 44.5074C139.077 44.5074 139.128 44.5159 139.187 44.5243C139.238 44.5327 139.288 44.5496 139.339 44.558L139.212 45.5449Z" fill="#433E3F"/>
<path d="M143.075 49.2729C143.042 49.1549 143.008 49.0368 142.983 48.9271C142.957 48.8175 142.94 48.6994 142.932 48.5897C142.789 48.809 142.603 48.9946 142.367 49.138C142.131 49.2898 141.869 49.3573 141.574 49.3573C141.085 49.3573 140.714 49.2308 140.452 48.9777C140.191 48.7247 140.064 48.3789 140.064 47.9487C140.064 47.4933 140.241 47.1474 140.604 46.8944C140.967 46.6414 141.464 46.5148 142.114 46.5148H142.932V46.1016C142.932 45.857 142.864 45.663 142.721 45.528C142.578 45.3931 142.375 45.3171 142.097 45.3171C141.861 45.3171 141.667 45.3762 141.523 45.4858C141.38 45.6039 141.313 45.7473 141.313 45.9329H140.3L140.292 45.9076C140.275 45.5364 140.435 45.2075 140.79 44.9292C141.144 44.6508 141.599 44.499 142.156 44.499C142.704 44.499 143.143 44.6339 143.472 44.9123C143.809 45.1906 143.969 45.587 143.969 46.1016V48.1765C143.969 48.3704 143.986 48.556 144.012 48.7331C144.037 48.9103 144.079 49.0874 144.138 49.2561H143.075V49.2729ZM141.793 48.5223C142.055 48.5223 142.291 48.4548 142.502 48.3198C142.713 48.1849 142.856 48.0331 142.924 47.8644V47.1727H142.089C141.785 47.1727 141.54 47.2487 141.372 47.4005C141.203 47.5523 141.11 47.7294 141.11 47.9319C141.11 48.109 141.169 48.2524 141.287 48.3536C141.405 48.4717 141.574 48.5223 141.793 48.5223Z" fill="#433E3F"/>
<path d="M146.289 44.6002L146.348 45.275C146.5 45.0388 146.694 44.8532 146.921 44.7183C147.149 44.5833 147.411 44.5159 147.706 44.5159C148.195 44.5159 148.575 44.6677 148.845 44.9629C149.114 45.2665 149.249 45.7304 149.249 46.3715V49.2814H148.195V46.3799C148.195 46.0172 148.128 45.7557 147.984 45.6039C147.841 45.4521 147.63 45.3762 147.343 45.3762C147.115 45.3762 146.921 45.4184 146.761 45.5027C146.601 45.587 146.466 45.7051 146.365 45.8569V49.2814H145.31V44.6086H146.289V44.6002Z" fill="#433E3F"/>
<path d="M153.239 47.9909C153.239 47.8306 153.172 47.6957 153.037 47.5945C152.902 47.4933 152.64 47.392 152.261 47.3077C151.712 47.198 151.291 47.0294 150.995 46.8101C150.709 46.5908 150.557 46.2955 150.557 45.9329C150.557 45.5449 150.725 45.2075 151.054 44.9291C151.383 44.6508 151.822 44.5159 152.362 44.5159C152.918 44.5159 153.374 44.6592 153.711 44.946C154.049 45.2328 154.217 45.5786 154.201 45.9835L154.192 46.0088H153.188C153.188 45.8148 153.112 45.6545 152.961 45.5111C152.809 45.3677 152.606 45.3003 152.362 45.3003C152.109 45.3003 151.915 45.3593 151.78 45.4774C151.645 45.5955 151.577 45.7304 151.577 45.8991C151.577 46.0594 151.636 46.1859 151.763 46.2787C151.889 46.3715 152.142 46.4558 152.53 46.5317C153.104 46.6498 153.534 46.8185 153.829 47.0378C154.125 47.2571 154.268 47.5607 154.268 47.9318C154.268 48.3536 154.091 48.6994 153.745 48.9609C153.399 49.2308 152.944 49.3573 152.37 49.3573C151.763 49.3573 151.282 49.2055 150.928 48.8934C150.574 48.5813 150.413 48.2271 150.43 47.8222L150.439 47.7969H151.417C151.426 48.0668 151.527 48.2608 151.712 48.3873C151.898 48.5138 152.117 48.5729 152.387 48.5729C152.657 48.5729 152.859 48.5223 153.011 48.4126C153.163 48.3114 153.239 48.168 153.239 47.9909Z" fill="#433E3F"/>
<path d="M155.82 49.2729V45.3762H155.103V44.6002H155.82V44.052C155.82 43.5375 155.963 43.141 156.242 42.8627C156.52 42.5844 156.916 42.441 157.422 42.441C157.524 42.441 157.625 42.4494 157.726 42.4663C157.827 42.4831 157.945 42.5 158.08 42.5337L157.971 43.3435C157.912 43.335 157.853 43.3182 157.777 43.3097C157.709 43.3013 157.633 43.3013 157.549 43.3013C157.321 43.3013 157.152 43.3688 157.034 43.4953C156.925 43.6218 156.866 43.8074 156.866 44.052V44.6002H157.734V45.3762H156.866V49.2729H155.82Z" fill="#433E3F"/>
<path d="M158.544 46.8944C158.544 46.1943 158.738 45.6292 159.118 45.1822C159.497 44.7352 160.02 44.5159 160.687 44.5159C161.361 44.5159 161.884 44.7352 162.264 45.1822C162.643 45.6292 162.837 46.2028 162.837 46.8944V46.9872C162.837 47.6872 162.643 48.2608 162.264 48.7078C161.884 49.1464 161.361 49.3742 160.695 49.3742C160.029 49.3742 159.497 49.1549 159.118 48.7078C158.738 48.2608 158.544 47.6957 158.544 46.9956V46.8944ZM159.599 46.9787C159.599 47.4342 159.691 47.8053 159.868 48.0921C160.046 48.3789 160.324 48.5223 160.695 48.5223C161.058 48.5223 161.336 48.3789 161.522 48.0921C161.707 47.8053 161.8 47.4342 161.8 46.9787V46.886C161.8 46.4389 161.707 46.0678 161.522 45.781C161.336 45.4943 161.058 45.3509 160.687 45.3509C160.324 45.3509 160.046 45.4943 159.868 45.781C159.691 46.0678 159.599 46.4389 159.599 46.886V46.9787Z" fill="#433E3F"/>
<path d="M166.346 45.5449L165.899 45.528C165.697 45.528 165.52 45.5702 165.385 45.6545C165.25 45.7389 165.14 45.8654 165.064 46.0256V49.273H164.018V44.6002H164.98L165.047 45.275C165.165 45.0388 165.317 44.8532 165.503 44.7099C165.688 44.5749 165.899 44.5074 166.144 44.5074C166.211 44.5074 166.262 44.5159 166.321 44.5243C166.372 44.5327 166.422 44.5496 166.473 44.558L166.346 45.5449Z" fill="#433E3F"/>
<path d="M168.354 44.6002L168.413 45.2075C168.565 44.9882 168.759 44.8111 168.986 44.693C169.214 44.5749 169.484 44.5159 169.788 44.5159C170.091 44.5159 170.353 44.5833 170.572 44.7267C170.791 44.8617 170.96 45.0725 171.061 45.3509C171.205 45.0894 171.399 44.887 171.635 44.7436C171.871 44.6002 172.149 44.5243 172.461 44.5243C172.934 44.5243 173.305 44.6845 173.575 45.0135C173.845 45.3424 173.979 45.8316 173.979 46.498V49.2814H172.925V46.4895C172.925 46.0762 172.858 45.7895 172.723 45.6292C172.588 45.469 172.377 45.3846 172.107 45.3846C171.879 45.3846 171.694 45.4437 171.533 45.5617C171.373 45.6798 171.264 45.8485 171.196 46.0509C171.196 46.0931 171.196 46.1353 171.196 46.1606C171.196 46.1943 171.196 46.2196 171.196 46.2534V49.2814H170.142V46.4895C170.142 46.0931 170.074 45.8148 169.931 45.6377C169.788 45.469 169.585 45.3762 169.315 45.3762C169.104 45.3762 168.919 45.4184 168.775 45.5027C168.632 45.587 168.505 45.7051 168.421 45.8485V49.2814H167.375V44.6086H168.354V44.6002Z" fill="#433E3F"/>
<path d="M178.171 49.2729C178.138 49.1549 178.104 49.0368 178.079 48.9271C178.053 48.8175 178.036 48.6994 178.028 48.5897C177.885 48.809 177.699 48.9946 177.463 49.138C177.227 49.2898 176.965 49.3573 176.67 49.3573C176.181 49.3573 175.81 49.2308 175.548 48.9777C175.287 48.7247 175.16 48.3789 175.16 47.9487C175.16 47.4933 175.337 47.1474 175.7 46.8944C176.063 46.6414 176.56 46.5148 177.21 46.5148H178.028V46.1016C178.028 45.857 177.961 45.663 177.817 45.528C177.674 45.3931 177.471 45.3171 177.193 45.3171C176.957 45.3171 176.763 45.3762 176.619 45.4858C176.476 45.6039 176.409 45.7473 176.409 45.9329H175.396L175.388 45.9076C175.371 45.5364 175.531 45.2075 175.886 44.9292C176.24 44.6508 176.695 44.499 177.252 44.499C177.8 44.499 178.239 44.6339 178.568 44.9123C178.905 45.1906 179.065 45.587 179.065 46.1016V48.1765C179.065 48.3704 179.082 48.556 179.108 48.7331C179.133 48.9103 179.175 49.0874 179.234 49.2561H178.171V49.2729ZM176.889 48.5223C177.151 48.5223 177.387 48.4548 177.598 48.3198C177.809 48.1849 177.952 48.0331 178.02 47.8644V47.1727H177.185C176.881 47.1727 176.636 47.2487 176.468 47.4005C176.299 47.5523 176.206 47.7294 176.206 47.9319C176.206 48.109 176.265 48.2524 176.383 48.3536C176.501 48.4717 176.67 48.5223 176.889 48.5223Z" fill="#433E3F"/>
<path d="M181.773 43.4615V44.6002H182.608V45.3762H181.773V47.9572C181.773 48.1512 181.815 48.2861 181.899 48.3705C181.984 48.4548 182.093 48.497 182.228 48.497C182.287 48.497 182.338 48.4885 182.397 48.4801C182.448 48.4717 182.507 48.4548 182.549 48.4379L182.659 49.2055C182.566 49.2561 182.465 49.2898 182.338 49.3236C182.22 49.3489 182.085 49.3657 181.959 49.3657C181.571 49.3657 181.267 49.2561 181.048 49.0284C180.828 48.8006 180.719 48.4464 180.719 47.9656V45.3846H180.002V44.6086H180.719V43.4615H181.773Z" fill="#433E3F"/>
<path d="M184.843 43.4531H183.789V42.5337H184.843V43.4531ZM184.843 49.2729H183.789V44.6002H184.843V49.2729Z" fill="#433E3F"/>
<path d="M186.091 46.8944C186.091 46.1943 186.285 45.6292 186.665 45.1822C187.045 44.7352 187.567 44.5159 188.234 44.5159C188.909 44.5159 189.432 44.7352 189.811 45.1822C190.191 45.6292 190.385 46.2028 190.385 46.8944V46.9872C190.385 47.6872 190.191 48.2608 189.811 48.7078C189.432 49.1464 188.909 49.3742 188.242 49.3742C187.576 49.3742 187.045 49.1549 186.665 48.7078C186.285 48.2608 186.091 47.6957 186.091 46.9956V46.8944ZM187.146 46.9787C187.146 47.4342 187.239 47.8053 187.416 48.0921C187.593 48.3789 187.871 48.5223 188.242 48.5223C188.605 48.5223 188.883 48.3789 189.069 48.0921C189.254 47.8053 189.347 47.4342 189.347 46.9787V46.886C189.347 46.4389 189.254 46.0678 189.069 45.781C188.883 45.4943 188.605 45.3509 188.234 45.3509C187.871 45.3509 187.593 45.4943 187.416 45.781C187.239 46.0678 187.146 46.4389 187.146 46.886V46.9787Z" fill="#433E3F"/>
<path d="M192.519 44.6002L192.578 45.275C192.729 45.0388 192.923 44.8532 193.151 44.7183C193.379 44.5833 193.64 44.5159 193.936 44.5159C194.425 44.5159 194.804 44.6677 195.074 44.9629C195.344 45.2665 195.479 45.7304 195.479 46.3715V49.2814H194.425V46.3799C194.425 46.0172 194.357 45.7557 194.214 45.6039C194.071 45.4521 193.86 45.3762 193.573 45.3762C193.345 45.3762 193.151 45.4184 192.991 45.5027C192.831 45.587 192.696 45.7051 192.594 45.8569V49.2814H191.54V44.6086H192.519V44.6002Z" fill="#433E3F"/>
<path d="M200.658 43.4615V44.6002H201.493V45.3762H200.658V47.9572C200.658 48.1512 200.7 48.2861 200.784 48.3705C200.869 48.4548 200.978 48.497 201.113 48.497C201.172 48.497 201.223 48.4885 201.282 48.4801C201.333 48.4717 201.392 48.4548 201.434 48.4379L201.544 49.2055C201.451 49.2561 201.35 49.2898 201.223 49.3236C201.105 49.3489 200.97 49.3657 200.844 49.3657C200.456 49.3657 200.152 49.2561 199.933 49.0284C199.713 48.8006 199.604 48.4464 199.604 47.9656V45.3846H198.887V44.6086H199.604V43.4615H200.658Z" fill="#433E3F"/>
<path d="M203.644 45.1991C203.796 44.9798 203.99 44.8111 204.209 44.693C204.428 44.5749 204.681 44.5159 204.951 44.5159C205.449 44.5159 205.837 44.6677 206.115 44.9882C206.393 45.3003 206.528 45.781 206.528 46.4305V49.2814H205.474V46.4136C205.474 46.0509 205.407 45.781 205.263 45.6123C205.12 45.4437 204.909 45.3677 204.622 45.3677C204.394 45.3677 204.2 45.4099 204.04 45.4858C203.872 45.5617 203.745 45.6714 203.635 45.8148V49.2645H202.581V42.5337H203.635V45.1991H203.644Z" fill="#433E3F"/>
<path d="M210.704 49.2729C210.67 49.1549 210.636 49.0368 210.611 48.9271C210.585 48.8175 210.569 48.6994 210.56 48.5897C210.417 48.809 210.231 48.9946 209.995 49.138C209.759 49.2898 209.497 49.3573 209.202 49.3573C208.713 49.3573 208.342 49.2308 208.08 48.9777C207.819 48.7247 207.692 48.3789 207.692 47.9487C207.692 47.4933 207.87 47.1474 208.232 46.8944C208.595 46.6414 209.093 46.5148 209.742 46.5148H210.56V46.1016C210.56 45.857 210.493 45.663 210.349 45.528C210.206 45.3931 210.003 45.3171 209.725 45.3171C209.489 45.3171 209.295 45.3762 209.152 45.4858C209.008 45.6039 208.941 45.7473 208.941 45.9329H207.929L207.92 45.9076C207.903 45.5364 208.064 45.2075 208.418 44.9292C208.772 44.6508 209.227 44.499 209.784 44.499C210.332 44.499 210.771 44.6339 211.1 44.9123C211.437 45.1906 211.598 45.587 211.598 46.1016V48.1765C211.598 48.3704 211.614 48.556 211.64 48.7331C211.665 48.9103 211.707 49.0874 211.766 49.2561H210.704V49.2729ZM209.421 48.5223C209.683 48.5223 209.919 48.4548 210.13 48.3198C210.341 48.1849 210.484 48.0331 210.552 47.8644V47.1727H209.717C209.413 47.1727 209.168 47.2487 209 47.4005C208.831 47.5523 208.738 47.7294 208.738 47.9319C208.738 48.109 208.797 48.2524 208.915 48.3536C209.033 48.4717 209.202 48.5223 209.421 48.5223Z" fill="#433E3F"/>
<path d="M214.313 43.4615V44.6002H215.149V45.3762H214.313V47.9572C214.313 48.1512 214.356 48.2861 214.44 48.3705C214.524 48.4548 214.634 48.497 214.769 48.497C214.828 48.497 214.879 48.4885 214.938 48.4801C214.988 48.4717 215.047 48.4548 215.089 48.4379L215.199 49.2055C215.106 49.2561 215.005 49.2898 214.879 49.3236C214.761 49.3489 214.626 49.3657 214.499 49.3657C214.111 49.3657 213.807 49.2561 213.588 49.0284C213.369 48.8006 213.259 48.4464 213.259 47.9656V45.3846H212.551V44.6086H213.268V43.4615H214.313Z" fill="#433E3F"/>
<path d="M220.715 49.3657C220.032 49.3657 219.501 49.1549 219.113 48.7163C218.725 48.2777 218.539 47.7294 218.539 47.0378V46.8607C218.539 46.1775 218.733 45.6124 219.113 45.1653C219.492 44.7183 219.99 44.499 220.597 44.499C221.23 44.499 221.702 44.693 222.023 45.081C222.343 45.469 222.503 45.9835 222.503 46.6329V47.198H219.61L219.602 47.2234C219.61 47.6029 219.712 47.915 219.906 48.1596C220.1 48.4042 220.386 48.5138 220.766 48.5138C221.053 48.5138 221.297 48.4801 221.508 48.4126C221.719 48.3451 221.913 48.2439 222.09 48.1174L222.436 48.8006C222.259 48.9524 222.023 49.0874 221.727 49.197C221.441 49.3067 221.103 49.3657 220.715 49.3657ZM220.606 45.3509C220.336 45.3509 220.116 45.4521 219.948 45.6461C219.779 45.8401 219.678 46.1016 219.644 46.4136L219.653 46.4389H221.483V46.3546C221.483 46.0509 221.415 45.8148 221.272 45.6292C221.129 45.4437 220.909 45.3509 220.606 45.3509Z" fill="#433E3F"/>
<path d="M225.202 47.6872L225.278 48.0668H225.304L225.388 47.6872L226.316 44.5918H227.404L225.742 49.2645H224.831L223.161 44.5918H224.249L225.202 47.6872Z" fill="#433E3F"/>
<path d="M228.062 46.8944C228.062 46.1943 228.256 45.6292 228.635 45.1822C229.015 44.7352 229.538 44.5159 230.204 44.5159C230.879 44.5159 231.402 44.7352 231.781 45.1822C232.161 45.6292 232.355 46.2028 232.355 46.8944V46.9872C232.355 47.6872 232.161 48.2608 231.781 48.7078C231.402 49.1464 230.879 49.3742 230.213 49.3742C229.546 49.3742 229.015 49.1549 228.635 48.7078C228.256 48.2608 228.062 47.6957 228.062 46.9956V46.8944ZM229.116 46.9787C229.116 47.4342 229.209 47.8053 229.386 48.0921C229.563 48.3789 229.841 48.5223 230.213 48.5223C230.575 48.5223 230.854 48.3789 231.039 48.0921C231.225 47.8053 231.317 47.4342 231.317 46.9787V46.886C231.317 46.4389 231.225 46.0678 231.039 45.781C230.854 45.4943 230.575 45.3509 230.204 45.3509C229.841 45.3509 229.563 45.4943 229.386 45.781C229.209 46.0678 229.116 46.4389 229.116 46.886V46.9787Z" fill="#433E3F"/>
<path d="M234.658 49.2729H233.603V42.5337H234.658V49.2729Z" fill="#433E3F"/>
<path d="M237.728 47.6872L237.804 48.0668H237.829L237.913 47.6872L238.841 44.5918H239.929L238.268 49.2645H237.357L235.687 44.5918H236.775L237.728 47.6872Z" fill="#433E3F"/>
<path d="M242.78 49.3657C242.097 49.3657 241.566 49.1549 241.178 48.7163C240.79 48.2777 240.604 47.7294 240.604 47.0378V46.8607C240.604 46.1775 240.798 45.6124 241.178 45.1653C241.557 44.7183 242.055 44.499 242.662 44.499C243.295 44.499 243.767 44.693 244.087 45.081C244.408 45.469 244.568 45.9835 244.568 46.6329V47.198H241.675L241.667 47.2234C241.675 47.6029 241.776 47.915 241.97 48.1596C242.164 48.4042 242.451 48.5138 242.831 48.5138C243.117 48.5138 243.362 48.4801 243.573 48.4126C243.784 48.3451 243.978 48.2439 244.155 48.1174L244.501 48.8006C244.324 48.9524 244.087 49.0874 243.792 49.197C243.497 49.3067 243.16 49.3657 242.78 49.3657ZM242.662 45.3509C242.392 45.3509 242.173 45.4521 242.004 45.6461C241.835 45.8401 241.734 46.1016 241.7 46.4136L241.709 46.4389H243.539V46.3546C243.539 46.0509 243.472 45.8148 243.328 45.6292C243.185 45.4437 242.966 45.3509 242.662 45.3509Z" fill="#433E3F"/>
<path d="M248.322 47.9909C248.322 47.8306 248.254 47.6957 248.119 47.5945C247.984 47.4933 247.723 47.392 247.343 47.3077C246.795 47.198 246.373 47.0294 246.078 46.8101C245.791 46.5908 245.639 46.2955 245.639 45.9329C245.639 45.5449 245.808 45.2075 246.137 44.9291C246.466 44.6508 246.905 44.5159 247.444 44.5159C248.001 44.5159 248.456 44.6592 248.794 44.946C249.131 45.2328 249.3 45.5786 249.283 45.9835L249.275 46.0088H248.271C248.271 45.8148 248.195 45.6545 248.043 45.5111C247.891 45.3677 247.689 45.3003 247.444 45.3003C247.191 45.3003 246.997 45.3593 246.862 45.4774C246.727 45.5955 246.66 45.7304 246.66 45.8991C246.66 46.0594 246.719 46.1859 246.845 46.2787C246.972 46.3715 247.225 46.4558 247.613 46.5317C248.187 46.6498 248.617 46.8185 248.912 47.0378C249.207 47.2571 249.351 47.5607 249.351 47.9318C249.351 48.3536 249.173 48.6994 248.828 48.9609C248.482 49.2308 248.026 49.3573 247.453 49.3573C246.845 49.3573 246.365 49.2055 246.01 48.8934C245.656 48.5813 245.496 48.2271 245.513 47.8222L245.521 47.7969H246.5C246.508 48.0668 246.609 48.2608 246.795 48.3873C246.98 48.5138 247.2 48.5729 247.47 48.5729C247.74 48.5729 247.942 48.5223 248.094 48.4126C248.246 48.3114 248.322 48.168 248.322 47.9909Z" fill="#433E3F"/>
<path d="M96.4238 38.7466C96.1792 38.7466 95.9767 38.6707 95.8249 38.5105C95.6731 38.3586 95.5887 38.1562 95.5887 37.9116V16.3698C95.5887 16.1252 95.6647 15.9312 95.8249 15.7709C95.9767 15.6191 96.1792 15.5347 96.4238 15.5347H111.437C111.682 15.5347 111.876 15.6107 112.036 15.7709C112.188 15.9227 112.272 16.1252 112.272 16.3698V19.0182C112.272 19.2375 112.196 19.4315 112.036 19.5833C111.884 19.7352 111.682 19.8195 111.437 19.8195H100.7V25.0236H110.712C110.956 25.0236 111.15 25.0995 111.311 25.2598C111.463 25.4116 111.547 25.614 111.547 25.8586V28.3131C111.547 28.5324 111.471 28.7179 111.311 28.8782C111.159 29.03 110.956 29.1144 110.712 29.1144H100.7V34.4872H111.707C111.952 34.4872 112.146 34.5631 112.306 34.7233C112.458 34.8752 112.542 35.0776 112.542 35.3222V37.9453C112.542 38.1899 112.466 38.3839 112.306 38.5442C112.154 38.696 111.952 38.7804 111.707 38.7804H96.4238V38.7466Z" fill="url(#paint0_linear_86_313)"/>
<path d="M119.965 38.7466C119.636 38.7466 119.383 38.6623 119.222 38.502C119.054 38.3333 118.919 38.1393 118.809 37.92L112.576 22.5354C112.534 22.4511 112.508 22.3499 112.508 22.2402C112.508 22.0378 112.576 21.8691 112.719 21.7257C112.863 21.5823 113.031 21.5148 113.234 21.5148H116.447C116.734 21.5148 116.953 21.5908 117.097 21.7426C117.24 21.8944 117.333 22.0378 117.375 22.1727L121.457 33.1124L125.531 22.1727C125.599 22.0378 125.7 21.8944 125.843 21.7426C125.987 21.5908 126.189 21.5148 126.459 21.5148H129.673C129.875 21.5148 130.044 21.5823 130.187 21.7257C130.331 21.8691 130.398 22.0378 130.398 22.2402C130.398 22.3499 130.39 22.4511 130.364 22.5354L124.097 37.92C124.013 38.1393 123.878 38.3333 123.701 38.502C123.524 38.6707 123.271 38.7466 122.942 38.7466H119.965Z" fill="url(#paint1_linear_86_313)"/>
<path d="M138.495 39.084C136.665 39.084 135.121 38.7804 133.89 38.1731C132.65 37.5658 131.705 36.697 131.056 35.5752C130.407 34.445 130.044 33.1376 129.976 31.6279C129.951 31.1893 129.943 30.6832 129.943 30.1181C129.943 29.553 129.951 29.0638 129.976 28.642C130.044 27.1154 130.415 25.7996 131.107 24.6778C131.79 23.5644 132.751 22.7041 133.991 22.0884C135.231 21.4811 136.732 21.1775 138.495 21.1775C140.241 21.1775 141.734 21.4811 142.974 22.0884C144.214 22.6957 145.175 23.556 145.859 24.6778C146.542 25.7912 146.921 27.1154 146.989 28.642C147.031 29.0638 147.056 29.553 147.056 30.1181C147.056 30.6832 147.031 31.1808 146.989 31.6279C146.921 33.1292 146.567 34.445 145.909 35.5752C145.26 36.7055 144.315 37.5658 143.075 38.1731C141.827 38.7804 140.3 39.084 138.495 39.084ZM138.495 35.4318C139.575 35.4318 140.393 35.0945 140.95 34.4197C141.498 33.7449 141.802 32.7581 141.844 31.4507C141.869 31.1218 141.878 30.6748 141.878 30.1265C141.878 29.5698 141.869 29.1312 141.844 28.8023C141.802 27.5202 141.498 26.5334 140.95 25.8502C140.393 25.167 139.575 24.8212 138.495 24.8212C137.416 24.8212 136.589 25.167 136.024 25.8502C135.459 26.5334 135.155 27.5202 135.113 28.8023C135.088 29.1312 135.079 29.5783 135.079 30.1265C135.079 30.6832 135.088 31.1218 135.113 31.4507C135.155 32.7581 135.459 33.7449 136.024 34.4197C136.589 35.0945 137.407 35.4318 138.495 35.4318Z" fill="url(#paint2_linear_86_313)"/>
<path d="M149.367 38.7466C149.148 38.7466 148.963 38.6707 148.802 38.5105C148.651 38.3586 148.566 38.1562 148.566 37.9116V22.3414C148.566 22.0968 148.642 21.9028 148.802 21.7426C148.954 21.5908 149.148 21.5148 149.367 21.5148H152.615C152.859 21.5148 153.053 21.5908 153.214 21.7426C153.365 21.8944 153.45 22.0968 153.45 22.3414V23.6319C154.023 22.9234 154.766 22.3414 155.668 21.8775C156.571 21.4136 157.675 21.1775 158.983 21.1775C160.29 21.1775 161.429 21.4727 162.416 22.0547C163.403 22.6366 164.17 23.4885 164.735 24.6103C165.3 25.7237 165.579 27.0816 165.579 28.6673V37.92C165.579 38.1646 165.494 38.3586 165.334 38.5189C165.165 38.6707 164.971 38.7551 164.752 38.7551H161.235C160.99 38.7551 160.796 38.6791 160.636 38.5189C160.484 38.3671 160.4 38.1646 160.4 37.92V28.8698C160.4 27.6974 160.121 26.7864 159.556 26.137C158.991 25.4875 158.173 25.1586 157.085 25.1586C156.048 25.1586 155.221 25.4875 154.597 26.137C153.981 26.7864 153.669 27.6974 153.669 28.8698V37.92C153.669 38.1646 153.593 38.3586 153.441 38.5189C153.29 38.6707 153.096 38.7551 152.876 38.7551H149.367V38.7466Z" fill="url(#paint3_linear_86_313)"/>
<path d="M168.387 38.7466C168.168 38.7466 167.982 38.6707 167.822 38.5105C167.67 38.3586 167.586 38.1562 167.586 37.9116V22.3414C167.586 22.0968 167.662 21.9028 167.822 21.7426C167.974 21.5908 168.168 21.5148 168.387 21.5148H171.702C171.947 21.5148 172.141 21.5908 172.301 21.7426C172.453 21.8944 172.537 22.0968 172.537 22.3414V37.92C172.537 38.1646 172.461 38.3586 172.301 38.5189C172.149 38.6707 171.947 38.7551 171.702 38.7551H168.387V38.7466Z" fill="url(#paint4_linear_86_313)"/>
<path d="M182.38 39.084C180.769 39.084 179.344 38.7888 178.121 38.1899C176.898 37.5911 175.928 36.7308 175.219 35.5921C174.511 34.4534 174.123 33.087 174.055 31.5013C174.03 31.1471 174.022 30.7001 174.022 30.1602C174.022 29.6204 174.03 29.1734 174.055 28.8192C174.123 27.2082 174.502 25.8333 175.202 24.6947C175.903 23.556 176.864 22.6872 178.104 22.0968C179.344 21.498 180.769 21.2028 182.38 21.2028C183.865 21.2028 185.121 21.4052 186.159 21.8185C187.196 22.2233 188.048 22.7378 188.715 23.362C189.381 23.9777 189.87 24.6272 190.191 25.3019C190.511 25.9767 190.68 26.5671 190.705 27.0732C190.73 27.2925 190.655 27.4865 190.486 27.6552C190.317 27.8239 190.123 27.9082 189.904 27.9082H186.361C186.142 27.9082 185.965 27.8492 185.847 27.7227C185.729 27.6046 185.611 27.4275 185.501 27.2082C185.189 26.4322 184.793 25.8839 184.312 25.5466C183.823 25.2176 183.215 25.0489 182.49 25.0489C181.495 25.0489 180.71 25.3694 180.137 26.0105C179.563 26.6515 179.251 27.6468 179.209 28.9963C179.184 29.8566 179.184 30.641 179.209 31.3495C179.276 32.7159 179.588 33.7112 180.154 34.3354C180.719 34.9511 181.495 35.2632 182.49 35.2632C183.266 35.2632 183.882 35.0945 184.345 34.7655C184.809 34.4366 185.197 33.8799 185.509 33.1039C185.594 32.8846 185.712 32.7159 185.838 32.5894C185.973 32.4713 186.15 32.4038 186.37 32.4038H189.912C190.132 32.4038 190.326 32.4882 190.494 32.6484C190.663 32.8171 190.73 33.0111 190.714 33.2304C190.688 33.61 190.587 34.0486 190.401 34.5547C190.216 35.0607 189.912 35.5837 189.507 36.115C189.094 36.6464 188.571 37.1356 187.93 37.5911C187.289 38.0466 186.513 38.4092 185.594 38.6876C184.658 38.9406 183.595 39.084 182.38 39.084Z" fill="url(#paint5_linear_86_313)"/>
<path d="M198.785 39.084C197.419 39.084 196.238 38.9237 195.251 38.6032C194.265 38.2827 193.472 37.8947 192.864 37.4308C192.257 36.9669 191.802 36.4946 191.506 36.0223C191.211 35.5499 191.051 35.1451 191.026 34.8161C191 34.5715 191.085 34.3775 191.262 34.2173C191.439 34.0654 191.616 33.9811 191.793 33.9811H195.007C195.074 33.9811 195.142 33.9895 195.209 34.0148C195.277 34.0401 195.344 34.0907 195.412 34.1835C195.698 34.386 195.994 34.6053 196.306 34.8667C196.618 35.1198 196.972 35.3391 197.385 35.5162C197.79 35.6933 198.305 35.7777 198.929 35.7777C199.654 35.7777 200.278 35.6258 200.784 35.3306C201.29 35.0354 201.544 34.6053 201.544 34.057C201.544 33.6606 201.425 33.3316 201.198 33.0617C200.962 32.8003 200.531 32.5557 199.89 32.3364C199.249 32.1171 198.296 31.8725 197.039 31.611C195.85 31.3495 194.83 30.9953 193.986 30.5482C193.143 30.1096 192.519 29.5445 192.097 28.8782C191.675 28.2034 191.464 27.3937 191.464 26.4406C191.464 25.5803 191.734 24.7537 192.274 23.9524C192.814 23.1596 193.615 22.5017 194.678 21.9787C195.741 21.4558 197.065 21.2028 198.659 21.2028C199.873 21.2028 200.945 21.3546 201.856 21.6498C202.775 21.945 203.543 22.3246 204.158 22.78C204.774 23.2355 205.246 23.6994 205.567 24.1717C205.887 24.6441 206.056 25.0658 206.081 25.4116C206.107 25.6309 206.039 25.8165 205.879 25.9767C205.727 26.1285 205.55 26.2129 205.348 26.2129H202.395C202.286 26.2129 202.185 26.196 202.1 26.1623C202.007 26.1285 201.932 26.0779 201.864 26.0105C201.603 25.8333 201.324 25.6309 201.054 25.3947C200.776 25.1586 200.455 24.9561 200.076 24.779C199.696 24.6019 199.216 24.5175 198.617 24.5175C197.891 24.5175 197.326 24.6778 196.947 24.9983C196.559 25.3188 196.365 25.7237 196.365 26.2044C196.365 26.5165 196.466 26.8033 196.66 27.0648C196.862 27.3262 197.267 27.5708 197.883 27.7901C198.499 28.0094 199.443 28.2456 200.7 28.4902C202.201 28.7517 203.399 29.1565 204.276 29.6795C205.162 30.2109 205.795 30.8266 206.183 31.5182C206.571 32.2183 206.765 32.9605 206.765 33.7534C206.765 34.7908 206.452 35.7186 205.837 36.5199C205.221 37.3296 204.318 37.9538 203.138 38.4092C201.957 38.8647 200.515 39.084 198.785 39.084Z" fill="#0F446E"/>
<path d="M215.891 39.084C214.06 39.084 212.517 38.7804 211.285 38.1731C210.046 37.5658 209.101 36.697 208.451 35.5752C207.802 34.445 207.439 33.1376 207.372 31.6279C207.347 31.1893 207.338 30.6832 207.338 30.1181C207.338 29.553 207.347 29.0638 207.372 28.642C207.439 27.1154 207.81 25.7996 208.502 24.6778C209.185 23.5644 210.147 22.7041 211.387 22.0884C212.627 21.4811 214.128 21.1775 215.891 21.1775C217.637 21.1775 219.13 21.4811 220.369 22.0884C221.609 22.6957 222.571 23.556 223.254 24.6778C223.937 25.7912 224.317 27.1154 224.384 28.642C224.427 29.0638 224.452 29.553 224.452 30.1181C224.452 30.6832 224.427 31.1808 224.384 31.6279C224.317 33.1292 223.963 34.445 223.305 35.5752C222.655 36.7055 221.711 37.5658 220.471 38.1731C219.231 38.7804 217.704 39.084 215.891 39.084ZM215.891 35.4318C216.97 35.4318 217.789 35.0945 218.345 34.4197C218.893 33.7449 219.197 32.7581 219.239 31.4507C219.265 31.1218 219.273 30.6748 219.273 30.1265C219.273 29.5698 219.265 29.1312 219.239 28.8023C219.197 27.5202 218.893 26.5334 218.345 25.8502C217.789 25.167 216.97 24.8212 215.891 24.8212C214.811 24.8212 213.985 25.167 213.419 25.8502C212.854 26.5334 212.551 27.5202 212.509 28.8023C212.483 29.1312 212.475 29.5783 212.475 30.1265C212.475 30.6832 212.483 31.1218 212.509 31.4507C212.551 32.7581 212.854 33.7449 213.419 34.4197C213.985 35.0945 214.811 35.4318 215.891 35.4318Z" fill="#0F446E"/>
<path d="M228.517 38.7466C228.273 38.7466 228.079 38.6707 227.918 38.5105C227.767 38.3586 227.682 38.1562 227.682 37.9116V25.42H225.093C224.848 25.42 224.654 25.3441 224.494 25.1839C224.342 25.0321 224.258 24.8296 224.258 24.585V22.333C224.258 22.0884 224.334 21.8944 224.494 21.7341C224.646 21.5823 224.848 21.5064 225.093 21.5064H227.682V20.3171C227.682 18.9001 227.944 17.7446 228.475 16.8337C229.006 15.9312 229.782 15.2648 230.795 14.8431C231.807 14.4214 233.055 14.2105 234.54 14.2105H236.96C237.205 14.2105 237.399 14.2864 237.559 14.4467C237.711 14.5985 237.795 14.8009 237.795 15.0455V17.2976C237.795 17.5422 237.719 17.7362 237.559 17.8964C237.407 18.0482 237.205 18.1326 236.96 18.1326H234.742C233.924 18.1326 233.359 18.335 233.038 18.7314C232.718 19.1279 232.557 19.7183 232.557 20.4858V21.5148H236.631C236.876 21.5148 237.07 21.5908 237.23 21.7426C237.382 21.8944 237.466 22.0968 237.466 22.3414V24.5935C237.466 24.8381 237.39 25.0321 237.23 25.1923C237.078 25.3441 236.876 25.4285 236.631 25.4285H232.557V37.9285C232.557 38.1731 232.481 38.3671 232.321 38.5273C232.169 38.6792 231.975 38.7635 231.756 38.7635H228.517V38.7466Z" fill="#0F446E"/>
<path d="M246.323 38.7466C244.948 38.7466 243.784 38.5189 242.805 38.0634C241.835 37.608 241.102 36.9079 240.604 35.9548C240.106 35.0017 239.862 33.8124 239.862 32.3785V25.42H237.272C237.028 25.42 236.834 25.3441 236.673 25.1839C236.522 25.0321 236.437 24.8296 236.437 24.585V22.333C236.437 22.0884 236.513 21.8944 236.673 21.7341C236.825 21.5823 237.028 21.5064 237.272 21.5064H239.862V16.0324C239.862 15.7878 239.946 15.5938 240.106 15.4335C240.275 15.2817 240.469 15.1974 240.688 15.1974H243.936C244.18 15.1974 244.374 15.2733 244.534 15.4335C244.686 15.5854 244.771 15.7878 244.771 16.0324V21.5064H248.912C249.131 21.5064 249.317 21.5823 249.477 21.7341C249.629 21.886 249.713 22.0884 249.713 22.333V24.585C249.713 24.8296 249.637 25.0236 249.477 25.1839C249.325 25.3357 249.131 25.42 248.912 25.42H244.771V31.9906C244.771 32.834 244.922 33.4835 245.218 33.9642C245.513 34.4366 246.044 34.6812 246.795 34.6812H249.216C249.435 34.6812 249.62 34.7571 249.781 34.9173C249.933 35.0692 250.017 35.2632 250.017 35.4825V37.9369C250.017 38.1815 249.941 38.3755 249.781 38.5358C249.629 38.6876 249.435 38.7719 249.216 38.7719H246.323V38.7466Z" fill="#0F446E"/>
<path d="M33.2321 20.3087C33.2321 20.3087 8.02969 30.5398 9.19365 38.5948C9.19365 38.5948 9.55634 43.8411 26.999 40.3408C26.999 40.3408 8.88158 41.1926 16.4811 36.0476C16.4811 36.0476 23.5071 31.2483 32.4814 28.4227L33.2321 20.3087Z" fill="#0F446E"/>
<path d="M12.247 32.5557C7.96224 32.0159 5.25475 30.5989 9.92749 27.2082C9.92749 27.2082 19.3151 20.3509 31.444 16.1083L32.1104 5C32.1104 5 -1.86401 20.0472 0.0843718 31.0037C0.0843718 31.0037 0.48923 34.9511 10.3914 34.7149C10.8806 33.9895 11.5132 33.2642 12.247 32.5557Z" fill="url(#paint6_linear_86_313)"/>
<path d="M40.1485 53.9288C41.6158 53.9288 42.8053 52.7393 42.8053 51.2719C42.8053 49.8046 41.6158 48.6151 40.1485 48.6151C38.6811 48.6151 37.4916 49.8046 37.4916 51.2719C37.4916 52.7393 38.6811 53.9288 40.1485 53.9288Z" fill="#0F446E"/>
<path d="M47.8492 25.7996C47.8492 25.7996 12.0529 35.7524 12.3819 46.8691C12.3819 46.8691 12.0529 54.0553 36.277 52.0142C36.277 52.0142 11.5553 50.3526 22.672 44.5496C22.672 44.5496 32.9622 39.1346 45.5718 36.697L47.8492 25.7996Z" fill="url(#paint7_linear_86_313)"/>
<path d="M70.8755 9.26788V55.3627" stroke="#B1B3B4" stroke-width="0.6" stroke-miterlimit="10"/>
</g>
<defs>
<linearGradient id="paint0_linear_86_313" x1="104.068" y1="40.2154" x2="104.068" y2="19.573" gradientUnits="userSpaceOnUse">
<stop stop-color="#295990"/>
<stop offset="0.1338" stop-color="#23679C"/>
<stop offset="0.4949" stop-color="#1688B8"/>
<stop offset="0.7965" stop-color="#0E9CCA"/>
<stop offset="1" stop-color="#0BA3D0"/>
</linearGradient>
<linearGradient id="paint1_linear_86_313" x1="121.453" y1="40.2154" x2="121.453" y2="19.573" gradientUnits="userSpaceOnUse">
<stop stop-color="#295990"/>
<stop offset="0.1338" stop-color="#23679C"/>
<stop offset="0.4949" stop-color="#1688B8"/>
<stop offset="0.7965" stop-color="#0E9CCA"/>
<stop offset="1" stop-color="#0BA3D0"/>
</linearGradient>
<linearGradient id="paint2_linear_86_313" x1="138.492" y1="40.2154" x2="138.492" y2="19.573" gradientUnits="userSpaceOnUse">
<stop stop-color="#295990"/>
<stop offset="0.1338" stop-color="#23679C"/>
<stop offset="0.4949" stop-color="#1688B8"/>
<stop offset="0.7965" stop-color="#0E9CCA"/>
<stop offset="1" stop-color="#0BA3D0"/>
</linearGradient>
<linearGradient id="paint3_linear_86_313" x1="157.071" y1="40.2154" x2="157.071" y2="19.573" gradientUnits="userSpaceOnUse">
<stop stop-color="#295990"/>
<stop offset="0.1338" stop-color="#23679C"/>
<stop offset="0.4949" stop-color="#1688B8"/>
<stop offset="0.7965" stop-color="#0E9CCA"/>
<stop offset="1" stop-color="#0BA3D0"/>
</linearGradient>
<linearGradient id="paint4_linear_86_313" x1="170.065" y1="40.2154" x2="170.065" y2="19.573" gradientUnits="userSpaceOnUse">
<stop stop-color="#295990"/>
<stop offset="0.1338" stop-color="#23679C"/>
<stop offset="0.4949" stop-color="#1688B8"/>
<stop offset="0.7965" stop-color="#0E9CCA"/>
<stop offset="1" stop-color="#0BA3D0"/>
</linearGradient>
<linearGradient id="paint5_linear_86_313" x1="182.364" y1="40.2154" x2="182.364" y2="19.573" gradientUnits="userSpaceOnUse">
<stop stop-color="#295990"/>
<stop offset="0.1338" stop-color="#23679C"/>
<stop offset="0.4949" stop-color="#1688B8"/>
<stop offset="0.7965" stop-color="#0E9CCA"/>
<stop offset="1" stop-color="#0BA3D0"/>
</linearGradient>
<linearGradient id="paint6_linear_86_313" x1="2.62882e-05" y1="19.8597" x2="32.1096" y2="19.8597" gradientUnits="userSpaceOnUse">
<stop stop-color="#295990"/>
<stop offset="0.1338" stop-color="#23679C"/>
<stop offset="0.4949" stop-color="#1688B8"/>
<stop offset="0.7965" stop-color="#0E9CCA"/>
<stop offset="1" stop-color="#0BA3D0"/>
</linearGradient>
<linearGradient id="paint7_linear_86_313" x1="12.3782" y1="39.0909" x2="47.8475" y2="39.0909" gradientUnits="userSpaceOnUse">
<stop stop-color="#295990"/>
<stop offset="0.1338" stop-color="#23679C"/>
<stop offset="0.4949" stop-color="#1688B8"/>
<stop offset="0.7965" stop-color="#0E9CCA"/>
<stop offset="1" stop-color="#0BA3D0"/>
</linearGradient>
<clipPath id="clip0_86_313">
<rect width="250" height="60" fill="white"/>
</clipPath>
</defs>
</svg>
