<svg xmlns="http://www.w3.org/2000/svg" xmlns:xlink="http://www.w3.org/1999/xlink" width="128" zoomAndPan="magnify" viewBox="0 0 96 95.999999" height="128" preserveAspectRatio="xMidYMid meet" version="1.0"><defs><clipPath id="ad78f26379"><path d="M 39.011719 39.492188 L 95.929688 39.492188 L 95.929688 91.050781 L 39.011719 91.050781 Z M 39.011719 39.492188 " clip-rule="nonzero"/></clipPath><clipPath id="be06dffc2c"><path d="M 0 4.800781 L 82 4.800781 L 82 87 L 0 87 Z M 0 4.800781 " clip-rule="nonzero"/></clipPath></defs><path fill="#100f0d" d="M 48.574219 86.515625 L 51.605469 86.515625 L 51.605469 83.488281 L 48.574219 83.488281 L 48.574219 86.515625 " fill-opacity="1" fill-rule="nonzero"/><path fill="#100f0d" d="M 75.855469 86.515625 L 78.890625 86.515625 L 78.890625 83.488281 L 75.855469 83.488281 L 75.855469 86.515625 " fill-opacity="1" fill-rule="nonzero"/><g clip-path="url(#ad78f26379)"><path fill="#100f0d" d="M 77.371094 88.027344 C 75.703125 88.027344 74.339844 86.671875 74.339844 85.003906 C 74.339844 83.335938 75.703125 81.976562 77.371094 81.976562 C 79.042969 81.976562 80.40625 83.335938 80.40625 85.003906 C 80.40625 86.671875 79.042969 88.027344 77.371094 88.027344 Z M 46.699219 71.382812 L 42.945312 57.636719 L 85.125 54.832031 L 81.296875 71.382812 Z M 50.089844 88.027344 C 48.417969 88.027344 47.058594 86.671875 47.058594 85.003906 C 47.058594 83.335938 48.417969 81.976562 50.089844 81.976562 C 51.761719 81.976562 53.121094 83.335938 53.121094 85.003906 C 53.121094 86.671875 51.761719 88.027344 50.089844 88.027344 Z M 95.929688 42.585938 L 95.195312 39.648438 L 88.230469 41.386719 L 85.835938 51.75 L 39.046875 54.863281 L 44.386719 74.410156 L 80.597656 74.410156 L 79.457031 79.339844 C 78.804688 79.101562 78.105469 78.949219 77.371094 78.949219 C 75.140625 78.949219 73.203125 80.175781 72.152344 81.976562 L 55.3125 81.976562 C 54.257812 80.175781 52.324219 78.949219 50.089844 78.949219 C 46.746094 78.949219 44.027344 81.667969 44.027344 85.003906 C 44.027344 88.339844 46.746094 91.054688 50.089844 91.054688 C 53.433594 91.054688 56.152344 88.339844 56.152344 85.003906 L 71.308594 85.003906 C 71.308594 88.339844 74.027344 91.054688 77.371094 91.054688 C 80.714844 91.054688 83.4375 88.339844 83.4375 85.003906 C 83.4375 83.59375 82.929688 82.3125 82.121094 81.285156 L 90.769531 43.875 L 95.929688 42.585938 " fill-opacity="1" fill-rule="nonzero"/></g><path fill="#100f0d" d="M 54.636719 57.765625 L 48.574219 57.765625 L 48.574219 60.789062 L 54.636719 60.789062 L 54.636719 57.765625 " fill-opacity="1" fill-rule="nonzero"/><path fill="#100f0d" d="M 66.761719 57.765625 L 60.699219 57.765625 L 60.699219 60.789062 L 66.761719 60.789062 L 66.761719 57.765625 " fill-opacity="1" fill-rule="nonzero"/><path fill="#100f0d" d="M 72.824219 57.765625 L 72.824219 60.789062 L 78.890625 60.789062 L 78.890625 57.765625 L 72.824219 57.765625 " fill-opacity="1" fill-rule="nonzero"/><path fill="#100f0d" d="M 60.699219 62.304688 L 54.636719 62.304688 L 54.636719 65.328125 L 60.699219 65.328125 L 60.699219 62.304688 " fill-opacity="1" fill-rule="nonzero"/><path fill="#100f0d" d="M 72.824219 62.304688 L 66.761719 62.304688 L 66.761719 65.328125 L 72.824219 65.328125 L 72.824219 62.304688 " fill-opacity="1" fill-rule="nonzero"/><path fill="#100f0d" d="M 60.699219 69.871094 L 66.761719 69.871094 L 66.761719 66.84375 L 60.699219 66.84375 L 60.699219 69.871094 " fill-opacity="1" fill-rule="nonzero"/><path fill="#100f0d" d="M 72.824219 69.871094 L 78.890625 69.871094 L 78.890625 66.84375 L 72.824219 66.84375 L 72.824219 69.871094 " fill-opacity="1" fill-rule="nonzero"/><path fill="#100f0d" d="M 48.574219 69.871094 L 54.636719 69.871094 L 54.636719 66.84375 L 48.574219 66.84375 L 48.574219 69.871094 " fill-opacity="1" fill-rule="nonzero"/><g clip-path="url(#be06dffc2c)"><path fill="#100f0d" d="M 13.253906 71.390625 C 15.664062 69.921875 18.378906 68.65625 21.347656 67.632812 C 23.496094 73.667969 26.515625 78.589844 30.125 81.894531 C 23.585938 79.9375 17.789062 76.261719 13.253906 71.390625 Z M 30.125 9.421875 C 26.511719 12.730469 23.488281 17.660156 21.335938 23.703125 C 18.371094 22.679688 15.675781 21.398438 13.257812 19.921875 C 17.789062 15.054688 23.589844 11.378906 30.125 9.421875 Z M 68.734375 19.921875 C 66.316406 21.398438 63.617188 22.679688 60.652344 23.703125 C 58.503906 17.660156 55.480469 12.730469 51.867188 9.421875 C 58.402344 11.378906 64.203125 15.054688 68.734375 19.921875 Z M 64.164062 44.144531 C 64.039062 37.777344 63.125 31.828125 61.582031 26.574219 C 64.949219 25.417969 68.015625 23.953125 70.730469 22.25 C 75.539062 28.324219 78.519531 35.898438 78.847656 44.144531 Z M 42.511719 29.8125 C 48.175781 29.6875 53.660156 28.890625 58.667969 27.476562 C 60.128906 32.457031 61.007812 38.121094 61.132812 44.144531 L 42.511719 44.144531 Z M 39.480469 7.945312 L 39.480469 26.785156 C 34.128906 26.664062 28.960938 25.917969 24.257812 24.601562 C 27.613281 15.230469 33.144531 8.835938 39.480469 7.945312 Z M 42.511719 7.945312 C 48.847656 8.835938 54.378906 15.230469 57.734375 24.601562 C 53.027344 25.917969 47.863281 26.664062 42.511719 26.785156 Z M 20.859375 44.144531 C 20.984375 38.121094 21.863281 32.457031 23.324219 27.476562 C 28.332031 28.890625 33.816406 29.6875 39.480469 29.8125 L 39.480469 44.144531 Z M 3.140625 44.144531 C 3.46875 35.898438 6.453125 28.324219 11.261719 22.25 C 13.976562 23.953125 17.042969 25.417969 20.410156 26.574219 C 18.867188 31.828125 17.953125 37.777344 17.828125 44.144531 Z M 20.414062 64.761719 C 17.046875 65.921875 13.964844 67.371094 11.261719 69.066406 C 6.453125 62.992188 3.46875 55.417969 3.140625 47.171875 L 17.828125 47.171875 C 17.953125 53.546875 18.867188 59.503906 20.414062 64.761719 Z M 42.511719 86.515625 L 42.511719 77.4375 L 39.480469 77.4375 L 39.480469 83.371094 C 33.140625 82.480469 27.613281 76.078125 24.253906 66.707031 C 28.972656 65.382812 34.167969 64.617188 39.511719 64.5 L 39.445312 61.472656 C 33.8125 61.597656 28.324219 62.417969 23.320312 63.832031 C 21.863281 58.851562 20.984375 53.191406 20.859375 47.171875 L 39.480469 47.171875 L 39.480469 51.710938 L 42.511719 51.710938 L 42.511719 47.171875 L 78.890625 47.171875 L 78.890625 48.683594 L 81.917969 48.683594 L 81.917969 44.144531 L 81.882812 44.144531 C 81.078125 22.316406 63.050781 4.800781 40.996094 4.800781 C 18.429688 4.800781 0.0703125 23.128906 0.0703125 45.660156 C 0.0703125 68.1875 18.429688 86.515625 40.996094 86.515625 L 42.511719 86.515625 " fill-opacity="1" fill-rule="nonzero"/></g></svg>