<svg xmlns="http://www.w3.org/2000/svg" xmlns:xlink="http://www.w3.org/1999/xlink" width="128" zoomAndPan="magnify" viewBox="0 0 96 95.999999" height="128" preserveAspectRatio="xMidYMid meet" version="1.0"><defs><clipPath id="de9325372a"><path d="M 0 26 L 96 26 L 96 95.25 L 0 95.25 Z M 0 26 " clip-rule="nonzero"/></clipPath></defs><path fill="#000000" d="M 43.402344 67.03125 L 40.359375 67.03125 L 40.359375 69.28125 L 37.320312 69.28125 L 37.320312 66.195312 L 34.28125 66.195312 L 34.28125 76.828125 L 31.238281 76.828125 L 31.238281 79.160156 L 28.199219 79.160156 L 28.199219 77.164062 L 25.160156 77.164062 L 25.160156 66.195312 L 22.117188 66.195312 L 22.117188 63.964844 L 19.078125 63.964844 L 19.078125 62.527344 L 16.039062 62.527344 L 16.039062 60.050781 L 12.996094 60.050781 L 12.996094 66.386719 L 9.957031 66.386719 L 9.957031 72.335938 L 6.917969 72.335938 L 6.917969 77.863281 L 3.875 77.863281 L 3.875 79.160156 L 0.835938 79.160156 L 0.835938 83.71875 L 46.441406 83.71875 L 46.441406 70.050781 L 43.402344 70.050781 Z M 43.402344 67.03125 " fill-opacity="1" fill-rule="nonzero"/><path fill="#000000" d="M 92.046875 76.425781 L 89.007812 76.425781 L 89.007812 77.792969 L 85.964844 77.792969 L 85.964844 72.4375 L 82.925781 72.4375 L 82.925781 70.679688 L 79.886719 70.679688 L 79.886719 67.15625 L 76.84375 67.15625 L 76.84375 65.058594 L 73.804688 65.058594 L 73.804688 62.101562 L 70.765625 62.101562 L 70.765625 65.058594 L 67.722656 65.058594 L 67.722656 75.46875 L 64.683594 75.46875 L 64.683594 70.210938 L 61.644531 70.210938 L 61.644531 74.335938 L 58.601562 74.335938 L 58.601562 83.71875 L 95.085938 83.71875 L 95.085938 69.113281 L 92.046875 69.113281 Z M 92.046875 76.425781 " fill-opacity="1" fill-rule="nonzero"/><path fill="#000000" d="M 69.335938 24.902344 L 74.046875 20.375 L 77.613281 20.375 L 89.699219 8.238281 L 91.445312 12.386719 L 95.085938 0.128906 L 82.917969 4.066406 C 82.917969 4.066406 85.128906 4.933594 86.917969 5.640625 L 76.382812 16.21875 L 72.816406 16.21875 L 68.097656 20.746094 L 64.667969 20.746094 L 54.347656 30.566406 L 43.074219 21.292969 L 39.121094 24.339844 L 34.613281 21.292969 L 26.625 27.90625 L 17.261719 23.125 L 0.835938 35.945312 L 0.835938 41.066406 L 17.695312 27.90625 L 27.179688 32.625 L 34.804688 26.316406 L 39.3125 29.304688 L 42.992188 26.46875 L 54.355469 35.882812 L 65.898438 24.902344 Z M 69.335938 24.902344 " fill-opacity="1" fill-rule="nonzero"/><path fill="#000000" d="M 40.359375 67.03125 L 43.402344 67.03125 L 43.402344 83.71875 L 40.359375 83.71875 Z M 40.359375 67.03125 " fill-opacity="1" fill-rule="nonzero"/><path fill="#000000" d="M 34.28125 66.195312 L 37.320312 66.195312 L 37.320312 83.71875 L 34.28125 83.71875 Z M 34.28125 66.195312 " fill-opacity="1" fill-rule="nonzero"/><path fill="#000000" d="M 28.199219 79.160156 L 31.238281 79.160156 L 31.238281 83.71875 L 28.199219 83.71875 Z M 28.199219 79.160156 " fill-opacity="1" fill-rule="nonzero"/><path fill="#000000" d="M 22.117188 66.195312 L 25.160156 66.195312 L 25.160156 83.71875 L 22.117188 83.71875 Z M 22.117188 66.195312 " fill-opacity="1" fill-rule="nonzero"/><path fill="#000000" d="M 16.039062 62.527344 L 19.078125 62.527344 L 19.078125 83.71875 L 16.039062 83.71875 Z M 16.039062 62.527344 " fill-opacity="1" fill-rule="nonzero"/><path fill="#000000" d="M 9.957031 66.386719 L 12.996094 66.386719 L 12.996094 83.71875 L 9.957031 83.71875 Z M 9.957031 66.386719 " fill-opacity="1" fill-rule="nonzero"/><path fill="#000000" d="M 3.875 77.863281 L 6.917969 77.863281 L 6.917969 83.71875 L 3.875 83.71875 Z M 3.875 77.863281 " fill-opacity="1" fill-rule="nonzero"/><path fill="#000000" d="M 58.601562 74.335938 L 61.644531 74.335938 L 61.644531 83.71875 L 58.601562 83.71875 Z M 58.601562 74.335938 " fill-opacity="1" fill-rule="nonzero"/><path fill="#000000" d="M 64.683594 75.46875 L 67.722656 75.46875 L 67.722656 83.71875 L 64.683594 83.71875 Z M 64.683594 75.46875 " fill-opacity="1" fill-rule="nonzero"/><path fill="#000000" d="M 70.765625 62.101562 L 73.804688 62.101562 L 73.804688 83.71875 L 70.765625 83.71875 Z M 70.765625 62.101562 " fill-opacity="1" fill-rule="nonzero"/><path fill="#000000" d="M 76.84375 67.15625 L 79.886719 67.15625 L 79.886719 83.71875 L 76.84375 83.71875 Z M 76.84375 67.15625 " fill-opacity="1" fill-rule="nonzero"/><path fill="#000000" d="M 82.925781 72.4375 L 85.964844 72.4375 L 85.964844 83.71875 L 82.925781 83.71875 Z M 82.925781 72.4375 " fill-opacity="1" fill-rule="nonzero"/><path fill="#000000" d="M 89.007812 76.425781 L 92.046875 76.425781 L 92.046875 83.71875 L 89.007812 83.71875 Z M 89.007812 76.425781 " fill-opacity="1" fill-rule="nonzero"/><path fill="#000000" d="M 95.085938 0.128906 L 91.445312 12.386719 L 89.699219 8.238281 L 77.613281 20.375 L 74.046875 20.375 L 69.335938 24.902344 L 65.898438 24.902344 L 54.355469 35.882812 L 42.992188 26.46875 L 39.3125 29.304688 L 34.804688 26.316406 L 27.179688 32.625 L 17.695312 27.90625 L 0.835938 41.066406 L 0.835938 35.945312 L 17.261719 23.125 L 26.625 27.90625 L 34.613281 21.292969 L 39.121094 24.339844 L 43.074219 21.292969 L 54.347656 30.566406 L 64.667969 20.746094 L 68.097656 20.746094 L 72.816406 16.21875 L 76.382812 16.21875 L 86.917969 5.640625 C 85.128906 4.933594 82.917969 4.066406 82.917969 4.066406 Z M 95.085938 0.128906 " fill-opacity="1" fill-rule="nonzero"/><g clip-path="url(#de9325372a)"><path fill="#000000" d="M 52.523438 95.121094 C 52.519531 95.121094 52.519531 95.121094 52.515625 95.121094 C 52.140625 95.117188 51.820312 94.835938 51.769531 94.460938 L 46.890625 58.339844 L 45.886719 60.546875 C 45.75 60.847656 45.433594 61.023438 45.105469 60.988281 C 44.773438 60.945312 44.507812 60.699219 44.449219 60.375 L 41.484375 44.6875 L 40.269531 46.558594 C 40.109375 46.800781 39.828125 46.933594 39.539062 46.898438 C 39.253906 46.863281 39.007812 46.664062 38.914062 46.390625 L 38.273438 44.550781 L 37.265625 46.574219 C 37.125 46.851562 36.828125 47.019531 36.519531 46.992188 C 36.210938 46.964844 35.949219 46.753906 35.855469 46.457031 L 34.40625 41.722656 L 31.351562 55.789062 C 31.285156 56.089844 31.046875 56.320312 30.742188 56.375 C 30.4375 56.429688 30.132812 56.292969 29.964844 56.03125 L 28.636719 53.933594 C 28.101562 54.773438 27.222656 55.703125 25.949219 55.703125 C 23.632812 55.703125 22.808594 52.089844 21.761719 47.511719 C 20.636719 42.59375 19.238281 36.46875 15.839844 36.46875 C 10.644531 36.46875 9.253906 44.605469 7.78125 53.222656 C 6.53125 60.535156 5.238281 68.09375 1.316406 71.304688 C 0.992188 71.570312 0.515625 71.523438 0.246094 71.199219 C -0.0195312 70.875 0.0273438 70.394531 0.355469 70.128906 C 3.835938 67.277344 5.082031 60.003906 6.285156 52.964844 C 7.867188 43.699219 9.363281 34.949219 15.839844 34.949219 C 20.453125 34.949219 21.9375 41.445312 23.246094 47.175781 C 23.957031 50.296875 24.84375 54.183594 25.949219 54.183594 C 26.929688 54.183594 27.660156 52.675781 27.835938 52.148438 C 27.929688 51.867188 28.175781 51.671875 28.464844 51.636719 C 28.757812 51.597656 29.042969 51.734375 29.199219 51.984375 L 30.257812 53.65625 L 33.539062 38.558594 C 33.609375 38.21875 33.902344 37.972656 34.25 37.960938 C 34.578125 37.949219 34.90625 38.164062 35.007812 38.496094 L 36.753906 44.191406 L 37.71875 42.253906 C 37.855469 41.980469 38.144531 41.820312 38.449219 41.835938 C 38.753906 41.855469 39.019531 42.054688 39.117188 42.34375 L 39.839844 44.425781 L 41.246094 42.269531 C 41.414062 42.011719 41.722656 41.878906 42.027344 41.9375 C 42.332031 42 42.570312 42.238281 42.628906 42.542969 L 45.496094 57.734375 L 46.601562 55.3125 C 46.742188 55.003906 47.074219 54.828125 47.40625 54.875 C 47.738281 54.921875 48.003906 55.1875 48.046875 55.523438 L 52.5625 88.957031 L 57.644531 54.867188 C 57.871094 53.757812 58.65625 52.902344 59.703125 52.589844 C 60.757812 52.273438 61.855469 52.550781 62.632812 53.335938 C 63.324219 54.03125 63.960938 54.324219 64.535156 54.210938 C 65.316406 54.054688 66.109375 50.617188 66.636719 48.339844 C 67.738281 43.558594 68.988281 38.140625 72.636719 38.140625 C 75.929688 38.140625 76.863281 42.707031 77.769531 47.121094 C 78.484375 50.625 79.300781 54.589844 81.164062 54.589844 C 83.371094 54.589844 83.839844 49.019531 84.183594 44.949219 C 84.570312 40.351562 84.863281 37.722656 86.394531 37.113281 C 87.328125 36.734375 88.253906 36.902344 88.992188 37.589844 C 89.164062 37.75 89.378906 37.820312 89.585938 37.789062 C 89.71875 37.769531 89.898438 37.703125 90.015625 37.492188 C 90.90625 35.859375 91.210938 34.066406 91.503906 32.335938 C 91.941406 29.746094 92.355469 27.300781 94.757812 26.140625 C 95.136719 25.957031 95.589844 26.113281 95.773438 26.492188 C 95.957031 26.871094 95.796875 27.324219 95.417969 27.507812 C 93.722656 28.328125 93.402344 30.207031 93 32.589844 C 92.703125 34.359375 92.363281 36.363281 91.347656 38.222656 C 91.027344 38.804688 90.46875 39.191406 89.816406 39.292969 C 89.136719 39.394531 88.457031 39.179688 87.949219 38.695312 C 87.648438 38.417969 87.351562 38.363281 86.960938 38.523438 C 86.226562 38.816406 85.894531 42.734375 85.695312 45.078125 C 85.261719 50.25 84.765625 56.113281 81.164062 56.113281 C 78.058594 56.113281 77.152344 51.699219 76.277344 47.429688 C 75.53125 43.785156 74.6875 39.660156 72.632812 39.660156 C 70.195312 39.660156 69.042969 44.664062 68.117188 48.679688 C 67.253906 52.410156 66.574219 55.355469 64.832031 55.703125 C 64.074219 55.855469 62.890625 55.753906 61.550781 54.40625 C 61.179688 54.027344 60.648438 53.894531 60.136719 54.046875 C 59.621094 54.199219 59.25 54.605469 59.144531 55.132812 L 53.273438 94.46875 C 53.21875 94.84375 52.898438 95.121094 52.523438 95.121094 Z M 52.523438 95.121094 " fill-opacity="1" fill-rule="nonzero"/></g><path fill="#000000" d="M 95.085938 84.480469 L 0.835938 84.480469 C 0.417969 84.480469 0.0742188 84.140625 0.0742188 83.71875 C 0.0742188 83.300781 0.417969 82.960938 0.835938 82.960938 L 95.085938 82.960938 C 95.507812 82.960938 95.847656 83.300781 95.847656 83.71875 C 95.847656 84.140625 95.507812 84.480469 95.085938 84.480469 Z M 95.085938 84.480469 " fill-opacity="1" fill-rule="nonzero"/></svg>