<svg xmlns="http://www.w3.org/2000/svg" xmlns:xlink="http://www.w3.org/1999/xlink" width="128" zoomAndPan="magnify" viewBox="0 0 96 95.999999" height="128" preserveAspectRatio="xMidYMid meet" version="1.0"><defs><clipPath id="decea1783d"><path d="M 9.601562 0 L 77 0 L 77 87 L 9.601562 87 Z M 9.601562 0 " clip-rule="nonzero"/></clipPath><clipPath id="e141e4558a"><path d="M 36 26 L 92.851562 26 L 92.851562 96 L 36 96 Z M 36 26 " clip-rule="nonzero"/></clipPath></defs><g clip-path="url(#decea1783d)"><path fill="#000000" d="M 12.835938 3.199219 L 73.636719 3.199219 L 73.636719 22.398438 L 76.835938 22.398438 L 76.835938 1.601562 C 76.835938 1.386719 76.792969 1.183594 76.714844 0.988281 C 76.632812 0.792969 76.515625 0.617188 76.367188 0.46875 C 76.214844 0.320312 76.042969 0.203125 75.847656 0.121094 C 75.652344 0.0390625 75.445312 0 75.234375 0 L 11.234375 0 C 11.023438 0 10.820312 0.0390625 10.621094 0.121094 C 10.425781 0.203125 10.253906 0.320312 10.105469 0.46875 C 9.953125 0.617188 9.839844 0.792969 9.757812 0.988281 C 9.675781 1.183594 9.636719 1.386719 9.636719 1.601562 L 9.636719 84.800781 C 9.636719 85.011719 9.675781 85.214844 9.757812 85.414062 C 9.839844 85.609375 9.953125 85.78125 10.105469 85.929688 C 10.253906 86.082031 10.425781 86.195312 10.621094 86.277344 C 10.820312 86.359375 11.023438 86.398438 11.234375 86.398438 L 56.035156 86.398438 L 56.035156 83.199219 L 12.835938 83.199219 Z M 12.835938 3.199219 " fill-opacity="1" fill-rule="nonzero"/></g><g clip-path="url(#e141e4558a)"><path fill="#000000" d="M 88.035156 36.800781 L 82.84375 36.800781 L 81.140625 30.84375 C 81.035156 30.472656 80.894531 30.113281 80.722656 29.765625 C 80.550781 29.417969 80.347656 29.089844 80.117188 28.78125 C 79.886719 28.46875 79.628906 28.183594 79.34375 27.917969 C 79.058594 27.65625 78.753906 27.417969 78.429688 27.210938 C 78.101562 27.003906 77.757812 26.824219 77.398438 26.679688 C 77.042969 26.53125 76.671875 26.417969 76.292969 26.339844 C 75.914062 26.261719 75.53125 26.214844 75.144531 26.207031 C 74.757812 26.195312 74.371094 26.222656 73.988281 26.28125 L 50.699219 29.960938 C 50.324219 30.019531 49.960938 30.117188 49.609375 30.257812 C 49.257812 30.398438 48.929688 30.578125 48.617188 30.792969 C 48.304688 31.003906 48.023438 31.253906 47.765625 31.53125 C 47.511719 31.808594 47.289062 32.113281 47.101562 32.441406 C 46.914062 32.769531 46.765625 33.113281 46.652344 33.476562 C 46.542969 33.839844 46.476562 34.207031 46.449219 34.585938 C 46.421875 34.960938 46.4375 35.335938 46.492188 35.710938 C 46.550781 36.085938 46.648438 36.449219 46.789062 36.800781 L 43.234375 36.800781 C 42.910156 36.800781 42.617188 36.890625 42.347656 37.070312 L 37.546875 40.269531 C 37.4375 40.34375 37.339844 40.425781 37.25 40.523438 C 37.160156 40.621094 37.085938 40.730469 37.023438 40.84375 C 36.960938 40.960938 36.914062 41.082031 36.882812 41.210938 C 36.851562 41.339844 36.835938 41.46875 36.835938 41.601562 C 36.835938 41.730469 36.851562 41.863281 36.882812 41.988281 C 36.914062 42.117188 36.960938 42.238281 37.023438 42.355469 C 37.085938 42.472656 37.160156 42.578125 37.25 42.675781 C 37.339844 42.773438 37.4375 42.859375 37.546875 42.929688 L 42.347656 46.132812 C 42.617188 46.308594 42.910156 46.398438 43.234375 46.398438 L 50.570312 46.398438 L 54.460938 50.289062 C 54.523438 51.097656 54.695312 51.882812 54.976562 52.640625 C 55.257812 53.398438 55.640625 54.105469 56.121094 54.757812 C 56.601562 55.410156 57.164062 55.984375 57.804688 56.480469 C 58.445312 56.972656 59.144531 57.371094 59.898438 57.667969 L 62.433594 58.683594 L 62.433594 71.621094 L 59.402344 77.683594 C 59.292969 77.910156 59.238281 78.148438 59.238281 78.398438 L 59.234375 78.398438 L 59.234375 96 L 62.433594 96 L 62.433594 80 L 83.234375 80 L 83.234375 96 L 86.433594 96 L 86.433594 78.398438 C 86.433594 78.148438 86.378906 77.910156 86.265625 77.683594 L 83.234375 71.621094 L 83.234375 46.398438 L 88.035156 46.398438 C 88.351562 46.398438 88.664062 46.371094 88.972656 46.308594 C 89.28125 46.246094 89.582031 46.15625 89.871094 46.035156 C 90.164062 45.914062 90.441406 45.765625 90.703125 45.589844 C 90.964844 45.414062 91.207031 45.21875 91.429688 44.992188 C 91.652344 44.769531 91.851562 44.527344 92.027344 44.265625 C 92.199219 44.003906 92.347656 43.726562 92.46875 43.4375 C 92.589844 43.144531 92.679688 42.84375 92.742188 42.535156 C 92.804688 42.226562 92.835938 41.914062 92.835938 41.601562 C 92.835938 41.285156 92.804688 40.972656 92.742188 40.664062 C 92.679688 40.355469 92.589844 40.054688 92.46875 39.761719 C 92.347656 39.472656 92.199219 39.195312 92.027344 38.933594 C 91.851562 38.671875 91.652344 38.429688 91.429688 38.207031 C 91.207031 37.984375 90.964844 37.785156 90.703125 37.609375 C 90.441406 37.433594 90.164062 37.285156 89.871094 37.164062 C 89.582031 37.042969 89.28125 36.953125 88.972656 36.890625 C 88.664062 36.832031 88.351562 36.800781 88.035156 36.800781 Z M 49.636719 34.949219 C 49.632812 34.726562 49.671875 34.515625 49.746094 34.308594 C 49.824219 34.101562 49.933594 33.914062 50.078125 33.746094 C 50.21875 33.578125 50.386719 33.4375 50.582031 33.332031 C 50.773438 33.222656 50.980469 33.152344 51.199219 33.121094 L 74.488281 29.441406 C 74.875 29.382812 75.257812 29.390625 75.640625 29.472656 C 76.023438 29.550781 76.378906 29.695312 76.707031 29.90625 C 77.039062 30.117188 77.320312 30.378906 77.550781 30.691406 C 77.785156 31.003906 77.957031 31.347656 78.0625 31.726562 L 79.515625 36.800781 L 71.097656 36.800781 L 73.167969 34.730469 L 70.902344 32.46875 L 66.574219 36.800781 L 51.484375 36.800781 C 51.242188 36.800781 51.003906 36.753906 50.777344 36.660156 C 50.550781 36.566406 50.351562 36.429688 50.175781 36.257812 C 50.003906 36.082031 49.871094 35.882812 49.777344 35.65625 C 49.683594 35.429688 49.636719 35.195312 49.636719 34.949219 Z M 41.320312 41.601562 L 43.71875 40 L 48.371094 40 C 47.964844 41.050781 47.917969 42.117188 48.234375 43.199219 L 43.71875 43.199219 Z M 65.023438 73.601562 L 67.234375 73.601562 L 67.234375 76.800781 L 63.421875 76.800781 Z M 75.234375 73.601562 L 75.234375 76.800781 L 70.433594 76.800781 L 70.433594 73.601562 Z M 78.433594 76.800781 L 78.433594 73.601562 L 80.644531 73.601562 L 82.246094 76.800781 Z M 80.035156 70.398438 L 65.636719 70.398438 L 65.636719 57.601562 C 65.636719 57.273438 65.542969 56.972656 65.359375 56.703125 C 65.175781 56.433594 64.933594 56.234375 64.628906 56.113281 L 61.085938 54.695312 C 60.574219 54.496094 60.105469 54.222656 59.679688 53.878906 C 59.25 53.535156 58.882812 53.136719 58.574219 52.679688 C 58.265625 52.226562 58.03125 51.734375 57.871094 51.210938 C 57.710938 50.6875 57.632812 50.148438 57.636719 49.601562 C 57.636719 49.15625 57.480469 48.78125 57.167969 48.46875 L 51.761719 43.0625 C 51.503906 42.804688 51.339844 42.5 51.269531 42.144531 C 51.199219 41.789062 51.234375 41.441406 51.371094 41.109375 C 51.511719 40.773438 51.730469 40.503906 52.03125 40.300781 C 52.335938 40.101562 52.667969 40 53.027344 40 L 53.632812 40 C 53.917969 40 54.183594 40.0625 54.4375 40.1875 L 66.289062 46.113281 L 70.902344 50.730469 L 73.167969 48.46875 L 71.097656 46.398438 L 80.035156 46.398438 Z M 67.613281 43.199219 L 61.210938 40 L 83.234375 40 L 83.234375 43.199219 Z M 88.035156 43.199219 L 86.433594 43.199219 L 86.433594 40 L 88.035156 40 C 88.246094 40 88.453125 40.039062 88.648438 40.121094 C 88.84375 40.203125 89.015625 40.320312 89.167969 40.46875 C 89.316406 40.617188 89.433594 40.792969 89.511719 40.988281 C 89.59375 41.183594 89.636719 41.386719 89.636719 41.601562 C 89.636719 41.8125 89.59375 42.015625 89.511719 42.210938 C 89.433594 42.410156 89.316406 42.582031 89.167969 42.730469 C 89.015625 42.882812 88.84375 42.996094 88.648438 43.078125 C 88.453125 43.160156 88.246094 43.199219 88.035156 43.199219 Z M 88.035156 43.199219 " fill-opacity="1" fill-rule="nonzero"/></g><path fill="#000000" d="M 19.234375 11.199219 L 22.433594 11.199219 L 22.433594 14.398438 L 19.234375 14.398438 Z M 19.234375 11.199219 " fill-opacity="1" fill-rule="nonzero"/><path fill="#000000" d="M 25.636719 11.199219 L 36.835938 11.199219 L 36.835938 14.398438 L 25.636719 14.398438 Z M 25.636719 11.199219 " fill-opacity="1" fill-rule="nonzero"/><path fill="#000000" d="M 19.234375 20.800781 L 67.234375 20.800781 L 67.234375 24 L 19.234375 24 Z M 19.234375 20.800781 " fill-opacity="1" fill-rule="nonzero"/><path fill="#000000" d="M 19.234375 27.199219 L 44.835938 27.199219 L 44.835938 30.398438 L 19.234375 30.398438 Z M 19.234375 27.199219 " fill-opacity="1" fill-rule="nonzero"/><path fill="#000000" d="M 19.234375 33.601562 L 38.433594 33.601562 L 38.433594 36.800781 L 19.234375 36.800781 Z M 19.234375 33.601562 " fill-opacity="1" fill-rule="nonzero"/><path fill="#000000" d="M 19.234375 40 L 33.636719 40 L 33.636719 43.199219 L 19.234375 43.199219 Z M 19.234375 40 " fill-opacity="1" fill-rule="nonzero"/><path fill="#000000" d="M 19.234375 46.398438 L 38.433594 46.398438 L 38.433594 49.601562 L 19.234375 49.601562 Z M 19.234375 46.398438 " fill-opacity="1" fill-rule="nonzero"/><path fill="#000000" d="M 19.234375 52.800781 L 51.234375 52.800781 L 51.234375 56 L 19.234375 56 Z M 19.234375 52.800781 " fill-opacity="1" fill-rule="nonzero"/><path fill="#000000" d="M 19.234375 64 L 38.433594 64 L 38.433594 67.199219 L 19.234375 67.199219 Z M 19.234375 64 " fill-opacity="1" fill-rule="nonzero"/><path fill="#000000" d="M 19.234375 70.398438 L 51.234375 70.398438 L 51.234375 73.601562 L 19.234375 73.601562 Z M 19.234375 70.398438 " fill-opacity="1" fill-rule="nonzero"/></svg>