<svg xmlns="http://www.w3.org/2000/svg" xmlns:xlink="http://www.w3.org/1999/xlink" width="128" zoomAndPan="magnify" viewBox="0 0 96 95.999999" height="128" preserveAspectRatio="xMidYMid meet" version="1.0"><defs><clipPath id="38abd3444b"><path d="M 0 0.960938 L 96 0.960938 L 96 94.710938 L 0 94.710938 Z M 0 0.960938 " clip-rule="nonzero"/></clipPath></defs><g clip-path="url(#38abd3444b)"><path fill="#000000" d="M 95.980469 7.226562 C 95.980469 3.777344 93.164062 0.96875 89.703125 0.96875 L 8.074219 0.96875 C 3.632812 0.96875 0.0195312 4.570312 0.0195312 8.996094 L 0.0195312 62.332031 C 0.0195312 66.757812 3.632812 70.359375 8.074219 70.359375 L 34.558594 70.359375 C 34.503906 75.546875 33.242188 80.792969 31.832031 83.890625 L 26.207031 83.890625 C 23.210938 83.890625 20.773438 86.316406 20.773438 89.304688 C 20.773438 92.289062 23.210938 94.71875 26.207031 94.71875 L 69.796875 94.71875 C 72.792969 94.71875 75.230469 92.289062 75.230469 89.304688 C 75.230469 86.316406 72.792969 83.890625 69.796875 83.890625 L 64.15625 83.890625 C 62.679688 80.738281 61.335938 75.472656 61.234375 70.359375 L 84.234375 70.359375 L 89.0625 75.171875 C 89.621094 75.726562 90.363281 76.03125 91.152344 76.03125 C 91.941406 76.03125 92.683594 75.726562 93.242188 75.171875 L 95.117188 73.300781 C 95.675781 72.746094 95.980469 72.007812 95.980469 71.21875 C 95.980469 70.429688 95.675781 69.691406 95.117188 69.136719 L 93.796875 67.820312 C 95.183594 66.347656 95.980469 64.386719 95.980469 62.332031 Z M 8.074219 3.679688 L 89.703125 3.679688 C 91.664062 3.679688 93.261719 5.269531 93.261719 7.226562 L 93.261719 54.378906 L 84.015625 54.378906 C 84.640625 52.074219 84.648438 49.640625 84.011719 47.273438 C 82.042969 39.953125 74.46875 35.59375 67.125 37.558594 C 63.566406 38.507812 60.589844 40.78125 58.75 43.960938 C 56.910156 47.136719 56.417969 50.835938 57.371094 54.378906 L 2.738281 54.378906 L 2.738281 8.996094 C 2.738281 6.0625 5.132812 3.679688 8.074219 3.679688 Z M 81.644531 61.210938 L 81.109375 61.742188 L 80.175781 60.8125 C 80.359375 60.640625 80.535156 60.460938 80.707031 60.28125 Z M 67.828125 40.175781 C 68.785156 39.917969 69.742188 39.796875 70.691406 39.796875 C 75.578125 39.796875 80.0625 43.050781 81.386719 47.976562 C 82.152344 50.820312 81.757812 53.792969 80.28125 56.347656 C 78.800781 58.898438 76.414062 60.722656 73.558594 61.484375 C 72.601562 61.742188 71.640625 61.863281 70.695312 61.863281 C 65.808594 61.863281 61.324219 58.609375 60 53.683594 C 59.234375 50.839844 59.625 47.867188 61.105469 45.3125 C 62.582031 42.761719 64.972656 40.9375 67.828125 40.175781 Z M 72.511719 89.304688 C 72.511719 90.796875 71.292969 92.011719 69.796875 92.011719 L 26.207031 92.011719 C 24.710938 92.011719 23.492188 90.796875 23.492188 89.304688 C 23.492188 87.8125 24.710938 86.597656 26.207031 86.597656 L 69.796875 86.597656 C 71.292969 86.597656 72.511719 87.8125 72.511719 89.304688 Z M 61.1875 83.890625 L 34.785156 83.890625 C 36.277344 80.113281 37.230469 74.988281 37.277344 70.359375 L 58.515625 70.359375 C 58.601562 74.933594 59.625 80.058594 61.1875 83.890625 Z M 8.074219 67.648438 C 5.132812 67.648438 2.738281 65.261719 2.738281 62.332031 L 2.738281 57.089844 L 58.414062 57.089844 C 60.769531 61.683594 65.554688 64.574219 70.695312 64.574219 C 71.875 64.574219 73.070312 64.421875 74.261719 64.105469 C 75.601562 63.746094 76.863281 63.199219 78.007812 62.484375 L 79.605469 64.078125 C 79.480469 64.964844 79.753906 65.894531 80.4375 66.574219 L 81.515625 67.648438 Z M 93.195312 71.382812 L 91.316406 73.253906 C 91.261719 73.308594 91.195312 73.320312 91.152344 73.320312 C 91.105469 73.320312 91.042969 73.308594 90.984375 73.253906 L 82.359375 64.660156 C 82.273438 64.570312 82.273438 64.417969 82.359375 64.328125 L 84.238281 62.457031 C 84.292969 62.402344 84.359375 62.390625 84.402344 62.390625 C 84.449219 62.390625 84.515625 62.402344 84.570312 62.457031 L 93.195312 71.054688 C 93.25 71.109375 93.261719 71.175781 93.261719 71.21875 C 93.261719 71.265625 93.25 71.328125 93.195312 71.382812 Z M 86.492188 60.542969 C 85.933594 59.988281 85.195312 59.679688 84.402344 59.679688 C 84.261719 59.679688 84.125 59.695312 83.984375 59.714844 L 82.382812 58.113281 C 82.46875 57.976562 82.554688 57.839844 82.632812 57.703125 C 82.75 57.5 82.863281 57.296875 82.96875 57.089844 L 93.261719 57.089844 L 93.261719 62.332031 C 93.261719 63.664062 92.753906 64.933594 91.875 65.902344 Z M 53.039062 62.367188 C 53.039062 63.117188 52.429688 63.722656 51.679688 63.722656 L 44.320312 63.722656 C 43.570312 63.722656 42.960938 63.117188 42.960938 62.367188 C 42.960938 61.621094 43.570312 61.015625 44.320312 61.015625 L 51.679688 61.015625 C 52.429688 61.015625 53.039062 61.621094 53.039062 62.367188 Z M 65.746094 20.714844 L 69.5 19.710938 C 70.222656 19.519531 70.96875 19.945312 71.164062 20.667969 C 71.359375 21.390625 70.925781 22.136719 70.203125 22.328125 L 66.449219 23.332031 C 66.332031 23.363281 66.214844 23.378906 66.097656 23.378906 C 65.496094 23.378906 64.949219 22.976562 64.785156 22.371094 C 64.589844 21.648438 65.019531 20.90625 65.746094 20.714844 Z M 61.128906 17.976562 C 60.597656 17.449219 60.597656 16.589844 61.128906 16.058594 L 64.027344 13.171875 C 64.558594 12.644531 65.417969 12.644531 65.949219 13.171875 C 66.480469 13.703125 66.480469 14.558594 65.949219 15.089844 L 63.050781 17.976562 C 62.785156 18.242188 62.4375 18.375 62.089844 18.375 C 61.742188 18.375 61.394531 18.242188 61.128906 17.976562 Z M 70.410156 29.761719 C 70.246094 30.367188 69.699219 30.765625 69.097656 30.765625 C 68.980469 30.765625 68.863281 30.75 68.746094 30.71875 L 64.785156 29.660156 C 64.0625 29.46875 63.628906 28.722656 63.824219 28 C 64.019531 27.277344 64.765625 26.847656 65.492188 27.042969 L 69.449219 28.101562 C 70.171875 28.292969 70.605469 29.035156 70.410156 29.761719 Z M 28.378906 37.320312 C 29.488281 37.960938 30.71875 38.285156 31.960938 38.285156 C 32.523438 38.285156 33.089844 38.214844 33.652344 38.078125 L 37.570312 47.851562 C 37.828125 48.5 38.351562 49.011719 39.007812 49.257812 C 39.292969 49.363281 39.59375 49.414062 39.890625 49.414062 C 40.289062 49.414062 40.683594 49.320312 41.042969 49.136719 L 42.703125 48.285156 C 43.859375 47.695312 44.367188 46.335938 43.886719 45.128906 L 40.234375 35.9375 C 45.554688 35.261719 50.566406 35.519531 54.574219 36.6875 C 55.097656 38.429688 56.710938 39.578125 58.46875 39.578125 C 58.816406 39.578125 59.167969 39.535156 59.519531 39.441406 C 60.566406 39.160156 61.441406 38.488281 61.988281 37.550781 C 62.53125 36.609375 62.675781 35.519531 62.398438 34.472656 L 60.671875 28.058594 C 62.671875 27.1875 63.792969 24.957031 63.210938 22.792969 C 62.628906 20.628906 60.539062 19.257812 58.371094 19.5 L 56.644531 13.082031 C 56.0625 10.921875 53.828125 9.636719 51.660156 10.214844 C 50.613281 10.496094 49.738281 11.167969 49.195312 12.105469 C 48.671875 13.011719 48.519531 14.054688 48.757812 15.0625 C 45.789062 18.160156 41.410156 20.957031 36.265625 23.042969 C 36.25 23.035156 36.234375 23.023438 36.21875 23.011719 C 35.90625 22.832031 35.535156 22.785156 35.1875 22.878906 L 30.105469 24.234375 C 28.261719 24.726562 26.714844 25.910156 25.757812 27.566406 C 24.796875 29.222656 24.539062 31.148438 25.035156 32.988281 C 25.527344 34.824219 26.714844 36.363281 28.378906 37.320312 Z M 40.003906 46.621094 L 36.296875 37.378906 L 37.726562 36.996094 L 41.292969 45.960938 Z M 60.585938 23.496094 C 60.777344 24.207031 60.5 24.9375 59.945312 25.359375 L 59.09375 22.195312 C 59.789062 22.285156 60.390625 22.78125 60.585938 23.496094 Z M 51.550781 13.460938 C 51.730469 13.148438 52.019531 12.925781 52.367188 12.832031 C 52.480469 12.800781 52.597656 12.785156 52.714844 12.785156 C 53.308594 12.785156 53.855469 13.183594 54.019531 13.785156 L 59.769531 35.175781 C 59.863281 35.519531 59.8125 35.882812 59.632812 36.195312 C 59.449219 36.507812 59.160156 36.730469 58.816406 36.824219 C 58.09375 37.015625 57.355469 36.585938 57.164062 35.871094 L 51.410156 14.480469 C 51.320312 14.136719 51.367188 13.773438 51.550781 13.460938 Z M 49.5625 18.078125 L 53.757812 33.683594 C 49.570312 32.734375 44.597656 32.601562 39.398438 33.3125 L 37.3125 25.546875 C 42.167969 23.574219 46.414062 20.980469 49.5625 18.078125 Z M 28.109375 28.921875 C 28.707031 27.890625 29.664062 27.15625 30.808594 26.851562 L 34.574219 25.847656 L 36.878906 34.417969 L 33.113281 35.421875 C 31.972656 35.726562 30.773438 35.566406 29.738281 34.972656 C 28.703125 34.378906 27.964844 33.425781 27.660156 32.285156 C 27.355469 31.148438 27.515625 29.953125 28.109375 28.921875 Z M 28.109375 28.921875 " fill-opacity="1" fill-rule="nonzero"/></g></svg>