<svg xmlns="http://www.w3.org/2000/svg" xmlns:xlink="http://www.w3.org/1999/xlink" width="128" zoomAndPan="magnify" viewBox="0 0 96 95.999999" height="128" preserveAspectRatio="xMidYMid meet" version="1.0"><path fill="#000000" d="M 95.632812 56.5625 L 90.101562 53.183594 C 90.410156 50.3125 90.410156 47.390625 90.101562 44.472656 L 95.632812 41.089844 C 96.246094 40.730469 96.554688 39.964844 96.402344 39.246094 C 95.683594 35.558594 94.507812 31.917969 92.917969 28.488281 C 92.613281 27.820312 91.894531 27.410156 91.230469 27.460938 L 84.777344 27.972656 C 83.34375 25.464844 81.601562 23.105469 79.65625 20.953125 L 82.113281 14.960938 C 82.371094 14.292969 82.214844 13.527344 81.703125 13.011719 C 78.9375 10.453125 75.867188 8.25 72.589844 6.351562 C 71.972656 5.996094 71.15625 6.097656 70.589844 6.558594 L 65.675781 10.757812 C 63.011719 9.582031 60.246094 8.660156 57.429688 8.09375 L 55.894531 1.792969 C 55.738281 1.074219 55.125 0.5625 54.410156 0.460938 C 50.671875 0 46.878906 0 43.140625 0.460938 C 42.425781 0.5625 41.8125 1.074219 41.65625 1.792969 L 40.121094 8.09375 C 37.253906 8.710938 34.488281 9.582031 31.824219 10.757812 L 26.910156 6.558594 C 26.34375 6.097656 25.578125 5.996094 24.910156 6.351562 C 21.632812 8.199219 18.5625 10.453125 15.796875 13.011719 C 15.285156 13.527344 15.078125 14.292969 15.386719 14.960938 L 17.84375 20.953125 C 15.898438 23.105469 14.207031 25.464844 12.722656 27.972656 L 6.269531 27.460938 C 5.554688 27.410156 4.835938 27.820312 4.582031 28.488281 C 2.992188 31.917969 1.816406 35.558594 1.097656 39.246094 C 0.945312 39.964844 1.253906 40.679688 1.867188 41.089844 L 7.398438 44.472656 C 7.089844 47.339844 7.089844 50.261719 7.398438 53.183594 L 1.867188 56.5625 C 1.253906 56.921875 0.945312 57.691406 1.097656 58.40625 C 1.816406 62.097656 2.992188 65.734375 4.582031 69.167969 C 4.886719 69.832031 5.554688 70.242188 6.269531 70.191406 L 12.722656 69.679688 C 14.15625 72.191406 15.898438 74.546875 17.84375 76.699219 L 15.335938 82.691406 C 15.078125 83.359375 15.234375 84.128906 15.746094 84.640625 C 18.511719 87.203125 21.582031 89.40625 24.859375 91.300781 C 25.476562 91.660156 26.292969 91.558594 26.859375 91.09375 L 31.773438 86.894531 C 34.4375 88.074219 37.203125 88.996094 40.070312 89.558594 L 41.605469 95.859375 C 41.761719 96.578125 42.375 97.089844 43.089844 97.191406 C 44.984375 97.398438 46.828125 97.5 48.722656 97.5 C 50.621094 97.5 52.515625 97.398438 54.359375 97.191406 C 55.074219 97.089844 55.6875 96.578125 55.84375 95.859375 L 57.378906 89.558594 C 60.605469 88.890625 63.730469 87.816406 66.699219 86.382812 C 67.570312 85.972656 67.929688 84.949219 67.519531 84.078125 C 67.109375 83.207031 66.085938 82.847656 65.214844 83.257812 C 62.191406 84.691406 58.964844 85.765625 55.6875 86.382812 C 55.023438 86.484375 54.460938 86.996094 54.304688 87.664062 L 52.820312 93.863281 C 50.160156 94.117188 47.445312 94.117188 44.730469 93.863281 L 43.246094 87.664062 C 43.089844 86.996094 42.527344 86.484375 41.863281 86.382812 C 38.535156 85.765625 35.359375 84.742188 32.335938 83.257812 C 31.722656 82.949219 31.003906 83.050781 30.441406 83.511719 L 25.578125 87.664062 C 23.273438 86.28125 21.070312 84.691406 19.023438 82.898438 L 21.429688 77.007812 C 21.683594 76.390625 21.53125 75.621094 21.070312 75.160156 C 18.765625 72.703125 16.769531 69.988281 15.183594 67.015625 C 14.875 66.402344 14.207031 66.042969 13.542969 66.09375 L 7.191406 66.605469 C 6.117188 64.144531 5.296875 61.53125 4.683594 58.921875 L 10.113281 55.589844 C 10.675781 55.230469 11.035156 54.566406 10.929688 53.898438 C 10.46875 50.570312 10.46875 47.1875 10.929688 43.855469 C 11.035156 43.191406 10.726562 42.523438 10.113281 42.167969 L 4.683594 38.785156 C 5.296875 36.171875 6.117188 33.558594 7.191406 31.097656 L 13.542969 31.613281 C 14.207031 31.664062 14.875 31.304688 15.183594 30.691406 C 16.769531 27.71875 18.765625 25.003906 21.070312 22.542969 C 21.53125 22.03125 21.683594 21.3125 21.429688 20.699219 L 19.023438 14.808594 C 21.070312 13.011719 23.222656 11.425781 25.578125 10.042969 L 30.441406 14.191406 C 30.953125 14.652344 31.722656 14.753906 32.335938 14.449219 C 35.359375 13.011719 38.585938 11.9375 41.863281 11.324219 C 42.527344 11.21875 43.089844 10.707031 43.246094 10.042969 L 44.730469 3.84375 C 47.394531 3.585938 50.105469 3.585938 52.820312 3.84375 L 54.304688 10.042969 C 54.460938 10.707031 55.023438 11.21875 55.6875 11.324219 C 59.019531 11.9375 62.191406 12.960938 65.214844 14.449219 C 65.828125 14.753906 66.546875 14.652344 67.109375 14.191406 L 71.972656 10.042969 C 74.277344 11.425781 76.480469 13.011719 78.527344 14.808594 L 76.019531 20.648438 C 75.761719 21.261719 75.917969 22.03125 76.378906 22.492188 C 78.683594 24.953125 80.679688 27.667969 82.265625 30.636719 C 82.574219 31.253906 83.238281 31.613281 83.90625 31.5625 L 90.257812 31.046875 C 91.332031 33.507812 92.152344 36.121094 92.765625 38.734375 L 87.335938 42.0625 C 86.773438 42.421875 86.414062 43.089844 86.515625 43.753906 C 86.976562 47.085938 86.976562 50.464844 86.515625 53.796875 C 86.414062 54.460938 86.722656 55.128906 87.335938 55.488281 L 92.765625 58.816406 C 92.152344 61.429688 91.332031 64.042969 90.257812 66.503906 L 83.90625 65.992188 C 83.238281 65.9375 82.574219 66.296875 82.265625 66.914062 C 81.34375 68.550781 80.320312 70.191406 79.195312 71.675781 C 78.632812 72.445312 78.785156 73.523438 79.554688 74.136719 C 80.320312 74.699219 81.398438 74.546875 82.011719 73.777344 C 83.035156 72.445312 83.957031 71.011719 84.777344 69.578125 L 91.230469 70.089844 C 91.945312 70.140625 92.664062 69.730469 92.917969 69.066406 C 94.507812 65.632812 95.683594 62.046875 96.402344 58.304688 C 96.554688 57.691406 96.246094 56.972656 95.632812 56.5625 Z M 95.632812 56.5625 " fill-opacity="1" fill-rule="nonzero"/><path fill="#000000" d="M 38.175781 43.601562 C 39.148438 43.601562 39.917969 42.832031 39.917969 41.859375 C 39.917969 40.886719 39.148438 40.117188 38.175781 40.117188 L 31.210938 40.117188 C 30.238281 40.117188 29.46875 40.886719 29.46875 41.859375 L 29.46875 48.828125 C 29.46875 49.800781 30.238281 50.570312 31.210938 50.570312 L 36.433594 50.570312 L 36.433594 54.054688 L 31.210938 54.054688 C 30.238281 54.054688 29.46875 54.820312 29.46875 55.792969 C 29.46875 56.769531 30.238281 57.535156 31.210938 57.535156 L 38.175781 57.535156 C 39.148438 57.535156 39.917969 56.769531 39.917969 55.792969 L 39.917969 48.828125 C 39.917969 47.851562 39.148438 47.085938 38.175781 47.085938 L 32.953125 47.085938 L 32.953125 43.601562 Z M 38.175781 43.601562 " fill-opacity="1" fill-rule="nonzero"/><path fill="#000000" d="M 52.105469 43.601562 C 53.078125 43.601562 53.84375 42.832031 53.84375 41.859375 C 53.84375 40.886719 53.078125 40.117188 52.105469 40.117188 L 45.140625 40.117188 C 44.167969 40.117188 43.398438 40.886719 43.398438 41.859375 L 43.398438 55.742188 C 43.398438 56.71875 44.167969 57.484375 45.140625 57.484375 L 52.105469 57.484375 C 53.078125 57.484375 53.84375 56.71875 53.84375 55.742188 C 53.84375 54.769531 53.078125 54 52.105469 54 L 46.878906 54 L 46.878906 50.519531 L 52.105469 50.519531 C 53.078125 50.519531 53.84375 49.75 53.84375 48.777344 C 53.84375 47.800781 53.078125 47.035156 52.105469 47.035156 L 46.878906 47.035156 L 46.878906 43.550781 L 52.105469 43.550781 Z M 52.105469 43.601562 " fill-opacity="1" fill-rule="nonzero"/><path fill="#000000" d="M 67.722656 55.792969 L 67.722656 41.859375 C 67.722656 40.886719 66.957031 40.117188 65.980469 40.117188 L 59.019531 40.117188 C 58.042969 40.117188 57.277344 40.886719 57.277344 41.859375 L 57.277344 55.742188 C 57.277344 56.71875 58.042969 57.484375 59.019531 57.484375 L 65.980469 57.484375 C 66.957031 57.535156 67.722656 56.71875 67.722656 55.792969 Z M 64.242188 54.054688 L 60.757812 54.054688 L 60.757812 43.601562 L 64.242188 43.601562 Z M 64.242188 54.054688 " fill-opacity="1" fill-rule="nonzero"/><path fill="#000000" d="M 82.214844 77.824219 C 80.988281 76.597656 79.296875 75.980469 77.605469 76.03125 L 70.027344 68.449219 C 74.433594 63.429688 77.144531 56.820312 77.144531 49.648438 C 77.144531 33.867188 64.292969 21.058594 48.570312 21.058594 C 32.847656 21.058594 19.945312 33.867188 19.945312 49.648438 C 19.945312 65.425781 32.796875 78.234375 48.519531 78.234375 C 53.949219 78.234375 58.964844 76.699219 63.320312 74.085938 L 71.359375 82.128906 C 71.359375 82.179688 71.359375 82.230469 71.359375 82.335938 C 71.359375 84.023438 72.023438 85.664062 73.203125 86.84375 L 79.707031 93.351562 C 80.882812 94.527344 82.523438 95.195312 84.214844 95.195312 C 85.902344 95.195312 87.492188 94.527344 88.71875 93.351562 C 89.898438 92.171875 90.5625 90.53125 90.5625 88.839844 C 90.5625 87.152344 89.898438 85.5625 88.71875 84.332031 Z M 23.425781 49.648438 C 23.425781 35.761719 34.691406 24.492188 48.570312 24.492188 C 62.449219 24.492188 73.714844 35.761719 73.714844 49.648438 C 73.714844 63.53125 62.449219 74.804688 48.570312 74.804688 C 34.691406 74.804688 23.425781 63.480469 23.425781 49.648438 Z M 66.699219 72.496094 L 67.929688 71.269531 L 73.917969 77.261719 C 73.664062 77.414062 73.457031 77.621094 73.253906 77.824219 C 73.050781 78.03125 72.894531 78.285156 72.691406 78.492188 Z M 86.261719 90.839844 C 85.1875 91.914062 83.238281 91.914062 82.164062 90.839844 L 75.660156 84.332031 C 75.097656 83.769531 74.789062 83.050781 74.789062 82.285156 C 74.789062 81.515625 75.097656 80.796875 75.660156 80.234375 C 76.171875 79.722656 76.941406 79.363281 77.710938 79.363281 C 78.476562 79.363281 79.195312 79.671875 79.757812 80.234375 L 86.261719 86.742188 C 86.824219 87.304688 87.132812 88.023438 87.132812 88.789062 C 87.132812 89.558594 86.824219 90.328125 86.261719 90.839844 Z M 86.261719 90.839844 " fill-opacity="1" fill-rule="nonzero"/></svg>