<svg xmlns="http://www.w3.org/2000/svg" xmlns:xlink="http://www.w3.org/1999/xlink" width="128" zoomAndPan="magnify" viewBox="0 0 96 95.999999" height="128" preserveAspectRatio="xMidYMid meet" version="1.0"><defs><clipPath id="697fc24d06"><path d="M 4.820312 11.660156 L 51.605469 11.660156 L 51.605469 96 L 4.820312 96 Z M 4.820312 11.660156 " clip-rule="nonzero"/></clipPath><clipPath id="19c5c9c83e"><path d="M 63.566406 20.460938 L 91.03125 20.460938 L 91.03125 44.175781 L 63.566406 44.175781 Z M 63.566406 20.460938 " clip-rule="nonzero"/></clipPath></defs><path fill="#000000" d="M 22.0625 19.132812 C 22.0625 18.546875 21.585938 18.070312 21.003906 18.070312 C 20.421875 18.070312 19.949219 18.546875 19.949219 19.132812 C 19.949219 19.714844 20.421875 20.191406 21.003906 20.191406 C 21.585938 20.191406 22.0625 19.714844 22.0625 19.132812 " fill-opacity="1" fill-rule="nonzero"/><g clip-path="url(#697fc24d06)"><path fill="#000000" d="M 50.738281 76.960938 C 50.28125 76.960938 49.90625 77.335938 49.90625 77.796875 L 49.90625 89.730469 C 49.90625 92.265625 47.851562 94.328125 45.328125 94.328125 L 11.0625 94.328125 C 8.539062 94.328125 6.484375 92.265625 6.484375 89.730469 L 6.484375 17.9375 C 6.484375 15.402344 8.539062 13.339844 11.0625 13.339844 L 45.328125 13.339844 C 47.851562 13.339844 49.90625 15.402344 49.90625 17.9375 L 49.90625 24.84375 C 49.90625 25.304688 50.28125 25.679688 50.738281 25.679688 C 51.199219 25.679688 51.570312 25.304688 51.570312 24.84375 L 51.570312 17.9375 C 51.570312 14.480469 48.769531 11.667969 45.328125 11.667969 L 11.0625 11.667969 C 7.621094 11.667969 4.820312 14.480469 4.820312 17.9375 L 4.820312 89.730469 C 4.820312 93.1875 7.621094 96 11.0625 96 L 45.328125 96 C 48.769531 96 51.570312 93.1875 51.570312 89.730469 L 51.570312 77.796875 C 51.570312 77.335938 51.199219 76.960938 50.738281 76.960938 " fill-opacity="1" fill-rule="nonzero"/></g><path fill="#000000" d="M 10.933594 25.570312 C 10.933594 26.042969 11.316406 26.425781 11.789062 26.425781 L 44.605469 26.425781 C 45.074219 26.425781 45.457031 26.042969 45.457031 25.570312 C 45.457031 25.097656 45.074219 24.714844 44.605469 24.714844 L 11.789062 24.714844 C 11.316406 24.714844 10.933594 25.097656 10.933594 25.570312 " fill-opacity="1" fill-rule="nonzero"/><path fill="#000000" d="M 45.46875 81.707031 C 45.46875 81.234375 45.085938 80.847656 44.617188 80.847656 L 11.800781 80.847656 C 11.328125 80.847656 10.945312 81.234375 10.945312 81.707031 C 10.945312 82.179688 11.328125 82.5625 11.800781 82.5625 L 44.617188 82.5625 C 45.085938 82.5625 45.46875 82.179688 45.46875 81.707031 " fill-opacity="1" fill-rule="nonzero"/><path fill="#000000" d="M 36.179688 19.988281 C 36.648438 19.988281 37.03125 19.605469 37.03125 19.132812 C 37.03125 18.660156 36.648438 18.273438 36.179688 18.273438 L 26.191406 18.273438 C 25.722656 18.273438 25.339844 18.660156 25.339844 19.132812 C 25.339844 19.605469 25.722656 19.988281 26.191406 19.988281 L 36.179688 19.988281 " fill-opacity="1" fill-rule="nonzero"/><path fill="#000000" d="M 34.335938 57.617188 C 34.039062 57.617188 33.765625 57.777344 33.617188 58.035156 L 30.824219 62.890625 C 30.820312 62.898438 30.816406 62.90625 30.800781 62.90625 C 30.785156 62.90625 30.78125 62.898438 30.777344 62.890625 L 27.984375 58.035156 C 27.835938 57.777344 27.5625 57.617188 27.265625 57.617188 L 24.5 57.617188 C 22.472656 57.617188 20.820312 55.960938 20.820312 53.921875 L 20.820312 41.628906 C 20.820312 39.589844 22.472656 37.933594 24.5 37.933594 L 53.339844 37.972656 C 55.367188 37.972656 57.019531 39.632812 57.019531 41.671875 L 57.019531 53.960938 C 57.019531 56 55.367188 57.660156 53.339844 57.660156 Z M 58.679688 53.960938 L 58.679688 41.671875 C 58.679688 38.714844 56.285156 36.308594 53.339844 36.304688 L 24.5 36.265625 C 21.558594 36.265625 19.160156 38.671875 19.160156 41.628906 L 19.160156 53.921875 C 19.160156 56.878906 21.558594 59.285156 24.5 59.285156 L 26.789062 59.285156 L 29.339844 63.722656 C 29.644531 64.253906 30.191406 64.570312 30.800781 64.570312 C 31.410156 64.570312 31.957031 64.253906 32.261719 63.722656 L 34.8125 59.285156 L 53.339844 59.324219 C 56.285156 59.324219 58.679688 56.917969 58.679688 53.960938 " fill-opacity="1" fill-rule="nonzero"/><path fill="#000000" d="M 25.246094 43.554688 L 36.402344 43.554688 C 36.859375 43.554688 37.230469 43.183594 37.230469 42.722656 C 37.230469 42.261719 36.859375 41.890625 36.402344 41.890625 L 25.246094 41.890625 C 24.789062 41.890625 24.417969 42.261719 24.417969 42.722656 C 24.417969 43.183594 24.789062 43.554688 25.246094 43.554688 " fill-opacity="1" fill-rule="nonzero"/><path fill="#000000" d="M 25.246094 48.554688 L 31.167969 48.554688 C 31.625 48.554688 31.996094 48.183594 31.996094 47.722656 C 31.996094 47.261719 31.625 46.890625 31.167969 46.890625 L 25.246094 46.890625 C 24.789062 46.890625 24.417969 47.261719 24.417969 47.722656 C 24.417969 48.183594 24.789062 48.554688 25.246094 48.554688 " fill-opacity="1" fill-rule="nonzero"/><path fill="#000000" d="M 47.902344 51.925781 L 25.246094 51.886719 C 24.789062 51.886719 24.417969 52.257812 24.417969 52.71875 C 24.417969 53.179688 24.785156 53.550781 25.246094 53.554688 L 47.898438 53.59375 C 47.898438 53.59375 47.898438 53.59375 47.902344 53.59375 C 48.359375 53.59375 48.730469 53.222656 48.730469 52.761719 C 48.730469 52.300781 48.359375 51.929688 47.902344 51.925781 " fill-opacity="1" fill-rule="nonzero"/><g clip-path="url(#19c5c9c83e)"><path fill="#000000" d="M 89.371094 35.207031 C 89.371094 36.8125 88.070312 38.117188 86.472656 38.117188 L 84.1875 38.117188 C 83.890625 38.117188 83.617188 38.277344 83.46875 38.535156 L 81.265625 42.367188 L 79.0625 38.535156 C 78.914062 38.277344 78.640625 38.117188 78.34375 38.117188 L 68.144531 38.117188 C 66.542969 38.117188 65.242188 36.8125 65.242188 35.207031 L 65.242188 25.046875 C 65.242188 23.441406 66.542969 22.132812 68.144531 22.132812 L 86.472656 22.132812 C 88.070312 22.132812 89.371094 23.441406 89.371094 25.046875 Z M 86.472656 20.46875 L 68.144531 20.46875 C 65.628906 20.46875 63.585938 22.523438 63.585938 25.046875 L 63.585938 35.207031 C 63.585938 37.730469 65.628906 39.785156 68.144531 39.785156 L 77.867188 39.785156 L 79.933594 43.382812 C 80.210938 43.863281 80.710938 44.152344 81.265625 44.152344 C 81.820312 44.152344 82.320312 43.863281 82.597656 43.382812 L 84.664062 39.785156 L 86.472656 39.785156 C 88.984375 39.785156 91.03125 37.730469 91.03125 35.207031 L 91.03125 25.046875 C 91.03125 22.523438 88.984375 20.46875 86.472656 20.46875 " fill-opacity="1" fill-rule="nonzero"/></g><path fill="#000000" d="M 72.460938 29.179688 C 72.003906 29.179688 71.632812 29.554688 71.632812 30.011719 C 71.632812 30.328125 71.378906 30.582031 71.070312 30.582031 C 70.757812 30.582031 70.503906 30.328125 70.503906 30.011719 C 70.503906 29.699219 70.757812 29.445312 71.070312 29.445312 C 71.527344 29.445312 71.898438 29.074219 71.898438 28.613281 C 71.898438 28.152344 71.527344 27.78125 71.070312 27.78125 C 69.84375 27.78125 68.847656 28.78125 68.847656 30.011719 C 68.847656 31.246094 69.84375 32.246094 71.070312 32.246094 C 72.296875 32.246094 73.292969 31.246094 73.292969 30.011719 C 73.292969 29.554688 72.921875 29.179688 72.460938 29.179688 " fill-opacity="1" fill-rule="nonzero"/><path fill="#000000" d="M 78.703125 29.179688 C 78.242188 29.179688 77.871094 29.554688 77.871094 30.015625 C 77.871094 30.328125 77.621094 30.582031 77.308594 30.582031 C 76.996094 30.582031 76.742188 30.328125 76.742188 30.015625 C 76.742188 29.703125 76.996094 29.445312 77.308594 29.445312 C 77.765625 29.445312 78.136719 29.074219 78.136719 28.613281 C 78.136719 28.152344 77.765625 27.78125 77.308594 27.78125 C 76.082031 27.78125 75.085938 28.78125 75.085938 30.015625 C 75.085938 31.246094 76.082031 32.246094 77.308594 32.246094 C 78.535156 32.246094 79.53125 31.246094 79.53125 30.015625 C 79.53125 29.554688 79.160156 29.179688 78.703125 29.179688 " fill-opacity="1" fill-rule="nonzero"/><path fill="#000000" d="M 84.941406 29.179688 C 84.484375 29.179688 84.113281 29.554688 84.113281 30.011719 C 84.113281 30.328125 83.859375 30.582031 83.546875 30.582031 C 83.234375 30.582031 82.984375 30.328125 82.984375 30.011719 C 82.984375 29.699219 83.234375 29.445312 83.546875 29.445312 C 84.003906 29.445312 84.375 29.074219 84.375 28.613281 C 84.375 28.152344 84.003906 27.78125 83.546875 27.78125 C 82.320312 27.78125 81.324219 28.78125 81.324219 30.011719 C 81.324219 31.246094 82.320312 32.246094 83.546875 32.246094 C 84.773438 32.246094 85.769531 31.246094 85.769531 30.011719 C 85.769531 29.554688 85.398438 29.179688 84.941406 29.179688 " fill-opacity="1" fill-rule="nonzero"/><path fill="#000000" d="M 81.070312 51.367188 L 64.476562 51.367188 C 64.019531 51.367188 63.648438 51.742188 63.648438 52.199219 C 63.648438 52.660156 64.019531 53.035156 64.476562 53.035156 L 81.070312 53.035156 C 83.265625 53.035156 85.050781 54.828125 85.050781 57.03125 L 85.050781 70.128906 C 85.050781 72.332031 83.265625 74.125 81.070312 74.125 C 81.070312 74.125 81.066406 74.125 81.066406 74.125 L 73.015625 74.179688 C 72.71875 74.179688 72.449219 74.339844 72.300781 74.59375 L 69.328125 79.769531 C 69.320312 79.785156 69.300781 79.8125 69.253906 79.8125 C 69.203125 79.8125 69.1875 79.785156 69.179688 79.769531 L 66.203125 74.59375 C 66.058594 74.339844 65.785156 74.179688 65.492188 74.179688 L 57.441406 74.125 C 57.4375 74.125 57.4375 74.125 57.433594 74.125 C 55.242188 74.125 53.457031 72.332031 53.457031 70.128906 L 53.457031 63.777344 C 53.457031 63.316406 53.085938 62.945312 52.628906 62.945312 C 52.167969 62.945312 51.796875 63.316406 51.796875 63.777344 L 51.796875 70.128906 C 51.796875 73.25 54.324219 75.792969 57.433594 75.792969 L 65.007812 75.839844 L 67.742188 80.601562 C 68.058594 81.152344 68.625 81.480469 69.253906 81.480469 C 69.882812 81.480469 70.449219 81.152344 70.761719 80.601562 L 73.5 75.839844 L 81.074219 75.792969 C 84.179688 75.792969 86.707031 73.25 86.707031 70.128906 L 86.707031 57.03125 C 86.707031 53.90625 84.179688 51.367188 81.070312 51.367188 " fill-opacity="1" fill-rule="nonzero"/><path fill="#000000" d="M 64.957031 59.121094 C 65.410156 58.917969 65.886719 58.820312 66.359375 58.820312 C 67.203125 58.820312 68.03125 59.136719 68.695312 59.746094 C 69.011719 60.035156 69.492188 60.035156 69.808594 59.746094 C 70.929688 58.726562 72.332031 58.445312 73.566406 58.992188 C 74.839844 59.558594 75.632812 60.886719 75.632812 62.457031 C 75.632812 64.164062 73.871094 65.808594 72.390625 66.886719 C 71.128906 67.804688 69.847656 68.480469 69.253906 68.773438 C 68.664062 68.480469 67.398438 67.816406 66.136719 66.898438 C 64.648438 65.820312 62.875 64.167969 62.875 62.457031 C 62.875 60.945312 63.652344 59.699219 64.957031 59.121094 Z M 65.164062 68.25 C 67.011719 69.59375 68.835938 70.421875 68.914062 70.453125 C 69.023438 70.503906 69.136719 70.527344 69.253906 70.527344 C 69.367188 70.527344 69.484375 70.503906 69.59375 70.453125 C 69.667969 70.421875 71.492188 69.59375 73.34375 68.25 C 75.960938 66.34375 77.289062 64.394531 77.289062 62.457031 C 77.289062 60.21875 76.121094 58.308594 74.234375 57.46875 C 73.363281 57.082031 72.40625 56.960938 71.460938 57.121094 C 70.683594 57.253906 69.929688 57.574219 69.25 58.066406 C 67.789062 57.050781 65.945312 56.859375 64.285156 57.597656 C 62.394531 58.433594 61.21875 60.296875 61.21875 62.457031 C 61.21875 64.394531 62.542969 66.34375 65.164062 68.25 " fill-opacity="1" fill-rule="nonzero"/><path fill="#000000" d="M 47.285156 8.558594 C 47.695312 8.558594 48.03125 8.222656 48.03125 7.808594 L 48.03125 3.933594 C 48.03125 2.589844 49.117188 1.5 50.453125 1.5 L 66.035156 1.5 C 67.371094 1.5 68.457031 2.589844 68.457031 3.933594 L 68.457031 12.570312 C 68.457031 13.910156 67.371094 15.003906 66.035156 15.003906 C 66.03125 15.003906 66.03125 15.003906 66.03125 15.003906 L 60.722656 15.035156 C 60.457031 15.039062 60.214844 15.179688 60.082031 15.410156 L 58.242188 18.605469 L 56.40625 15.410156 C 56.273438 15.179688 56.027344 15.035156 55.761719 15.035156 C 55.757812 15.035156 55.753906 15.035156 55.75 15.035156 L 55.191406 15.042969 C 54.78125 15.046875 54.449219 15.386719 54.453125 15.800781 C 54.460938 16.214844 54.792969 16.542969 55.199219 16.542969 C 55.203125 16.542969 55.207031 16.542969 55.210938 16.542969 L 55.332031 16.542969 L 57.074219 19.574219 C 57.320312 19.996094 57.757812 20.25 58.242188 20.25 C 58.730469 20.25 59.167969 19.996094 59.410156 19.574219 L 61.160156 16.535156 L 66.035156 16.503906 C 68.195312 16.5 69.949219 14.738281 69.949219 12.570312 L 69.949219 3.933594 C 69.949219 1.765625 68.195312 0 66.035156 0 L 50.453125 0 C 48.292969 0 46.539062 1.765625 46.539062 3.933594 L 46.539062 7.808594 C 46.539062 8.222656 46.871094 8.558594 47.285156 8.558594 " fill-opacity="1" fill-rule="nonzero"/><path fill="#000000" d="M 58.25 4.550781 C 59.246094 4.550781 60.058594 5.367188 60.058594 6.371094 C 60.058594 7.375 59.246094 8.191406 58.25 8.191406 C 57.25 8.191406 56.4375 7.375 56.4375 6.371094 C 56.4375 5.367188 57.25 4.550781 58.25 4.550781 Z M 53.652344 12.363281 C 53.652344 12.777344 53.988281 13.113281 54.398438 13.113281 C 54.8125 13.113281 55.144531 12.777344 55.144531 12.363281 C 55.144531 10.527344 56.769531 9.691406 58.277344 9.691406 C 59.804688 9.691406 61.34375 10.515625 61.34375 12.363281 C 61.34375 12.777344 61.675781 13.113281 62.089844 13.113281 C 62.5 13.113281 62.835938 12.777344 62.835938 12.363281 C 62.835938 11.132812 62.347656 10.039062 61.464844 9.28125 C 61.203125 9.058594 60.910156 8.867188 60.59375 8.707031 C 61.183594 8.109375 61.550781 7.28125 61.550781 6.371094 C 61.550781 4.542969 60.070312 3.054688 58.25 3.054688 C 56.425781 3.054688 54.945312 4.542969 54.945312 6.371094 C 54.945312 7.289062 55.316406 8.121094 55.917969 8.722656 C 55.609375 8.875 55.324219 9.0625 55.066406 9.277344 C 54.15625 10.039062 53.652344 11.132812 53.652344 12.363281 " fill-opacity="1" fill-rule="nonzero"/><path fill="#000000" d="M 27.203125 87.28125 L 29.214844 87.28125 C 29.652344 87.28125 30.007812 87.640625 30.007812 88.082031 C 30.007812 88.539062 30.378906 88.914062 30.835938 88.914062 C 31.296875 88.914062 31.667969 88.539062 31.667969 88.082031 C 31.667969 86.722656 30.566406 85.617188 29.214844 85.617188 L 27.203125 85.617188 C 25.847656 85.617188 24.746094 86.722656 24.746094 88.082031 C 24.746094 89.4375 25.847656 90.542969 27.203125 90.542969 C 27.660156 90.542969 28.03125 90.171875 28.03125 89.710938 C 28.03125 89.25 27.660156 88.878906 27.203125 88.878906 C 26.761719 88.878906 26.40625 88.519531 26.40625 88.082031 C 26.40625 87.640625 26.761719 87.28125 27.203125 87.28125 " fill-opacity="1" fill-rule="nonzero"/></svg>