<svg width="16" height="16" viewBox="0 0 16 16" fill="none" xmlns="http://www.w3.org/2000/svg">
<mask id="mask0_102_27" style="mask-type:luminance" maskUnits="userSpaceOnUse" x="0" y="0" width="16" height="16">
<path d="M0.975067 0H16V15.7381H0.975067V0Z" fill="white"/>
</mask>
<g mask="url(#mask0_102_27)">
<path fill-rule="evenodd" clip-rule="evenodd" d="M10.708 5.08937C11.0506 5.91679 10.744 7.10386 9.6851 8.14203C8.73964 9.06913 7.47804 9.90776 6.95554 11.1723C6.22527 12.941 7.05128 14.7053 8.80595 15.3591C10.9657 16.1641 14.2341 15.5222 15.6261 13.5361C16.4654 12.3392 15.6482 11.3615 14.164 12.095C12.9311 12.7048 11.9261 13.1137 11.2377 13.157C10.0977 13.2292 9.67333 12.1568 11.0056 11.2623C11.1979 11.1336 11.3859 11.0009 11.5693 10.8639C13.5731 9.36782 15.0234 7.40466 14.9467 5.30538C14.8288 2.07543 11.5186 -0.33219 8.38143 0.037808C5.49934 0.378199 2.50367 2.63253 0.997437 6.32252C1.92888 4.79435 6.01734 3.43612 8.62538 3.81207C9.62174 3.9559 10.4013 4.35288 10.7071 5.09007L10.708 5.08937Z" fill="#F75023"/>
</g>
<mask id="mask1_102_27" style="mask-type:luminance" maskUnits="userSpaceOnUse" x="0" y="4" width="7" height="12">
<path d="M0 4.94647H6.73684V15.6016H0V4.94647Z" fill="white"/>
</mask>
<g mask="url(#mask1_102_27)">
<path fill-rule="evenodd" clip-rule="evenodd" d="M4.14404 12.2836C4.20827 9.05309 5.35699 6.43612 6.69823 4.94965L6.68715 4.96156C2.20446 5.56316 -0.225073 7.8555 0.0358342 12.344C0.281852 16.5904 4.05488 16.8019 4.14404 12.2836Z" fill="#F75023"/>
</g>
<mask id="mask2_102_27" style="mask-type:luminance" maskUnits="userSpaceOnUse" x="0" y="2" width="16" height="14">
<path d="M0.53186 2.9679H16V16H0.53186V2.9679Z" fill="white"/>
</mask>
<g mask="url(#mask2_102_27)">
<path d="M2.17435 15.9998C2.10579 15.9998 2.03723 15.9945 1.96867 15.984C1.96798 15.984 1.96729 15.984 1.96729 15.9833C1.96642 15.9833 1.96642 15.9833 1.96573 15.9833C1.96504 15.9833 1.96434 15.9833 1.96348 15.9826C1.96279 15.9826 1.96279 15.9826 1.96209 15.9826C1.9614 15.9826 1.96053 15.9819 1.95915 15.9819C1.95915 15.9819 1.95915 15.9819 1.95846 15.9819C1.43006 15.8963 0.912751 15.4963 0.545715 14.7956C0.813201 14.8774 1.05576 14.9177 1.27823 14.9177C2.85891 14.9177 3.43145 12.8867 4.63557 9.29797C4.34973 10.313 4.16915 11.4435 4.14336 12.6611C4.14336 12.6619 4.14336 12.6626 4.14336 12.6633C4.14336 12.6656 4.14336 12.6679 4.14336 12.67C4.14336 12.6738 4.14336 12.6775 4.14336 12.6812C4.14336 12.6858 4.14336 12.6901 4.14336 12.6947C4.14197 12.7728 4.13903 12.8489 4.13522 12.924C4.02996 14.9988 3.11462 15.9989 2.17366 15.9989L2.17435 15.9998ZM7.86254 15.0272C8.13608 15.2409 8.45291 15.4182 8.80662 15.5499C9.94668 15.9751 11.3954 15.9968 12.7138 15.6303C12.702 15.6326 12.6903 15.634 12.6792 15.6363C13.9408 15.4397 16.9024 13.5228 15.7116 12.2292C14.3203 14.6041 10.1293 15.8523 7.86185 15.0272H7.86254ZM12.6792 15.6356C12.6593 15.6386 12.6394 15.6415 12.6195 15.6438C12.6387 15.6415 12.6586 15.6386 12.6792 15.6356ZM10.6453 6.94238C10.7403 6.70255 10.8007 6.46657 10.8265 6.24005V6.23935C10.8265 6.23865 10.8265 6.23795 10.8265 6.23707C10.8265 6.23637 10.8265 6.23637 10.8265 6.23567C10.8265 6.23497 10.8265 6.23497 10.8265 6.23409C10.8265 6.23339 10.8265 6.23269 10.8265 6.23269C10.8265 6.23199 10.8265 6.23199 10.8265 6.23112C10.8265 6.23041 10.8265 6.22971 10.8265 6.22901V6.22814C10.8265 6.22744 10.8265 6.22674 10.8272 6.22516C10.8272 6.22516 10.8272 6.22516 10.8272 6.22446C10.8641 5.88109 10.8229 5.55944 10.7064 5.27862C10.4027 4.5458 9.62968 4.149 8.64232 4.00377C8.63643 4.00289 8.63054 4.00219 8.62466 4.00149C8.32618 3.95822 8.00918 3.93825 7.67989 3.93825C6.60094 3.93825 5.39024 4.15566 4.28861 4.50866C4.28706 4.50936 4.28567 4.50936 4.28411 4.51006C4.28273 4.51094 4.28117 4.51094 4.27979 4.51164C2.98927 4.92561 1.84938 5.52598 1.25018 6.18049C2.97248 4.07069 6.05125 2.97156 8.38072 2.97156C10.898 2.97156 12.5398 4.25762 10.6437 6.94308L10.6453 6.94238ZM10.1913 13.6532C8.76836 13.6532 9.32462 11.9967 10.9032 11.5255C10.3033 11.9626 10.1094 12.4333 10.2015 12.787C10.2015 12.787 10.2015 12.787 10.2015 12.7877C10.2015 12.7884 10.2015 12.7884 10.2024 12.7893V12.79C10.2024 12.7907 10.2031 12.7907 10.2031 12.7914V12.7923V12.793C10.2031 12.7937 10.2031 12.7937 10.2031 12.7944C10.2031 12.7953 10.2031 12.7953 10.2031 12.7953C10.2031 12.796 10.2038 12.796 10.2038 12.7967V12.7974C10.2038 12.7982 10.2038 12.7982 10.2038 12.7989C10.2038 12.7989 10.2038 12.7989 10.2038 12.7996C10.2038 12.8003 10.2045 12.8012 10.2045 12.8012C10.2458 12.9456 10.335 13.07 10.4647 13.1639C10.4647 13.1639 10.4647 13.1639 10.4654 13.1639C10.4662 13.1646 10.4662 13.1646 10.4669 13.1646C10.4669 13.1646 10.4676 13.1646 10.4676 13.1653L10.4683 13.1661C10.4692 13.1661 10.4692 13.1668 10.4692 13.1668C10.4692 13.1668 10.4692 13.1675 10.4699 13.1675C10.4706 13.1675 10.4706 13.1682 10.4713 13.1682C10.4713 13.1682 10.4713 13.1682 10.4721 13.1682C10.4728 13.1691 10.4735 13.1691 10.4735 13.1698C10.6364 13.2844 10.8612 13.3522 11.1309 13.3522C11.1662 13.3522 11.2024 13.3508 11.2393 13.3485C11.3785 13.3396 11.531 13.3157 11.6962 13.2784C11.0528 13.5451 10.5568 13.6539 10.1913 13.6539V13.6532Z" fill="#F75023"/>
</g>
</svg>
