<svg width="247" height="72" viewBox="0 0 247 72" fill="none" xmlns="http://www.w3.org/2000/svg">
<g clip-path="url(#clip0_106_2)">
<path d="M6.00807 41.0517C5.56009 41.0483 5.28223 40.7661 5.28565 40.3181L5.57699 2.12726C5.57828 1.95926 5.69113 1.84812 5.85912 1.8494L16.3868 1.92971C17.9548 1.94168 18.9067 1.94894 19.5783 2.01006C32.8965 3.3437 34.8484 19.095 25.0675 23.8926C24.1681 24.3337 23.9946 25.0604 24.4926 25.8482L34.4599 40.6527C34.7369 41.0468 34.5672 41.2696 34.1193 41.2661L27.5674 41.2162C27.1195 41.2127 26.6732 40.9853 26.3962 40.5912L17.2611 26.8011C16.7071 26.0129 15.759 25.5016 14.807 25.4944L13.687 25.4858C12.7351 25.4785 12.1144 26.0898 12.1071 27.0418L12.0055 40.3694C12.002 40.8174 11.7199 41.0953 11.2719 41.0918L6.00807 41.0517ZM12.2383 9.8503L12.1797 17.5221C12.1725 18.474 12.7833 19.1507 13.7353 19.158L17.8232 19.1892C26.3349 19.2541 26.3623 8.334 17.9065 8.26949L13.8186 8.23831C12.8666 8.23105 12.2455 8.89833 12.2383 9.8503ZM73.4935 3.09338C73.4969 2.6454 73.779 2.36754 74.227 2.37096L79.4909 2.41112C79.9388 2.41453 80.2167 2.69666 80.2133 3.14465L80.1052 17.3122C80.0979 18.2642 80.7092 18.8849 81.6612 18.8922L97.2287 19.0109C98.1807 19.0182 98.8014 18.4069 98.8087 17.4549L98.9167 3.28733C98.9202 2.83934 99.2583 2.56191 99.6503 2.56491L104.914 2.60506C105.362 2.60848 105.64 2.89061 105.637 3.33859L105.349 41.0815C105.345 41.5295 105.063 41.8073 104.615 41.8039L99.3512 41.7638C98.9592 41.7608 98.6254 41.4782 98.6288 41.0302L98.7369 26.8626C98.7442 25.9107 98.1329 25.29 97.1809 25.2827L74.0536 25.1063C73.6056 25.1029 73.3277 24.8208 73.3311 24.3728L73.4935 3.09338ZM73.2748 31.7646C73.2782 31.3166 73.5603 31.0387 74.0083 31.0421L79.2721 31.0823C79.7201 31.0857 79.998 31.3678 79.9946 31.8158L79.9254 40.8876C79.9219 41.3355 79.6398 41.6134 79.1918 41.61L73.928 41.5698C73.48 41.5664 73.2021 41.2843 73.2055 40.8363L73.2748 31.7646ZM114 41.8755C113.552 41.8721 113.33 41.5904 113.389 41.1428L119.333 3.44308C119.392 2.99552 119.73 2.71809 120.178 2.72151L120.962 2.72749C121.41 2.73091 121.856 3.01432 122.022 3.35159L135.598 29.6079C135.818 30.0576 136.097 30.2277 136.321 30.2295C136.601 30.2316 136.826 30.0653 137.054 29.619L151.029 3.57288C151.199 3.23817 151.65 2.96159 152.098 2.96501L152.882 2.97099C153.274 2.97398 153.663 3.25696 153.716 3.70538L154.458 9.1992C154.511 9.64761 154.45 10.2072 154.223 10.5975L137.692 41.3842C137.465 41.7745 137.071 42.0515 136.623 42.0481L135.839 42.0421C135.391 42.0387 135.001 41.7557 134.78 41.362L124.184 20.9526C123.742 20.1092 123.349 20.2182 123.23 21.1133L119.997 41.1932C119.938 41.6408 119.599 41.9182 119.151 41.9148L114 41.8755ZM150.831 29.5561C150.778 29.1077 150.894 28.5486 151.121 28.1583L155.553 19.8479C155.78 19.4576 155.947 19.5149 156 19.9633L159.084 41.4914C159.136 41.9398 158.91 42.2181 158.462 42.2147L153.31 42.1754C152.862 42.172 152.529 41.8894 152.476 41.441L150.831 29.5561ZM165.638 42.2695C165.19 42.266 165.025 41.9848 165.196 41.5941L183.185 3.14617C183.3 2.86703 183.693 2.64603 184.029 2.64859C184.365 2.65115 184.699 2.87771 184.809 3.15856L202.21 41.8764C202.375 42.2697 202.205 42.5484 201.757 42.545L196.27 42.5031C195.822 42.4997 195.376 42.2163 195.211 41.823L193.669 38.3952C193.283 37.5522 192.392 36.9854 191.44 36.9781L180.128 36.8918C179.68 36.8884 179.514 36.6071 179.685 36.2164L182.019 31.3061C182.19 30.9154 182.584 30.6384 183.032 30.6418L188.631 30.6845C189.583 30.6918 189.924 30.1344 189.539 29.2354L184.582 18.2213C184.362 17.7716 184.14 17.5459 183.916 17.5442C183.692 17.5424 183.466 17.7647 183.238 18.211L172.195 41.6475C172.024 42.0382 171.574 42.3147 171.182 42.3117L165.638 42.2695ZM209.016 9.83941L209.06 4.12758C209.063 3.67959 209.345 3.40174 209.793 3.40515L210.633 3.41156C211.025 3.41455 211.528 3.64239 211.805 3.92452L233.077 27.1035C233.355 27.3856 233.522 27.4989 233.746 27.5006C233.97 27.5023 234.14 27.2236 234.145 26.6636L234.315 4.32024C234.319 3.87226 234.601 3.5944 235.049 3.59782L240.312 3.63797C240.76 3.64139 241.038 3.92352 241.035 4.37151L240.747 42.1144C240.744 42.5624 240.461 42.8403 240.013 42.8368L239.229 42.8309C238.781 42.8274 238.279 42.5996 238.002 42.2615L209.51 11.1312C209.233 10.7931 209.013 10.2874 209.016 9.83941ZM208.772 41.8705L208.942 19.6391C208.945 19.1911 209.169 19.1369 209.447 19.475L215.112 25.6784C215.389 25.9605 215.61 26.4662 215.606 26.9142L215.492 41.9217C215.488 42.3697 215.206 42.6476 214.758 42.6442L209.494 42.604C209.046 42.6006 208.768 42.3185 208.772 41.8705Z" fill="black"/>
<path d="M40.3345 24.121L40.3713 19.3052C40.3747 18.8572 40.6568 18.5793 41.1048 18.5828L65.0161 18.7652C65.4641 18.7686 65.742 19.0507 65.7385 19.4987L65.7018 24.3146C65.6984 24.7626 65.4163 25.0404 64.9683 25.037L41.057 24.8546C40.609 24.8512 40.3311 24.569 40.3345 24.121ZM40.2457 35.7687C40.2491 35.3207 40.5312 35.0429 40.9792 35.0463L64.8905 35.2287C65.3385 35.2321 65.6164 35.5142 65.6129 35.9622L65.5762 40.7781C65.5728 41.2261 65.2907 41.5039 64.8427 41.5005L40.9314 41.3181C40.4834 41.3147 40.2055 41.0326 40.2089 40.5846L40.2457 35.7687ZM41.1826 8.39106C40.7346 8.38764 40.4567 8.10551 40.4601 7.65753L40.4969 2.84166C40.5003 2.39368 40.7824 2.11582 41.2304 2.11924L65.1417 2.30165C65.5897 2.30507 65.8676 2.5872 65.8641 3.03518L65.8274 7.85104C65.824 8.29903 65.5419 8.57689 65.0939 8.57347L41.1826 8.39106Z" fill="#F75023"/>
<path d="M3.94859 49.3216L5.73353 49.3352L5.6214 64.0348L3.83645 64.0212L3.94859 49.3216ZM8.24632 64.0548L4.82342 64.0287L4.83704 62.2438L8.25994 62.2699C9.08591 62.2762 9.84285 62.156 10.5308 61.9092C11.2188 61.6484 11.8096 61.2819 12.3032 60.8097C12.7969 60.3234 13.1794 59.7384 13.4506 59.0544C13.7218 58.3704 13.8607 57.6015 13.8672 56.7475C13.8737 55.8935 13.7466 55.1225 13.4859 54.4345C13.2251 53.7465 12.8515 53.1627 12.3652 52.6829C11.8789 52.1892 11.2938 51.8137 10.6097 51.5565C9.92578 51.2853 9.17082 51.1465 8.34484 51.1402L4.92194 51.1141L4.93556 49.3292L8.35846 49.3553C9.78642 49.3662 11.051 49.6838 12.1523 50.3082C13.2536 50.9327 14.115 51.8003 14.7365 52.911C15.3582 54.0078 15.6634 55.2912 15.6522 56.7611C15.641 58.2311 15.3161 59.5166 14.6777 60.6178C14.0394 61.705 13.1649 62.5523 12.0543 63.1599C10.9436 63.7674 9.67428 64.0657 8.24632 64.0548ZM19.3686 50.4893C19.371 50.1673 19.4851 49.8952 19.7108 49.6729C19.9505 49.4507 20.2244 49.3408 20.5323 49.3431C20.8543 49.3456 21.1265 49.4597 21.3488 49.6854C21.571 49.9111 21.681 50.1849 21.6785 50.5069C21.6761 50.8149 21.5621 51.087 21.3363 51.3233C21.1106 51.5456 20.8367 51.6555 20.5147 51.6531C20.2067 51.6507 19.9346 51.5366 19.6983 51.3108C19.4761 51.0711 19.3662 50.7973 19.3686 50.4893ZM19.6531 54.4816L21.3331 54.4944L21.2594 64.1541L19.5794 64.1413L19.6531 54.4816ZM25.3235 64.8151L27.0245 64.8281C27.021 65.2901 27.1437 65.7181 27.3927 66.112C27.6416 66.5199 27.9961 66.8446 28.4563 67.0861C28.9164 67.3416 29.4614 67.4718 30.0914 67.4766C30.5814 67.4803 31.0652 67.365 31.543 67.1307C32.0209 66.8963 32.4157 66.5213 32.7277 66.0057C33.0535 65.5041 33.2195 64.8474 33.2257 64.0354L33.2978 54.5857L34.9778 54.5985L34.9057 64.0482C34.8972 65.1542 34.6592 66.0764 34.1915 66.8148C33.7238 67.5673 33.1245 68.1297 32.3936 68.5022C31.6627 68.8746 30.8913 69.0577 30.0794 69.0515C29.1414 69.0444 28.3097 68.863 27.5844 68.5075C26.8731 68.1521 26.3169 67.6508 25.9159 67.0037C25.5147 66.3706 25.3172 65.6411 25.3235 64.8151ZM25.1762 59.3539C25.1842 58.3039 25.408 57.4096 25.8477 56.6709C26.2874 55.9182 26.8728 55.3417 27.6039 54.9412C28.335 54.5408 29.1345 54.3439 30.0025 54.3505C30.8145 54.3567 31.5199 54.5651 32.1188 54.9757C32.7177 55.3863 33.1822 55.9708 33.5125 56.7294C33.8568 57.474 34.0249 58.3713 34.0169 59.4213C34.009 60.4573 33.8272 61.3519 33.4714 62.1052C33.1297 62.8586 32.6563 63.436 32.0512 63.8374C31.4461 64.2388 30.7376 64.4364 29.9256 64.4302C29.0576 64.4236 28.2612 64.2145 27.5363 63.803C26.8114 63.3914 26.2349 62.806 25.8067 62.0467C25.3784 61.2875 25.1683 60.3898 25.1762 59.3539ZM26.8771 59.3668C26.8715 60.1088 27.0137 60.7399 27.3037 61.2601C27.6077 61.7805 28.0107 62.1756 28.5127 62.4454C29.0147 62.7152 29.5596 62.8524 30.1476 62.8569C30.6376 62.8606 31.1216 62.7313 31.5996 62.4689C32.0776 62.2066 32.4726 61.8176 32.7846 61.302C33.0965 60.7863 33.2553 60.1575 33.261 59.4155C33.2652 58.8555 33.178 58.3649 32.9992 57.9435C32.8205 57.5081 32.5783 57.1423 32.2725 56.8459C31.9808 56.5497 31.6535 56.3232 31.2907 56.1664C30.9279 56.0096 30.5645 55.9299 30.2005 55.9271C29.6125 55.9226 29.0655 56.0514 28.5595 56.3136C28.0535 56.5757 27.6445 56.9646 27.3325 57.4803C27.0346 57.996 26.8828 58.6249 26.8771 59.3668ZM39.3196 50.6415C39.3221 50.3195 39.4362 50.0474 39.6619 49.8251C39.9016 49.6029 40.1754 49.493 40.4834 49.4953C40.8054 49.4978 41.0775 49.6119 41.2998 49.8376C41.5221 50.0633 41.632 50.3371 41.6296 50.6591C41.6272 50.9671 41.5131 51.2392 41.2873 51.4755C41.0616 51.6978 40.7878 51.8077 40.4658 51.8053C40.1578 51.8029 39.8857 51.6888 39.6494 51.463C39.4272 51.2233 39.3173 50.9495 39.3196 50.6415ZM39.6042 54.6338L41.2841 54.6466L41.2104 64.3063L39.5305 64.2935L39.6042 54.6338ZM44.5341 54.6714L49.364 54.7082L49.352 56.2832L44.5221 56.2463L44.5341 54.6714ZM46.1347 51.3235L47.8147 51.3363L47.7153 64.3559L46.0354 64.3431L46.1347 51.3235ZM53.0138 61.4143C53.0111 61.7783 53.0927 62.0939 53.2586 62.3612C53.4386 62.6286 53.682 62.8334 53.989 62.9758C54.31 63.1042 54.6735 63.17 55.0795 63.1731C55.5975 63.177 56.0603 63.0756 56.4678 62.8687C56.8894 62.6619 57.2207 62.3704 57.4615 61.9942C57.7165 61.6042 57.8459 61.1571 57.8498 60.6531L58.1762 61.9157C58.1715 62.5317 57.9786 63.0412 57.5975 63.4443C57.2304 63.8475 56.7731 64.145 56.2256 64.3369C55.6922 64.5288 55.1594 64.6227 54.6274 64.6187C54.0395 64.6142 53.4874 64.491 52.9712 64.249C52.4692 63.9932 52.0659 63.6331 51.7614 63.1688C51.457 62.7044 51.3072 62.1433 51.3123 61.4853C51.3194 60.5473 51.6541 59.8009 52.3164 59.2459C52.9927 58.677 53.9259 58.3971 55.1159 58.4062C55.8158 58.4116 56.3962 58.5 56.8569 58.6715C57.3317 58.8291 57.7083 59.014 57.9867 59.2261C58.2652 59.4243 58.4529 59.5867 58.55 59.7135L58.5424 60.7004C58.055 60.3607 57.5529 60.1189 57.0359 59.9749C56.5191 59.817 55.9667 59.7358 55.3788 59.7313C54.8328 59.7271 54.3842 59.7937 54.0332 59.931C53.6961 60.0684 53.4426 60.2625 53.2727 60.5132C53.1028 60.7639 53.0165 61.0643 53.0138 61.4143ZM52.7958 56.9605L51.9863 55.7153C52.3523 55.4521 52.8513 55.1899 53.4833 54.9287C54.1293 54.6676 54.9003 54.5405 55.7963 54.5473C56.5523 54.5531 57.2094 54.6771 57.7675 54.9193C58.3398 55.1477 58.7783 55.4801 59.083 55.9164C59.4016 56.3529 59.5586 56.8861 59.5538 57.5161L59.5009 64.4458L57.821 64.433L57.8721 57.7342C57.8746 57.3982 57.8207 57.1248 57.7103 56.914C57.6 56.6891 57.4404 56.5129 57.2313 56.3853C57.0363 56.2578 56.806 56.1651 56.5404 56.107C56.2749 56.049 55.9951 56.0189 55.7011 56.0166C55.2251 56.013 54.7907 56.0657 54.3979 56.1747C54.019 56.2838 53.696 56.4143 53.4288 56.5663C53.1617 56.7183 52.9507 56.8497 52.7958 56.9605ZM63.7301 48.0976L65.41 48.1105L65.2851 64.49L63.6051 64.4772L63.7301 48.0976ZM79.4782 54.665L78.3105 64.5893L76.5255 64.5757L78.4282 49.1548L84.2268 59.8463L90.1879 49.2445L91.8551 64.6927L90.0701 64.6791L89.0539 54.738L84.2007 63.2692L79.4782 54.665ZM96.2997 61.7445C96.2969 62.1085 96.3785 62.4241 96.5444 62.6914C96.7244 62.9588 96.9678 63.1636 97.2748 63.306C97.5958 63.4344 97.9593 63.5002 98.3653 63.5033C98.8833 63.5072 99.3461 63.4058 99.7537 63.1989C100.175 62.9921 100.506 62.7006 100.747 62.3244C101.002 61.9344 101.132 61.4873 101.136 60.9834L101.462 62.2459C101.457 62.8619 101.264 63.3714 100.883 63.7745C100.516 64.1777 100.059 64.4752 99.5114 64.6671C98.978 64.859 98.4452 64.9529 97.9133 64.9489C97.3253 64.9444 96.7732 64.8212 96.257 64.5792C95.755 64.3234 95.3517 63.9633 95.0472 63.499C94.7428 63.0346 94.593 62.4735 94.5981 61.8155C94.6052 60.8775 94.9399 60.1311 95.6022 59.5761C96.2785 59.0072 97.2117 58.7274 98.4017 58.7364C99.1016 58.7418 99.682 58.8302 100.143 59.0017C100.617 59.1594 100.994 59.3442 101.272 59.5564C101.551 59.7545 101.739 59.9169 101.836 60.0437L101.828 61.0306C101.341 60.6909 100.839 60.4491 100.322 60.3051C99.8049 60.1472 99.2525 60.066 98.6646 60.0615C98.1186 60.0573 97.6701 60.1239 97.319 60.2612C96.9819 60.3987 96.7284 60.5927 96.5585 60.8434C96.3886 61.0941 96.3023 61.3945 96.2997 61.7445ZM96.0816 57.2907L95.2721 56.0455C95.6381 55.7823 96.1371 55.5201 96.7691 55.2589C97.4152 54.9978 98.1861 54.8707 99.0821 54.8775C99.8381 54.8833 100.495 55.0073 101.053 55.2496C101.626 55.4779 102.064 55.8103 102.369 56.2466C102.687 56.6831 102.844 57.2163 102.84 57.8463L102.787 64.7761L101.107 64.7632L101.158 58.0644C101.16 57.7285 101.107 57.455 100.996 57.2442C100.886 57.0193 100.726 56.8431 100.517 56.7155C100.322 56.588 100.092 56.4953 99.8262 56.4372C99.5607 56.3792 99.2809 56.3491 98.9869 56.3468C98.5109 56.3432 98.0765 56.3959 97.6837 56.5049C97.3048 56.614 96.9818 56.7445 96.7146 56.8965C96.4475 57.0485 96.2365 57.1799 96.0816 57.2907ZM108.645 55.1605L108.571 64.8202L106.891 64.8074L106.965 55.1477L108.645 55.1605ZM111.549 57.0307C111.327 56.861 111.125 56.7404 110.943 56.669C110.762 56.5837 110.531 56.5399 110.251 56.5378C109.831 56.5346 109.501 56.637 109.262 56.8452C109.022 57.0534 108.852 57.3391 108.751 57.7024C108.664 58.0657 108.619 58.4784 108.616 58.9404L107.86 58.9346C107.866 58.1646 108.004 57.4866 108.274 56.9007C108.559 56.3008 108.92 55.8276 109.356 55.4809C109.793 55.1342 110.235 54.9626 110.683 54.966C111.033 54.9687 111.355 55.0201 111.648 55.1204C111.955 55.2067 112.234 55.3839 112.484 55.6518L111.549 57.0307ZM115.369 48.4916L117.049 48.5044L116.924 64.8839L115.244 64.8711L115.369 48.4916ZM120.567 55.2514L122.667 55.2674L118.437 59.2253L123.014 64.9304L120.914 64.9143L116.337 59.2093L120.567 55.2514ZM129.286 65.1882C128.39 65.1814 127.594 64.9653 126.897 64.54C126.215 64.1008 125.68 63.5017 125.294 62.7427C124.922 61.9838 124.739 61.1074 124.747 60.1135C124.755 59.1055 124.957 58.225 125.355 57.472C125.767 56.7191 126.331 56.1354 127.049 55.7209C127.78 55.3064 128.621 55.1029 129.573 55.1101C130.525 55.1174 131.336 55.3266 132.005 55.7377C132.688 56.1349 133.208 56.7059 133.566 57.4507C133.925 58.1954 134.1 59.0788 134.092 60.1007C134.092 60.1987 134.084 60.3037 134.069 60.4156C134.068 60.5136 134.068 60.5766 134.067 60.6046L125.815 60.5416L125.826 59.1136L132.755 59.1665L132.076 60.1274C132.119 60.0577 132.161 59.953 132.204 59.8133C132.248 59.6597 132.27 59.5338 132.27 59.4358C132.275 58.8618 132.159 58.3639 131.925 57.9421C131.704 57.5204 131.391 57.1891 130.987 56.948C130.583 56.7069 130.108 56.5842 129.562 56.5801C128.918 56.5752 128.364 56.7109 127.9 56.9874C127.45 57.25 127.097 57.6393 126.841 58.1554C126.599 58.6575 126.468 59.2796 126.449 60.0214C126.443 60.7774 126.557 61.4223 126.791 61.9561C127.025 62.4899 127.372 62.8986 127.832 63.1821C128.291 63.4656 128.85 63.6099 129.508 63.6149C130.166 63.6199 130.748 63.4843 131.255 63.2082C131.761 62.918 132.191 62.4803 132.546 61.895L133.904 62.7664C133.394 63.5745 132.752 64.1856 131.979 64.5998C131.22 65 130.322 65.1961 129.286 65.1882ZM136.221 55.3708L141.051 55.4077L141.039 56.9826L136.209 56.9458L136.221 55.3708ZM137.822 52.023L139.502 52.0358L139.402 65.0554L137.722 65.0426L137.822 52.023ZM144.026 51.4403C144.029 51.1183 144.143 50.8461 144.368 50.6239C144.608 50.4017 144.882 50.2918 145.19 50.2941C145.512 50.2966 145.784 50.4106 146.006 50.6364C146.229 50.8621 146.339 51.1359 146.336 51.4579C146.334 51.7659 146.22 52.038 145.994 52.2743C145.768 52.4966 145.494 52.6065 145.172 52.604C144.864 52.6017 144.592 52.4876 144.356 52.2618C144.134 52.0221 144.024 51.7483 144.026 51.4403ZM144.311 55.4326L145.991 55.4454L145.917 65.1051L144.237 65.0923L144.311 55.4326ZM156.877 59.3085C156.883 58.5106 156.712 57.9072 156.365 57.4986C156.019 57.0899 155.509 56.883 154.837 56.8779C154.347 56.8742 153.912 56.9758 153.533 57.183C153.167 57.3762 152.878 57.654 152.665 58.0164C152.467 58.3789 152.365 58.7981 152.362 59.2741L152.317 65.1539L150.637 65.1411L150.711 55.4814L152.391 55.4942L152.379 57.0062C152.706 56.4206 153.108 55.9897 153.586 55.7133C154.078 55.4371 154.639 55.3013 155.269 55.3061C156.291 55.3139 157.093 55.6631 157.676 56.3535C158.273 57.0301 158.567 57.9494 158.558 59.1113L158.512 65.2012L156.832 65.1884L156.877 59.3085ZM162.274 65.8599L163.975 65.8729C163.971 66.3349 164.094 66.7628 164.343 67.1567C164.592 67.5646 164.947 67.8893 165.407 68.1309C165.867 68.3864 166.412 68.5165 167.042 68.5213C167.532 68.5251 168.016 68.4098 168.494 68.1754C168.971 67.941 169.366 67.566 169.678 67.0504C170.004 66.5489 170.17 65.8921 170.176 65.0802L170.248 55.6304L171.928 55.6432L171.856 65.093C171.848 66.1989 171.61 67.1211 171.142 67.8596C170.674 68.6121 170.075 69.1745 169.344 69.5469C168.613 69.9194 167.842 70.1025 167.03 70.0963C166.092 70.0891 165.26 69.9078 164.535 69.5522C163.824 69.1968 163.267 68.6956 162.866 68.0485C162.465 67.4154 162.268 66.6859 162.274 65.8599ZM162.127 60.3986C162.135 59.3486 162.359 58.4543 162.798 57.7157C163.238 56.963 163.823 56.3864 164.554 55.986C165.285 55.5856 166.085 55.3887 166.953 55.3953C167.765 55.4015 168.47 55.6099 169.069 56.0204C169.668 56.431 170.133 57.0156 170.463 57.7741C170.807 58.5188 170.975 59.4161 170.967 60.4661C170.96 61.502 170.778 62.3967 170.422 63.15C170.08 63.9034 169.607 64.4808 169.002 64.8822C168.397 65.2836 167.688 65.4812 166.876 65.475C166.008 65.4684 165.212 65.2593 164.487 64.8477C163.762 64.4362 163.185 63.8508 162.757 63.0915C162.329 62.3322 162.119 61.4346 162.127 60.3986ZM163.828 60.4116C163.822 61.1536 163.964 61.7847 164.254 62.3049C164.558 62.8252 164.961 63.2203 165.463 63.4902C165.965 63.76 166.51 63.8971 167.098 63.9016C167.588 63.9054 168.072 63.7761 168.55 63.5137C169.028 63.2513 169.423 62.8623 169.735 62.3467C170.047 61.8311 170.206 61.2023 170.211 60.4603C170.216 59.9003 170.128 59.4096 169.95 58.9882C169.771 58.5529 169.529 58.187 169.223 57.8907C168.931 57.5944 168.604 57.3679 168.241 57.2112C167.878 57.0544 167.515 56.9746 167.151 56.9718C166.563 56.9674 166.016 57.0962 165.51 57.3583C165.004 57.6205 164.595 58.0094 164.283 58.525C163.985 59.0407 163.833 59.6696 163.828 60.4116ZM184.814 65.4018L184.826 63.7219L192.239 63.7784L192.226 65.4584L184.814 65.4018ZM184.913 52.3822L184.926 50.7022L192.339 50.7588L192.326 52.4387L184.913 52.3822ZM184.868 58.262L184.881 56.5821L191.874 56.6354L191.861 58.3154L184.868 58.262ZM183.939 50.6947L185.724 50.7083L185.612 65.4079L183.827 65.3943L183.939 50.6947ZM201.746 55.8707L203.636 55.8851L200.303 60.5428L203.772 65.5464L201.882 65.532L199.39 61.8589L196.842 65.4936L194.952 65.4792L198.497 60.5291L195.236 55.821L197.126 55.8355L199.41 59.213L201.746 55.8707ZM208.145 70.1999L206.465 70.1871L206.574 55.9075L208.254 55.9204L208.145 70.1999ZM216.302 60.8119C216.294 61.8479 216.07 62.7422 215.63 63.4949C215.191 64.2475 214.605 64.8241 213.874 65.2245C213.157 65.625 212.357 65.822 211.475 65.8152C210.678 65.8091 209.972 65.6007 209.359 65.1901C208.76 64.7795 208.289 64.1949 207.945 63.4362C207.614 62.6777 207.453 61.7804 207.461 60.7445C207.469 59.6945 207.644 58.7998 207.986 58.0604C208.341 57.3071 208.822 56.7297 209.427 56.3283C210.046 55.927 210.754 55.7294 211.552 55.7355C212.434 55.7422 213.231 55.9513 213.942 56.3628C214.667 56.7743 215.243 57.3597 215.671 58.119C216.1 58.8643 216.31 59.7619 216.302 60.8119ZM214.601 60.7989C214.607 60.0569 214.457 59.4258 214.153 58.9054C213.863 58.3852 213.467 57.9902 212.965 57.7204C212.477 57.4506 211.932 57.3135 211.33 57.3089C210.84 57.3051 210.356 57.4344 209.878 57.6968C209.4 57.9592 209.005 58.3482 208.693 58.8638C208.381 59.3794 208.223 60.0082 208.217 60.7502C208.211 61.4922 208.361 62.1234 208.665 62.6437C208.969 63.164 209.358 63.559 209.832 63.8286C210.306 64.0982 210.788 64.2349 211.278 64.2387C211.879 64.2433 212.426 64.1144 212.918 63.8522C213.425 63.59 213.826 63.2011 214.124 62.6853C214.436 62.1697 214.595 61.5409 214.601 60.7989ZM223.578 65.9075C222.682 65.9007 221.885 65.6846 221.189 65.2593C220.506 64.8201 219.971 64.221 219.585 63.462C219.213 62.7032 219.031 61.8267 219.038 60.8328C219.046 59.8248 219.249 58.9443 219.646 58.1913C220.058 57.4385 220.623 56.8547 221.34 56.4402C222.071 56.0258 222.913 55.8222 223.865 55.8294C224.817 55.8367 225.627 56.0459 226.296 56.457C226.979 56.8542 227.5 57.4252 227.858 58.17C228.216 58.9147 228.391 59.7981 228.384 60.8201C228.383 60.9181 228.375 61.023 228.36 61.1349C228.36 61.2329 228.359 61.2959 228.359 61.3239L220.106 61.2609L220.117 59.833L227.047 59.8858L226.367 60.8467C226.41 60.777 226.453 60.6723 226.496 60.5327C226.539 60.379 226.561 60.2531 226.562 60.1551C226.566 59.5812 226.451 59.0833 226.216 58.6615C225.995 58.2398 225.683 57.9084 225.279 57.6673C224.874 57.4262 224.399 57.3036 223.853 57.2994C223.209 57.2945 222.655 57.4303 222.191 57.7067C221.741 57.9693 221.388 58.3586 221.132 58.8747C220.89 59.3769 220.76 59.9989 220.74 60.7407C220.734 61.4967 220.848 62.1416 221.082 62.6754C221.316 63.2092 221.663 63.6179 222.123 63.9014C222.583 64.1849 223.142 64.3292 223.8 64.3342C224.458 64.3392 225.04 64.2037 225.546 63.9275C226.052 63.6374 226.482 63.1996 226.837 62.6143L228.195 63.4857C227.685 64.2938 227.043 64.905 226.27 65.3191C225.511 65.7193 224.614 65.9154 223.578 65.9075ZM233.662 56.1142L233.589 65.7739L231.909 65.7611L231.982 56.1014L233.662 56.1142ZM236.567 57.9844C236.344 57.8147 236.142 57.6942 235.961 57.6228C235.78 57.5374 235.549 57.4936 235.269 57.4915C234.849 57.4883 234.519 57.5908 234.279 57.7989C234.04 58.0071 233.87 58.2928 233.769 58.6561C233.682 59.0194 233.637 59.4321 233.633 59.8941L232.878 59.8883C232.883 59.1183 233.022 58.4404 233.292 57.8544C233.577 57.2546 233.937 56.7813 234.374 56.4346C234.811 56.088 235.253 55.9163 235.701 55.9197C236.051 55.9224 236.372 55.9739 236.666 56.0741C236.973 56.1604 237.252 56.3376 237.502 56.6055L236.567 57.9844ZM238.97 56.1547L243.8 56.1915L243.788 57.7665L238.958 57.7296L238.97 56.1547ZM240.571 52.8068L242.251 52.8196L242.152 65.8392L240.472 65.8264L240.571 52.8068Z" fill="#6F6B80" fill-opacity="0.733333"/>
</g>
<defs>
<clipPath id="clip0_106_2">
<rect width="247" height="72" fill="white"/>
</clipPath>
</defs>
</svg>
