<?xml version="1.0" encoding="utf-8"?>
<!-- Generator: Adobe Illustrator 22.0.0, SVG Export Plug-In . SVG Version: 6.00 Build 0)  -->
<svg version="1.1" xmlns="http://www.w3.org/2000/svg" xmlns:xlink="http://www.w3.org/1999/xlink" x="0px" y="0px"
	 viewBox="0 0 1080 1080" style="enable-background:new 0 0 1080 1080;" xml:space="preserve">
<style type="text/css">
	.st0{fill:none;stroke:#E1E7F4;stroke-width:13;stroke-linecap:round;stroke-miterlimit:10;}
	.st1{fill:#FFA79B;}
	.st2{fill:#FFEBE9;}
	.st3{fill:#FFC75D;}
	.st4{fill:#A8B7E2;}
	.st5{fill:#D44945;}
	.st6{fill:#D0DDF4;}
	.st7{fill:none;stroke:#FFA79B;stroke-width:3;stroke-miterlimit:10;}
	.st8{fill:none;stroke:#FFC75D;stroke-width:3;stroke-miterlimit:10;}
	.st9{fill:#FFE3B6;}
	.st10{fill:#FFF3F3;}
	.st11{fill:#7F95DD;}
	.st12{fill:#E4EAF4;}
	.st13{fill:#FFFFFF;}
	.st14{fill:#CEDDEF;}
	.st15{fill:#687CCD;}
	.st16{fill:#FFC95E;}
	.st17{fill:#EDF2F9;}
	.st18{fill:none;stroke:#7F95DD;stroke-width:3;stroke-miterlimit:10;}
	.st19{fill:none;stroke:#A8B7E2;stroke-width:3;stroke-miterlimit:10;}
	.st20{fill:#F8FAFF;stroke:#A8B7E2;stroke-width:3;stroke-miterlimit:10;}
	.st21{fill:#839AB7;}
	.st22{fill:none;stroke:#839AB7;stroke-width:3;stroke-miterlimit:10;}
	.st23{fill:none;stroke:#D6982B;stroke-width:3;stroke-miterlimit:10;}
	.st24{fill:none;stroke:#D44945;stroke-width:3;stroke-miterlimit:10;}
	.st25{fill:none;stroke:#FFFFFF;stroke-width:3;stroke-linecap:round;stroke-miterlimit:10;}
	.st26{fill:#DD9828;}
	.st27{fill:none;stroke:#687CCD;stroke-miterlimit:10;}
	.st28{fill:none;stroke:#D44945;stroke-width:2;stroke-miterlimit:10;}
	.st29{fill:#EA8383;}
	.st30{fill:#7F95DD;stroke:#7F95DD;stroke-miterlimit:10;}
	.st31{fill:#7F95DD;stroke:#7F95DD;stroke-width:2;stroke-miterlimit:10;}
	.st32{fill:none;stroke:#FFFFFF;stroke-width:3;stroke-miterlimit:10;}
	.st33{fill:#FFCCC7;}
	.st34{fill:none;stroke:#7F95DD;stroke-width:2;stroke-miterlimit:10;}
	.st35{fill:#D5DDEF;}
	.st36{fill:#FFF2DC;}
	.st37{fill:#FFF8F8;}
	.st38{fill:#FFF7EB;}
	.st39{fill:none;stroke:#D44945;stroke-width:4;stroke-linecap:round;stroke-miterlimit:10;}
	.st40{fill:#FFDA99;}
	.st41{fill:#586FB7;}
	.st42{fill:none;stroke:#CC8617;stroke-width:3;stroke-miterlimit:10;}
	.st43{fill:#EAA434;}
	.st44{fill:#CC8617;}
	.st45{fill:none;stroke:#7C93CE;stroke-width:3;stroke-miterlimit:10;}
	.st46{fill:#7C93CE;}
	.st47{fill:#FFCECA;}
	.st48{fill:#C43B3B;}
	.st49{fill:#A8B7E2;stroke:#A8B7E2;stroke-width:3;stroke-miterlimit:10;}
	.st50{fill:#B1C3F2;}
	.st51{fill:none;stroke:#C98417;stroke-miterlimit:10;}
	.st52{fill:none;stroke:#A82020;stroke-width:4;stroke-miterlimit:10;}
	.st53{fill:#A82020;stroke:#A82020;stroke-width:4;stroke-miterlimit:10;}
	.st54{fill:#A82020;}
	.st55{fill:#9EF482;}
	.st56{fill:#FCFCFC;}
	.st57{fill:#FFE9C5;stroke:#FFC75D;stroke-width:3;stroke-miterlimit:10;}
	.st58{fill:#7C95CE;}
	.st59{fill:none;stroke:#41567F;stroke-miterlimit:10;}
	.st60{fill:none;stroke:#EFA52E;stroke-width:3;stroke-miterlimit:10;}
	.st61{fill:#EDAA3E;}
	.st62{fill:none;stroke:#000000;stroke-width:5;stroke-linecap:round;stroke-miterlimit:10;}
	.st63{fill:#9A2929;}
	.st64{fill:#455889;}
	.st65{fill:none;stroke:#DD9828;stroke-width:3;stroke-miterlimit:10;}
	.st66{fill:none;stroke:#D44945;stroke-width:3;stroke-linecap:round;stroke-linejoin:round;stroke-miterlimit:10;}
	.st67{fill:none;stroke:#455889;stroke-width:3;stroke-miterlimit:10;}
	.st68{fill:#CAD2E8;}
	.st69{fill:none;stroke:#455889;stroke-width:3;stroke-linecap:round;stroke-linejoin:round;stroke-miterlimit:10;}
	.st70{fill:none;stroke:#000000;stroke-width:2;stroke-linecap:round;stroke-miterlimit:10;}
	.st71{fill:#F8FAFF;}
</style>
<g id="Front-end_Design">
</g>
<g id="Content_Update">
</g>
<g id="Database_Admin">
</g>
<g id="Content_Building">
</g>
<g id="Social_Insight">
	<g id="Device_3_">
		<g>
			<path class="st1" d="M691.2,254.7H253.5l-3.5-15.6c-2-9.1,4.8-17.7,14.1-17.7h398.4c12.4,0,23.2,8.7,25.9,20.8L691.2,254.7z"/>
			<path class="st2" d="M777.4,720.5H379c-12.4,0-23.2-8.7-25.9-20.8l-99.6-445h437.8l100.3,448.1
				C793.6,711.9,786.7,720.5,777.4,720.5z"/>
			<path class="st3" d="M612.7,235.8c1.1,4.6-1,9.1-4.8,10c-3.7,0.9-7.7-2.1-8.8-6.7c-1.1-4.6,1-9.1,4.8-10
				C607.6,228.2,611.6,231.2,612.7,235.8z"/>
			<path class="st4" d="M634.2,235.8c1.1,4.6-1,9.1-4.8,10c-3.7,0.9-7.7-2.1-8.8-6.7c-1.1-4.6,1-9.1,4.8-10
				C629.1,228.2,633.1,231.2,634.2,235.8z"/>
			<path class="st5" d="M655.7,235.8c1.1,4.6-1,9.1-4.8,10c-3.7,0.9-7.7-2.1-8.8-6.7c-1.1-4.6,1-9.1,4.8-10
				C650.6,228.2,654.5,231.2,655.7,235.8z"/>
		</g>
		<g>
			<path class="st6" d="M521.9,474.8H395.4c-1.7,0-3.2-1.2-3.6-2.9l-0.3-1.4c-0.5-2.3,1.2-4.5,3.6-4.5h126.4c1.7,0,3.2,1.2,3.6,2.9
				l0.3,1.4C526,472.6,524.2,474.8,521.9,474.8z"/>
			<path class="st1" d="M434.4,494.4h-35.2c-1.7,0-3.2-1.2-3.6-2.9l-0.3-1.4c-0.5-2.3,1.2-4.5,3.6-4.5h35.2c1.7,0,3.2,1.2,3.6,2.9
				l0.3,1.4C438.5,492.2,436.8,494.4,434.4,494.4z"/>
			<path class="st6" d="M521.9,494.4h-65.1c-1.7,0-3.2-1.2-3.6-2.9l-0.3-1.4c-0.5-2.3,1.2-4.5,3.6-4.5h65.1c1.7,0,3.2,1.2,3.6,2.9
				l0.3,1.4C526,492.2,524.2,494.4,521.9,494.4z"/>
			<path class="st6" d="M529.5,514H403.1c-1.7,0-3.2-1.2-3.6-2.9l-0.3-1.4c-0.5-2.3,1.2-4.5,3.6-4.5h126.4c1.7,0,3.2,1.2,3.6,2.9
				l0.3,1.4C533.6,511.8,531.8,514,529.5,514z"/>
			<path class="st6" d="M475.8,533.5h-69c-1.7,0-3.2-1.2-3.6-2.9l-0.3-1.4c-0.5-2.3,1.2-4.5,3.6-4.5h69c1.7,0,3.2,1.2,3.6,2.9
				l0.3,1.4C480,531.3,478.2,533.5,475.8,533.5z"/>
			<path class="st1" d="M531.5,533.5h-37c-1.7,0-3.2-1.2-3.6-2.9l-0.3-1.4c-0.5-2.3,1.2-4.5,3.6-4.5h37c1.7,0,3.2,1.2,3.6,2.9
				l0.3,1.4C535.6,531.3,533.8,533.5,531.5,533.5z"/>
			<path class="st6" d="M537.5,553.1H411.1c-1.7,0-3.2-1.2-3.6-2.9l-0.3-1.4c-0.5-2.3,1.2-4.5,3.6-4.5h126.4c1.7,0,3.2,1.2,3.6,2.9
				l0.3,1.4C541.6,550.9,539.8,553.1,537.5,553.1z"/>
			<path class="st6" d="M540.9,572.7H414.5c-1.7,0-3.2-1.2-3.6-2.9l-0.3-1.4c-0.5-2.3,1.2-4.5,3.6-4.5h126.4c1.7,0,3.2,1.2,3.6,2.9
				l0.3,1.4C545,570.5,543.3,572.7,540.9,572.7z"/>
			<path class="st6" d="M547.2,602.4H420.8c-1.7,0-3.2-1.2-3.6-2.9l-0.3-1.4c-0.5-2.3,1.2-4.5,3.6-4.5h126.4c1.7,0,3.2,1.2,3.6,2.9
				l0.3,1.4C551.3,600.2,549.6,602.4,547.2,602.4z"/>
			<path class="st6" d="M459.8,622h-35.2c-1.7,0-3.2-1.2-3.6-2.9l-0.3-1.4c-0.5-2.3,1.2-4.5,3.6-4.5h35.2c1.7,0,3.2,1.2,3.6,2.9
				l0.3,1.4C463.9,619.8,462.1,622,459.8,622z"/>
			<path class="st1" d="M547.2,622h-65.1c-1.7,0-3.2-1.2-3.6-2.9l-0.3-1.4c-0.5-2.3,1.2-4.5,3.6-4.5h65.1c1.7,0,3.2,1.2,3.6,2.9
				l0.3,1.4C551.3,619.8,549.6,622,547.2,622z"/>
			<path class="st6" d="M554.8,641.5H428.4c-1.7,0-3.2-1.2-3.6-2.9l-0.3-1.4c-0.5-2.3,1.2-4.5,3.6-4.5h126.4c1.7,0,3.2,1.2,3.6,2.9
				l0.3,1.4C558.9,639.3,557.2,641.5,554.8,641.5z"/>
			<path class="st1" d="M501.2,661.1h-69c-1.7,0-3.2-1.2-3.6-2.9l-0.3-1.4c-0.5-2.3,1.2-4.5,3.6-4.5h69c1.7,0,3.2,1.2,3.6,2.9
				l0.3,1.4C505.3,658.9,503.5,661.1,501.2,661.1z"/>
			<path class="st6" d="M556.8,661.1h-37c-1.7,0-3.2-1.2-3.6-2.9l-0.3-1.4c-0.5-2.3,1.2-4.5,3.6-4.5h37c1.7,0,3.2,1.2,3.6,2.9
				l0.3,1.4C560.9,658.9,559.2,661.1,556.8,661.1z"/>
			<path class="st6" d="M562.8,680.6H436.4c-1.7,0-3.2-1.2-3.6-2.9l-0.3-1.4c-0.5-2.3,1.2-4.5,3.6-4.5h126.4c1.7,0,3.2,1.2,3.6,2.9
				l0.3,1.4C566.9,678.4,565.2,680.6,562.8,680.6z"/>
			<path class="st6" d="M566.2,700.2H439.8c-1.7,0-3.2-1.2-3.6-2.9l-0.3-1.4c-0.5-2.3,1.2-4.5,3.6-4.5h126.4c1.7,0,3.2,1.2,3.6,2.9
				l0.3,1.4C570.4,698,568.6,700.2,566.2,700.2z"/>
		</g>
		<g>
			<path class="st6" d="M624.4,605.3h-35.2c-1.7,0-3.2-1.2-3.6-2.9l-0.3-1.4c-0.5-2.3,1.2-4.5,3.6-4.5h35.2c1.7,0,3.2,1.2,3.6,2.9
				l0.3,1.4C628.5,603.1,626.7,605.3,624.4,605.3z"/>
			<path class="st1" d="M711.8,605.3h-65.1c-1.7,0-3.2-1.2-3.6-2.9l-0.3-1.4c-0.5-2.3,1.2-4.5,3.6-4.5h65.1c1.7,0,3.2,1.2,3.6,2.9
				l0.3,1.4C715.9,603.1,714.2,605.3,711.8,605.3z"/>
			<path class="st6" d="M719.4,624.9H593c-1.7,0-3.2-1.2-3.6-2.9l-0.3-1.4c-0.5-2.3,1.2-4.5,3.6-4.5h126.4c1.7,0,3.2,1.2,3.6,2.9
				l0.3,1.4C723.6,622.7,721.8,624.9,719.4,624.9z"/>
			<path class="st1" d="M665.8,644.5h-69c-1.7,0-3.2-1.2-3.6-2.9l-0.3-1.4c-0.5-2.3,1.2-4.5,3.6-4.5h69c1.7,0,3.2,1.2,3.6,2.9
				l0.3,1.4C669.9,642.3,668.2,644.5,665.8,644.5z"/>
			<path class="st6" d="M721.4,644.5h-37c-1.7,0-3.2-1.2-3.6-2.9l-0.3-1.4c-0.5-2.3,1.2-4.5,3.6-4.5h37c1.7,0,3.2,1.2,3.6,2.9
				l0.3,1.4C725.6,642.3,723.8,644.5,721.4,644.5z"/>
			<path class="st6" d="M727.4,664H601c-1.7,0-3.2-1.2-3.6-2.9l-0.3-1.4c-0.5-2.3,1.2-4.5,3.6-4.5h126.4c1.7,0,3.2,1.2,3.6,2.9
				l0.3,1.4C731.6,661.8,729.8,664,727.4,664z"/>
			<path class="st6" d="M730.9,683.6H604.4c-1.7,0-3.2-1.2-3.6-2.9l-0.3-1.4c-0.5-2.3,1.2-4.5,3.6-4.5h126.4c1.7,0,3.2,1.2,3.6,2.9
				l0.3,1.4C735,681.4,733.2,683.6,730.9,683.6z"/>
			<path class="st6" d="M737.4,700.2H611c-1.7,0-3.2-1.2-3.6-2.9l-0.3-1.4c-0.5-2.3,1.2-4.5,3.6-4.5h126.4c1.7,0,3.2,1.2,3.6,2.9
				l0.3,1.4C741.5,698,739.8,700.2,737.4,700.2z"/>
		</g>
		<g>
			<path class="st37" d="M703.8,445.1H328.7c-4.3,0-8-3-8.9-7.2l-35.5-158.4c-0.7-3.1,1.7-6.1,4.9-6.1h375.1c4.3,0,8,3,8.9,7.2
				L708.7,439C709.4,442.2,707,445.1,703.8,445.1z"/>
			<path class="st35" d="M703.8,445.1H328.7c-4.3,0-8-3-8.9-7.2l-4.4-19.7c0,0,11.2-67.4,45.7-67.4c48.9,0,60.4,62.4,94.2,62.4
				c33.8,0,22.5-39.3,57.8-39.3c35.3,0,39.7,30.8,90.9,30.8c51,0,21.6-83.7,78-84.6l26.6,118.7C709.4,442.2,707,445.1,703.8,445.1z"
				/>
			<path class="st28" d="M315.4,418.3c0,0,11.2-67.4,45.7-67.4c48.9,0,60.4,62.4,94.2,62.4c33.8,0,22.5-39.3,57.8-39.3
				c35.3,0,39.7,30.8,90.9,30.8c51,0,21.6-83.7,78-84.6"/>
			<path class="st5" d="M683,320.3c-0.3,0-0.6,0-0.9,0"/>
			<polygon class="st5" points="692.7,327.8 676.6,327.8 673.2,312.8 689.4,312.8 			"/>
			<polygon class="st5" points="613.8,412.4 597.7,412.4 594.3,397.4 610.5,397.4 			"/>
			<polygon class="st5" points="522.9,381.5 506.7,381.5 503.4,366.5 519.5,366.5 			"/>
			<polygon class="st5" points="470,420.1 453.8,420.1 450.4,405.1 466.6,405.1 			"/>
			<polygon class="st5" points="370.9,358.4 354.7,358.4 351.3,343.4 367.5,343.4 			"/>
		</g>
		<g>
			<polygon class="st8" points="153.2,559.1 100.2,559.1 89.1,509.9 142.2,509.9 			"/>
			<line class="st8" x1="142.2" y1="509.9" x2="100.2" y2="559.1"/>
			<line class="st8" x1="89.1" y1="509.9" x2="153.2" y2="559.1"/>
		</g>
		<g>
			<polygon class="st8" points="1025.9,853.8 972.9,853.8 961.9,804.6 1014.9,804.6 			"/>
			<line class="st8" x1="1014.9" y1="804.6" x2="972.9" y2="853.8"/>
			<line class="st8" x1="961.9" y1="804.6" x2="1025.9" y2="853.8"/>
		</g>
		<g>
			<polygon class="st28" points="233.1,372.9 152,372.9 135.1,297.6 216.2,297.6 			"/>
			<line class="st28" x1="216.2" y1="297.6" x2="152" y2="372.9"/>
			<line class="st28" x1="135.1" y1="297.6" x2="233.1" y2="372.9"/>
		</g>
		<g>
			<g>
				<path class="st1" d="M295.1,865h-42.7c-0.8,0-1.5-0.6-1.7-1.4l-0.2-0.7c-0.2-1.1,0.6-2.1,1.7-2.1H295c0.8,0,1.5,0.6,1.7,1.4
					l0.2,0.7C297.1,864,296.2,865,295.1,865z"/>
				<path class="st1" d="M336.4,865h-30c-0.8,0-1.5-0.6-1.7-1.4l-0.2-0.7c-0.2-1.1,0.6-2.1,1.7-2.1h30c0.8,0,1.5,0.6,1.7,1.4
					l0.2,0.7C338.3,864,337.5,865,336.4,865z"/>
				<path class="st1" d="M306,850.6h-55.6c-1.8,0-3.4-1.3-3.8-3.1l-0.3-1.5c-0.5-2.5,1.3-4.8,3.8-4.8h55.6c1.8,0,3.4,1.3,3.8,3.1
					l0.3,1.5C310.3,848.3,308.5,850.6,306,850.6z"/>
				<path class="st1" d="M338.5,874.3h-84.3c-0.8,0-1.5-0.6-1.7-1.4l-0.2-0.7c-0.2-1.1,0.6-2.1,1.7-2.1h84.3c0.8,0,1.5,0.6,1.7,1.4
					l0.2,0.7C340.5,873.3,339.7,874.3,338.5,874.3z"/>
				<path class="st1" d="M340.3,883.6h-84.3c-0.8,0-1.5-0.6-1.7-1.4l-0.2-0.7c-0.2-1.1,0.6-2.1,1.7-2.1h84.3c0.8,0,1.5,0.6,1.7,1.4
					l0.2,0.7C342.3,882.6,341.5,883.6,340.3,883.6z"/>
				<path class="st1" d="M318.3,892.9h-60.4c-0.8,0-1.5-0.6-1.7-1.4l-0.2-0.7c-0.2-1.1,0.6-2.1,1.7-2.1h60.4c0.8,0,1.5,0.6,1.7,1.4
					l0.2,0.7C320.3,891.8,319.4,892.9,318.3,892.9z"/>
				<path class="st1" d="M342,892.9h-15c-0.8,0-1.5-0.6-1.7-1.4l-0.2-0.7c-0.2-1.1,0.6-2.1,1.7-2.1h15c0.8,0,1.5,0.6,1.7,1.4
					l0.2,0.7C343.9,891.8,343.1,892.9,342,892.9z"/>
			</g>
			<g>
				<polygon class="st24" points="246.1,894.9 164.6,894.9 152.7,842.2 234.2,842.2 				"/>
				<polyline class="st24" points="152.7,842.2 201.9,880 234.2,842.2 				"/>
			</g>
		</g>
		<g>
			<g>
				<path class="st3" d="M882.4,318.4h-42.7c-0.8,0-1.5-0.6-1.7-1.4l-0.2-0.7c-0.2-1.1,0.6-2.1,1.7-2.1h42.7c0.8,0,1.5,0.6,1.7,1.4
					l0.2,0.7C884.4,317.4,883.5,318.4,882.4,318.4z"/>
				<path class="st3" d="M923.7,318.4h-30c-0.8,0-1.5-0.6-1.7-1.4l-0.2-0.7c-0.2-1.1,0.6-2.1,1.7-2.1h30c0.8,0,1.5,0.6,1.7,1.4
					l0.2,0.7C925.6,317.4,924.8,318.4,923.7,318.4z"/>
				<path class="st3" d="M893.2,304h-55.6c-1.8,0-3.4-1.3-3.8-3.1l-0.3-1.5c-0.5-2.5,1.3-4.8,3.8-4.8h55.6c1.8,0,3.4,1.3,3.8,3.1
					l0.3,1.5C897.6,301.7,895.8,304,893.2,304z"/>
				<path class="st3" d="M925.8,327.7h-84.3c-0.8,0-1.5-0.6-1.7-1.4l-0.2-0.7c-0.2-1.1,0.6-2.1,1.7-2.1h84.3c0.8,0,1.5,0.6,1.7,1.4
					l0.2,0.7C927.8,326.7,927,327.7,925.8,327.7z"/>
				<path class="st3" d="M927.6,337h-84.3c-0.8,0-1.5-0.6-1.7-1.4l-0.2-0.7c-0.2-1.1,0.6-2.1,1.7-2.1h84.3c0.8,0,1.5,0.6,1.7,1.4
					l0.2,0.7C929.6,336,928.8,337,927.6,337z"/>
				<path class="st3" d="M905.6,346.3h-60.4c-0.8,0-1.5-0.6-1.7-1.4l-0.2-0.7c-0.2-1.1,0.6-2.1,1.7-2.1h60.4c0.8,0,1.5,0.6,1.7,1.4
					l0.2,0.7C907.6,345.2,906.7,346.3,905.6,346.3z"/>
				<path class="st3" d="M929.3,346.3h-15c-0.8,0-1.5-0.6-1.7-1.4l-0.2-0.7c-0.2-1.1,0.6-2.1,1.7-2.1h15c0.8,0,1.5,0.6,1.7,1.4
					l0.2,0.7C931.2,345.2,930.4,346.3,929.3,346.3z"/>
			</g>
			<g>
				<polygon class="st8" points="833.4,348.3 751.9,348.3 740,295.6 821.5,295.6 				"/>
				<polyline class="st8" points="740,295.6 789.2,333.4 821.5,295.6 				"/>
			</g>
		</g>
	</g>
	<g id="Girl_3_">
		<path d="M332.5,817.9l52.5,31c2.8,1.6,5.9-1.4,4.5-4.2l-18-35L345.2,798L332.5,817.9z"/>
		<path class="st41" d="M363.1,688.5L345.2,798l26.3,11.7l41.6-110.4c4.6-12.2,4.1-25.8-1.5-37.6l-30.9-65.7h-82.9L363.1,688.5z"/>
		<path class="st15" d="M280.4,515.8H349l7.9,20.4l55-54.6c9.7-9.6,22.7-15,36.4-15h0c15.3,0,28.6,10.1,32.8,24.8l31.4,111h-31.3
			l-32.8-65.6L401.7,593c-10.6,12.8-26.3,20.2-42.9,20.2h-58.3c-21.9,0-38.1-20.4-33.1-41.8L280.4,515.8z"/>
		<path d="M481.2,602.4v10.8h56.9c3.1,0,4.4-4.1,1.8-5.8l-32.2-21.8L481.2,602.4z"/>
		<path class="st3" d="M132.8,632.4c0-10.6,9.7-19.2,21.7-19.2H512h45.3c12,0,21.7,8.6,21.7,19.2v102.2c0,10.6-9.7,19.2-21.7,19.2
			H154.5c-12,0-21.7-8.6-21.7-19.2V632.4z"/>
		<path class="st1" d="M181.7,613.2h44.2c2.3,0,4.4-1.5,5.2-3.7l1.1-3.1l-26-3.8l-11.8,1.2c-4.6,0.5-8.8,3.1-11.2,7L181.7,613.2z"/>
		<path class="st1" d="M501.3,402.4l-1.6-6.2c-0.3-1.2-0.1-2.5,0.5-3.5l3.1-5.3c2-3.4,6-5,9.8-3.8l1.1,0.3l5-6.7
			c1.1-1.5,3.3-1.5,4.5-0.1l4.2,5.1c1.2,1.5,1.7,3.5,1.1,5.4l-1.5,5l2.9,5.7c1.4,2.7,0.4,6.1-2.2,7.7l-10.4,10.4L501.3,402.4z"/>
		<g>
			<g>
				<path d="M450.4,537.1c5.3-7.9,10.7-15.6,16.5-23.1c0.6-0.8-0.7-1.5-1.3-0.8c-5.7,7.5-11.2,15.3-16.5,23.1
					C448.6,537.2,449.9,537.9,450.4,537.1L450.4,537.1z"/>
			</g>
		</g>
		<g>
			<g>
				<path d="M356.9,538.7c5.2,8.9,9.4,18.4,12.5,28.2c0.3,0.9,1.7,0.5,1.4-0.4c-3.2-10-7.4-19.5-12.6-28.6
					C357.7,537.1,356.4,537.9,356.9,538.7L356.9,538.7z"/>
			</g>
		</g>
		<g>
			<g>
				<path d="M357.4,537.5c8.1,3,15.9,6.5,23.4,10.7c0.8,0.5,1.6-0.8,0.8-1.3c-7.6-4.2-15.6-7.9-23.8-10.9
					C356.9,535.7,356.5,537.2,357.4,537.5L357.4,537.5z"/>
			</g>
		</g>
		<g>
			<g>
				<path d="M350.4,523.6c-23.4-0.2-46.7-0.2-70.1,0.1c-1,0-1,1.5,0,1.5c23.4-0.3,46.7-0.3,70.1-0.1
					C351.3,525.1,351.3,523.6,350.4,523.6L350.4,523.6z"/>
			</g>
		</g>
		<g>
			<g>
				<path d="M300.2,517.7c-7.6,31.1-8.2,63.6-1.8,95c0.2,0.9,1.6,0.5,1.4-0.4c-6.3-31.1-5.7-63.3,1.8-94.2
					C301.9,517.1,300.4,516.7,300.2,517.7L300.2,517.7z"/>
			</g>
		</g>
		<g>
			<g>
				<path d="M334.3,550.5c-8.6,0-17.1,0-25.7,0c-1,0-1,1.5,0,1.5c8.6,0,17.1,0,25.7,0C335.3,552,335.3,550.5,334.3,550.5
					L334.3,550.5z"/>
			</g>
		</g>
		<g>
			<g>
				<path d="M284.2,548.6c-3.6,0-7.3,0-10.9,0c-1,0-1,1.5,0,1.5c3.6,0,7.3,0,10.9,0C285.1,550.1,285.1,548.6,284.2,548.6
					L284.2,548.6z"/>
			</g>
		</g>
		<g>
			<g>
				<path d="M503.5,580.5c-8.4,4.2-16.7,8.7-24.7,13.5c-0.8,0.5-0.1,1.8,0.8,1.3c8.1-4.8,16.3-9.3,24.7-13.5
					C505.1,581.4,504.3,580.1,503.5,580.5L503.5,580.5z"/>
			</g>
		</g>
		<g>
			<g>
				<path d="M372.8,804.6c-6.6-6.3-14.6-10.5-23.5-12.4c-0.9-0.2-1.3,1.2-0.4,1.4c8.7,1.8,16.4,5.9,22.8,12
					C372.4,806.4,373.5,805.3,372.8,804.6L372.8,804.6z"/>
			</g>
		</g>
		<path class="st5" d="M245.3,455.9c3.8-14.2,15-25.3,29.3-28.9l71.1-17.9c9.9-2.5,20.4-1.6,29.8,2.6l40.1,17.9l84.2-33.5l18,20.3
			l-81,50.1c-9.3,8.3-19.1,6.3-23.9,3.1l-45.1-18l0.3,4.8c0.2,2.9-0.9,5.7-3,7.7l-8.5,8.1l-7.5,43.6h-68.5l-4.9-32.5l-43.3,123
			l-26-3.8L245.3,455.9z"/>
		<path class="st1" d="M336,344.5l11.5,39.9c1.6,5.6-1.5,11.4-7,13.2l-10.7,3.4l-0.7,12.3l-37.2,9.4l12.7-32.5l-6-22.5
			c-2.4-9.1,3.6-18.4,13-19.7L336,344.5z"/>
		<path class="st3" d="M333,368.1l-4.7-0.4c-2.4-0.2-4.3,2.1-3.6,4.4l0.9,3.1c0.9,3.2,3.9,5.5,7.2,5.5h1.3l4.9,47.2
			c0.9,9.1-2,18.1-8.2,24.8l-3.1,3.3c-2.8,3-6.7,4.8-10.8,4.8h-39.4c-3.6,0-5.5-4.2-3.2-6.9l10.6-12.3l4.3-77.4
			c0.3-5.9,2.8-11.5,6.9-15.7l2.5-2.5c3.7-3.8,8.6-6.3,13.9-7l10.5-1.5c7.1-1,14.1,2.1,18.1,8v0c3.3,4.8,4.2,10.7,2.7,16.3v0
			c-0.5,1.8-1.8,3.2-3.6,3.8L333,368.1z"/>
		<g>
			<g>
				<path d="M367.2,450.5c-5-2.4-9.9-4.8-14.9-7.2c-0.9-0.4-1.6,0.9-0.8,1.3c5,2.4,9.9,4.8,14.9,7.2
					C367.3,452.2,368.1,450.9,367.2,450.5L367.2,450.5z"/>
			</g>
		</g>
		<g>
			<g>
				<path d="M354.9,471.7c-6.3,7.6-13.2,14.8-20.5,21.4c-0.7,0.7,0.3,1.7,1.1,1.1c7.3-6.7,14.1-13.8,20.5-21.4
					C356.6,472,355.6,470.9,354.9,471.7L354.9,471.7z"/>
			</g>
		</g>
		<g>
			<g>
				<path d="M350.3,477.2c-3.1,6.3-6.2,12.6-9.3,18.9c-0.4,0.9,0.9,1.6,1.3,0.8c3.1-6.3,6.2-12.6,9.3-18.9
					C352,477.1,350.8,476.3,350.3,477.2L350.3,477.2z"/>
			</g>
		</g>
		<g>
			<g>
				<path d="M275.7,482.3c-0.5-6.7-1.1-13.4-1.6-20.1c-0.1-1-1.6-1-1.5,0c0.5,6.7,1.1,13.4,1.6,20.1
					C274.3,483.2,275.8,483.2,275.7,482.3L275.7,482.3z"/>
			</g>
		</g>
		<g>
			<g>
				<path d="M228.8,521.3c-0.7,9.5,0.1,18.8,2.5,28c0.2,0.9,1.7,0.5,1.4-0.4c-2.3-9.1-3.1-18.3-2.4-27.6
					C230.4,520.3,228.9,520.3,228.8,521.3L228.8,521.3z"/>
			</g>
		</g>
		<g>
			<g>
				<path d="M416.9,431c4.8,1.5,9.1,4,12.7,7.5c0.7,0.7,1.8-0.4,1.1-1.1c-3.8-3.7-8.3-6.3-13.4-7.9
					C416.3,429.2,415.9,430.7,416.9,431L416.9,431z"/>
			</g>
		</g>
		<g>
			<g>
				<path d="M493.5,404.3c-1-0.6-2.4-0.7-1.8,0.8c0.7,1.7,3.7,3.4,5,4.5c2.6,2.2,5.3,4.5,7.9,6.8c1,0.9,2,1.8,3,2.7
					c0.2,0.2,0.7,0.9,0.9,0.9c0.6,0.1,1.1-0.5,0.3-0.8c-0.9-0.4-1.6,0.9-0.8,1.3c1.2,0.5,2.5,0.5,1.9-1.1c-0.8-1.8-3.8-3.7-5.2-4.9
					c-2.7-2.3-5.4-4.6-8.1-6.9c-0.9-0.8-1.8-1.9-2.9-2.5c-0.2-0.1-0.7-0.8-0.8-0.8c-2.3,0.2-0.4,1.2-0.2,1.3
					C493.5,406.1,494.3,404.8,493.5,404.3L493.5,404.3z"/>
			</g>
		</g>
		<g>
			<g>
				<path d="M232.4,602.6c-7.8-2.6-15.6-4.9-23.5-7.1c-0.9-0.3-1.3,1.2-0.4,1.4c7.9,2.2,15.7,4.5,23.5,7.1
					C232.9,604.4,233.3,602.9,232.4,602.6L232.4,602.6z"/>
			</g>
		</g>
		<polygon points="315.3,515.8 277.4,528.6 280.4,515.8 		"/>
		<g>
			<g>
				<path d="M354.1,409.2c-4.5,2.3-7.2,8.2-8.9,12.7c-2,5.2-2.2,10.8,1.2,15.4c0.6,0.8,1.9,0,1.3-0.8c-3.2-4.3-2.9-9.5-1.1-14.3
					c1.6-4,4.2-9.8,8.2-11.8C355.7,410,354.9,408.8,354.1,409.2L354.1,409.2z"/>
			</g>
		</g>
		<g>
			<g>
				<path d="M273.8,429c-3.2,7.1-3.9,14.6-1.9,22.2c0.3,0.9,1.7,0.5,1.4-0.4c-1.9-7.1-1.4-14.3,1.7-21
					C275.5,428.9,274.2,428.2,273.8,429L273.8,429z"/>
			</g>
		</g>
		<g>
			<g>
				<path d="M329.5,373.4c-0.4-0.8,0-1.9,1-1.9c1.2,0,1.3,1.1,1.4,2c0.2,1.4,0.2,2.9,0.3,4.3c0.4-0.2,0.9-0.4,1.3-0.5
					c-0.7-0.6-1.4-1.2-2.2-1.8c-0.7-0.6-1.8,0.4-1.1,1.1c0.7,0.6,1.4,1.2,2.2,1.8c0.5,0.4,1.3,0.2,1.3-0.5c-0.1-1.8,0-3.7-0.4-5.4
					c-0.2-1.2-1-2.1-2.2-2.3c-2.4-0.5-3.8,2.1-2.9,4.1C328.7,375,329.9,374.2,329.5,373.4L329.5,373.4z"/>
			</g>
		</g>
		<g>
			<g>
				<path d="M416.5,443.3c-1.4,3.3-2.9,6.6-4.3,9.8c-0.4,0.9,0.9,1.6,1.3,0.8c1.4-3.3,2.9-6.6,4.3-9.8
					C418.1,443.2,416.8,442.4,416.5,443.3L416.5,443.3z"/>
			</g>
		</g>
		<g>
			<g>
				<path d="M527.1,385.3c-1.2,3.1-2.4,6.3-3.6,9.4c-0.3,0.9,1.1,1.3,1.4,0.4c1.2-3.1,2.4-6.3,3.6-9.4
					C528.8,384.8,527.4,384.4,527.1,385.3L527.1,385.3z"/>
			</g>
		</g>
		<g>
			<g>
				<path d="M528.3,396.6c-0.4,0.6-0.8,1.2-1.2,1.8c-0.5,0.8,0.8,1.6,1.3,0.8c0.4-0.6,0.8-1.2,1.2-1.8
					C530.1,396.6,528.8,395.8,528.3,396.6L528.3,396.6z"/>
			</g>
		</g>
		<g>
			<g>
				<path d="M406.3,446.8c-1.9,2.5-3.9,5-5.8,7.5c-0.6,0.8,0.7,1.5,1.3,0.8c1.9-2.5,3.9-5,5.8-7.5
					C408.2,446.8,406.9,446.1,406.3,446.8L406.3,446.8z"/>
			</g>
		</g>
		<path class="st42" d="M241.3,732.3h-73.6c-6.6,0-12-5.4-12-12v-73.6c0-6.6,5.4-12,12-12h73.6c6.6,0,12,5.4,12,12v73.6
			C253.3,726.9,247.9,732.3,241.3,732.3z"/>
		<path class="st43" d="M537.1,658.7H292.4c-6.6,0-12-5.4-12-12v0c0-6.6,5.4-12,12-12h244.7c6.6,0,12,5.4,12,12v0
			C549.1,653.3,543.7,658.7,537.1,658.7z"/>
		<path class="st43" d="M422.9,687.2h-138c-2.5,0-4.5-2-4.5-4.5l0,0c0-2.5,2-4.5,4.5-4.5h138c2.5,0,4.5,2,4.5,4.5l0,0
			C427.3,685.2,425.3,687.2,422.9,687.2z"/>
		<path class="st43" d="M387.8,710.1H284.9c-2.5,0-4.5-2-4.5-4.5v0c0-2.5,2-4.5,4.5-4.5h102.8c2.5,0,4.5,2,4.5,4.5v0
			C392.2,708.1,390.2,710.1,387.8,710.1z"/>
		<path class="st43" d="M449.5,710.1h-44.4c-2.5,0-4.5-2-4.5-4.5v0c0-2.5,2-4.5,4.5-4.5h44.4c2.5,0,4.5,2,4.5,4.5v0
			C454,708.1,452,710.1,449.5,710.1z"/>
		<path class="st43" d="M542.6,710.1h-71.3c-2.5,0-4.5-2-4.5-4.5v0c0-2.5,2-4.5,4.5-4.5h71.3c2.5,0,4.5,2,4.5,4.5v0
			C547.1,708.1,545,710.1,542.6,710.1z"/>
		<path class="st43" d="M542.4,687.2H439.6c-2.5,0-4.5-2-4.5-4.5l0,0c0-2.5,2-4.5,4.5-4.5h102.8c2.5,0,4.5,2,4.5,4.5l0,0
			C546.9,685.2,544.9,687.2,542.4,687.2z"/>
		<path class="st43" d="M391.9,721.4h150.5c2.5,0,4.5,2,4.5,4.5l0,0c0,2.5-2,4.5-4.5,4.5H391.9c-2.5,0-4.5-2-4.5-4.5l0,0
			C387.5,723.4,389.5,721.4,391.9,721.4z"/>
		<path class="st43" d="M284.9,721.4h87.3c2.5,0,4.5,2,4.5,4.5l0,0c0,2.5-2,4.5-4.5,4.5h-87.3c-2.5,0-4.5-2-4.5-4.5l0,0
			C280.4,723.4,282.5,721.4,284.9,721.4z"/>
		<g>
			<g>
				<path class="st44" d="M220.7,666c1.1,2.9,2,5.9,2.6,9c0.6,3,1.7,7.3,1.2,10.4c-1.4,8.8-14.1,6.3-18.9,2.7
					c-0.8-0.6-1.5,0.7-0.8,1.3c5.2,3.8,13.9,5.2,19.2,0.7c2.9-2.5,2-6.7,1.6-10.1c-0.6-4.9-1.8-9.8-3.5-14.4
					C221.8,664.8,220.4,665.1,220.7,666L220.7,666z"/>
			</g>
		</g>
		<g>
			<g>
				<path class="st44" d="M203.7,673c-2.6-3.3-8.6-2-9.4,2.1c-0.6,3.1,1.5,10,5.8,8.4c0.9-0.3,0.5-1.8-0.4-1.4c-3,1.1-4.3-4.5-4-6.5
					c0.6-3.1,5.1-3.8,6.9-1.4C203.2,674.8,204.2,673.7,203.7,673L203.7,673z"/>
			</g>
		</g>
		<g>
			<g>
				<path class="st44" d="M204.4,675.1c-1-1.9,0.2-4.8,1.5-6.2c2.1-2.3,5.6-1.4,8.4-1.3c2.8,0.1,5.4-0.2,7.5-2.3
					c0.7-0.7-0.4-1.7-1.1-1.1c-4.3,4.3-11.1-0.8-15.4,3.1c-2.1,1.9-3.6,5.9-2.2,8.5C203.6,676.8,204.9,676,204.4,675.1L204.4,675.1z
					"/>
			</g>
		</g>
		<g>
			<g>
				<path class="st44" d="M223,668.1c6.5-3.4,4.5-11.7-0.9-15.1c-6.7-4.2-17.6-2.8-24.6,0.1c-7.9,3.2-11,9.6-12.2,17.8
					c-1.6,11-2.2,22.1-2.1,33.3c0,1,1.5,1,1.5,0c-0.1-7.3,0.1-14.6,0.8-21.8c0.7-7.4,0.5-17.4,5.7-23.3c4.5-5,11.7-6.4,18.1-6.8
					c4-0.2,8.4-0.1,11.9,2.1c4.4,2.8,6.4,9.6,0.9,12.5C221.4,667.3,222.1,668.6,223,668.1L223,668.1z"/>
			</g>
		</g>
		<g>
			<g>
				<path class="st44" d="M199.1,682.7c0.3,7.3-0.6,14.2-2.6,21.2c-0.3,0.9,1.2,1.3,1.4,0.4c2-7.2,2.9-14.2,2.6-21.6
					C200.6,681.8,199.1,681.8,199.1,682.7L199.1,682.7z"/>
			</g>
		</g>
		<g>
			<g>
				<path class="st44" d="M212.2,692.7c0,3.6,0.4,7,1.2,10.5c0.2,0.9,1.7,0.5,1.4-0.4c-0.8-3.3-1.1-6.7-1.1-10.1
					C213.7,691.7,212.2,691.7,212.2,692.7L212.2,692.7z"/>
			</g>
		</g>
		<g>
			<g>
				<path class="st44" d="M199.3,698.4c4.3,1.5,9.1,2.1,13.6,1.7c1-0.1,1-1.6,0-1.5c-4.4,0.4-9-0.1-13.2-1.6
					C198.8,696.6,198.4,698.1,199.3,698.4L199.3,698.4z"/>
			</g>
		</g>
		<g>
			<g>
				<path class="st44" d="M197.2,703.4c-8.3,0.8-17,0.8-24.9,3.8c-5.4,2-10.8,6.1-10.9,12.5c0,1,1.5,1,1.5,0
					c0.1-7.6,8.3-11,14.5-12.4c6.5-1.5,13.2-1.6,19.8-2.3C198.2,704.8,198.2,703.3,197.2,703.4L197.2,703.4z"/>
			</g>
		</g>
		<g>
			<g>
				<path class="st44" d="M214.2,703.7c4.9,0.4,9.7,1,14.5,1.9c3.7,0.7,8.1,1.3,11.4,3.1c7.3,4,7.5,14,7.2,21.2c0,1,1.5,1,1.5,0
					c0.3-7.7-0.1-16.7-6.9-21.8c-3.1-2.3-7.9-3-11.6-3.7c-5.3-1.1-10.7-1.7-16.1-2.2C213.3,702.1,213.3,703.6,214.2,703.7
					L214.2,703.7z"/>
			</g>
		</g>
		<g>
			<g>
				<path class="st44" d="M231.6,730.3c1.3-3,2-6.1,2-9.4c0-1-1.5-1-1.5,0c0,3-0.6,5.9-1.8,8.6C229.9,730.5,231.2,731.2,231.6,730.3
					L231.6,730.3z"/>
			</g>
		</g>
		<g>
			<g>
				<path class="st44" d="M231.5,732c0.8-2.3,2.1-4.3,3.8-6c0.7-0.7-0.4-1.7-1.1-1.1c-1.9,1.9-3.3,4.2-4.2,6.7
					C229.8,732.5,231.2,732.9,231.5,732L231.5,732z"/>
			</g>
		</g>
		<g>
			<g>
				<path class="st44" d="M185.4,730.6c0.4-2.8-0.1-5.5-1.3-8.1c-0.4-0.9-1.7-0.1-1.3,0.8c1.1,2.3,1.5,4.8,1.1,7.3
					C183.8,731.5,185.3,731.5,185.4,730.6L185.4,730.6z"/>
			</g>
		</g>
		<g>
			<g>
				<path class="st44" d="M184.4,730.5c-1.3-0.6-2.4-1.6-3-2.9c-0.5-0.9-1.8-0.1-1.3,0.8c0.8,1.5,2.1,2.7,3.6,3.4
					C184.5,732.2,185.3,731,184.4,730.5L184.4,730.5z"/>
			</g>
		</g>
		<g>
			<g>
				<path class="st44" d="M217.8,673c0.7,2,1.4,4.1,2.1,6.1c0.3,0.9,1.8,0.5,1.4-0.4c-0.7-2-1.4-4.1-2.1-6.1
					C218.9,671.7,217.4,672.1,217.8,673L217.8,673z"/>
			</g>
		</g>
		<g>
			<g>
				<path class="st44" d="M213,684.7c0.9,1.9,3,3.2,5.1,3c1-0.1,1-1.6,0-1.5c-1.7,0.1-3.1-0.7-3.8-2.2
					C213.9,683.1,212.6,683.8,213,684.7L213,684.7z"/>
			</g>
		</g>
		<g>
			<g>
				<path class="st44" d="M161.4,719.6c0,3.6-0.6,7.1-0.7,10.7c0,1,1.5,1,1.5,0c0-3.6,0.6-7.1,0.7-10.7
					C162.9,718.7,161.4,718.7,161.4,719.6L161.4,719.6z"/>
			</g>
		</g>
		<g>
			<g>
				<path class="st44" d="M199,676.3c1.3-0.2,2.4,0.8,2.6,2c0.1,1,1.6,0.5,1.4-0.4c-0.3-2.1-2.4-3.4-4.4-3
					C197.6,675,198,676.5,199,676.3L199,676.3z"/>
			</g>
		</g>
		<g>
			<g>
				<path d="M523.9,378.4c-1.1,3.5-2.3,7.1-3.4,10.6c-0.3,0.9,1.2,1.3,1.4,0.4c1.1-3.5,2.3-7.1,3.4-10.6
					C525.6,377.9,524.2,377.5,523.9,378.4L523.9,378.4z"/>
			</g>
		</g>
		<g>
			<g>
				<path d="M513.1,385.3c-1.3,3.2-3,6.2-5.2,8.9c-0.6,0.7,0.4,1.8,1.1,1.1c2.4-2.9,4.2-6.1,5.6-9.6
					C514.9,384.8,513.4,384.4,513.1,385.3L513.1,385.3z"/>
			</g>
		</g>
		<g>
			<g>
				<path d="M203.9,605c-4.2,0.9-8.5,1.7-12.7,2.6c-3.3,0.7-5,1.6-6.5,4.8c-0.4,0.9,0.9,1.6,1.3,0.8c1.9-4,5.8-4.1,9.6-4.9
					c2.9-0.6,5.8-1.2,8.7-1.8C205.3,606.2,204.9,604.8,203.9,605L203.9,605z"/>
			</g>
		</g>
	</g>
	<g id="Boy_1_">
		<g>
			<path class="st6" d="M481.5,848.4c0-10.6,9.7-19.2,21.7-19.2h357.5H906c12,0,21.7,8.6,21.7,19.2v102.2c0,10.6-9.7,19.2-21.7,19.2
				H503.3c-12,0-21.7-8.6-21.7-19.2V848.4z"/>
			<path class="st45" d="M590.1,948.3h-73.6c-6.6,0-12-5.4-12-12v-73.6c0-6.6,5.4-12,12-12h73.6c6.6,0,12,5.4,12,12v73.6
				C602.1,942.9,596.7,948.3,590.1,948.3z"/>
			<path class="st4" d="M885.9,874.7H641.2c-6.6,0-12-5.4-12-12v0c0-6.6,5.4-12,12-12h244.7c6.6,0,12,5.4,12,12v0
				C897.9,869.3,892.5,874.7,885.9,874.7z"/>
			<path class="st4" d="M771.6,903.2h-138c-2.5,0-4.5-2-4.5-4.5l0,0c0-2.5,2-4.5,4.5-4.5h138c2.5,0,4.5,2,4.5,4.5l0,0
				C776.1,901.2,774.1,903.2,771.6,903.2z"/>
			<path class="st4" d="M736.5,926.1H633.6c-2.5,0-4.5-2-4.5-4.5v0c0-2.5,2-4.5,4.5-4.5h102.8c2.5,0,4.5,2,4.5,4.5v0
				C741,924.1,738.9,926.1,736.5,926.1z"/>
			<path class="st4" d="M798.3,926.1h-44.4c-2.5,0-4.5-2-4.5-4.5v0c0-2.5,2-4.5,4.5-4.5h44.4c2.5,0,4.5,2,4.5,4.5v0
				C802.7,924.1,800.7,926.1,798.3,926.1z"/>
			<path class="st4" d="M891.3,926.1H820c-2.5,0-4.5-2-4.5-4.5v0c0-2.5,2-4.5,4.5-4.5h71.3c2.5,0,4.5,2,4.5,4.5v0
				C895.8,924.1,893.8,926.1,891.3,926.1z"/>
			<path class="st4" d="M891.2,903.2H788.3c-2.5,0-4.5-2-4.5-4.5l0,0c0-2.5,2-4.5,4.5-4.5h102.8c2.5,0,4.5,2,4.5,4.5l0,0
				C895.6,901.2,893.6,903.2,891.2,903.2z"/>
			<path class="st4" d="M740.7,937.4h150.5c2.5,0,4.5,2,4.5,4.5l0,0c0,2.5-2,4.5-4.5,4.5H740.7c-2.5,0-4.5-2-4.5-4.5l0,0
				C736.2,939.4,738.2,937.4,740.7,937.4z"/>
			<path class="st4" d="M633.6,937.4H721c2.5,0,4.5,2,4.5,4.5l0,0c0,2.5-2,4.5-4.5,4.5h-87.3c-2.5,0-4.5-2-4.5-4.5l0,0
				C629.2,939.4,631.2,937.4,633.6,937.4z"/>
			<g>
				<g>
					<path class="st46" d="M541.3,884c-0.5,4.1-1,8.3-1.5,12.4c-0.3,2.8-1,6.1,0.2,8.8c2.2,4.9,8,3.2,12.2,3.6c1,0.1,1-1.4,0-1.5
						c-2-0.2-4,0.1-6,0c-4.5-0.3-5.6-3.8-5.3-7.6c0.4-5.2,1.3-10.5,1.9-15.7C542.9,883,541.4,883,541.3,884L541.3,884z"/>
				</g>
			</g>
			<g>
				<g>
					<path class="st46" d="M549.8,908c-0.3,4.9-0.8,17.6,7.8,14.8c8.2-2.8,5.4-15.7,5.2-22c0-1-1.5-1-1.5,0c0.2,5.1,1.6,12.3-0.6,17
						c-2.2,5-8.2,4.9-9.2-1c-0.5-2.9-0.4-5.9-0.2-8.8C551.4,907,549.9,907,549.8,908L549.8,908z"/>
				</g>
			</g>
			<g>
				<g>
					<path class="st46" d="M560.8,893.5c1.4-1.6,4.4-1.3,4.9,1c0.7,2.8-2.1,4.5-4.5,4.5c-1,0-1,1.5,0,1.5c3.5,0,7.2-2.9,5.8-6.7
						c-1-3-5.2-3.6-7.3-1.3C559.1,893.2,560.2,894.2,560.8,893.5L560.8,893.5z"/>
				</g>
			</g>
			<g>
				<g>
					<path class="st46" d="M543,884.1c1.8,0.3,3.7,0.6,5.5,0.9c1,0.2,1.9,0.2,2.6,0.9c0.7,0.7,0.2,0.6,0.8,1.3
						c1.1,1.3,2.3,1.7,4,1.4c-0.3-0.2-0.6-0.5-0.9-0.7c0.3,2.4-0.1,9.4,4.2,8c0.3-0.1,0.5-0.4,0.6-0.7c0-0.8,0-1.7,0.1-2.5
						c0-1-1.5-1-1.5,0c-0.1,3-1.3-0.6-1.5-1.4c-0.3-1.1-0.2-2.3-0.4-3.4c-0.1-0.5-0.4-0.8-0.9-0.7c-1.5,0.4-2.8-2.7-4.2-3.2
						c-2.4-0.9-5.4-0.9-7.9-1.3C542.5,882.5,542,883.9,543,884.1L543,884.1z"/>
				</g>
			</g>
			<g>
				<g>
					<path class="st46" d="M549.4,913.4c-4.9,1.5-9.8,2.9-14.7,4.4c-3.8,1.2-7.6,2.6-10.5,5.5c-5.8,6-6.8,15.7-7.9,23.5
						c-0.1,0.9,1.3,1.4,1.4,0.4c1.1-7.4,2-17.2,7.6-22.8c3.2-3.2,7.5-4.5,11.7-5.7c4.3-1.3,8.6-2.6,12.9-3.8
						C550.8,914.5,550.4,913.1,549.4,913.4L549.4,913.4z"/>
				</g>
			</g>
			<g>
				<g>
					<path class="st46" d="M563.1,913.3c4.2,0.9,8.5,1.7,12.7,2.6c3.7,0.8,8.2,1.2,11.2,3.8c3.4,2.9,3.8,8,4.4,12.1
						c0.7,4.8,1.1,9.6,1.3,14.4c0,1,1.5,1,1.5,0c-0.2-5.2-0.6-10.4-1.5-15.5c-0.6-3.7-1-8.2-3.6-11.1c-2.3-2.6-5.8-3.6-9.1-4.3
						c-5.5-1.2-11-2.2-16.5-3.4C562.6,911.7,562.2,913.1,563.1,913.3L563.1,913.3z"/>
				</g>
			</g>
			<g>
				<g>
					<path class="st46" d="M541.7,887.6c-3.9-1.2-4.1-6.2-0.8-8c0.3-0.2,0.4-0.5,0.3-0.8c-0.9-3.2,1.8-6.3,5.1-5.5
						c0.4,0.1,0.8-0.1,0.9-0.5c1.3-3.8,5.3-5,8.5-2.5c0.2,0.2,0.5,0.3,0.7,0.2c3-1.2,9.2-1.8,8.6,3.3c0,0.4,0.4,0.8,0.8,0.8
						c2.9-0.3,4.5,2.2,4.7,4.8c0.1,0.7-0.4,1.9-0.1,2.5c0.4,1,1.2,1.3,1.5,2.4c0.6,2,0,3.7-1.6,5.1c-0.2,0.2-0.3,0.7-0.1,0.9
						c1.7,2.1,0.8,3.9-2.6,5.5c-1,0-1,1.5,0,1.5c2.3-0.1,4.4-1.3,4.9-3.6c0.3-1.3-0.5-2.1-0.4-3.2c0.1-0.8,0.8-1.4,1.2-2.2
						c1.2-2.6,0-4.1-0.9-6.4c-1.1-2.7,0-5.4-2.6-7.6c-0.7-0.6-2.5-0.7-3-1.2c-0.3-0.3-0.4-1.6-0.7-2.2c-1.2-2.3-3.9-3.1-6.3-2.8
						c-1.1,0.1-2.1,0.7-3.2,0.6c-0.8-0.1-0.9-0.3-1.7-0.6c-1.2-0.4-2.3-0.7-3.6-0.5c-2.8,0.3-4.7,2.4-5.6,5c0.3-0.2,0.6-0.3,0.9-0.5
						c-2.1-0.5-4.3-0.2-5.9,1.4c-1.7,1.8-0.8,3.8-1.7,5.7c-1,2-2.7,2.7-2.4,5.3c0.3,2.5,2.2,4.1,4.5,4.9
						C542.2,889.4,542.6,887.9,541.7,887.6L541.7,887.6z"/>
				</g>
			</g>
			<g>
				<g>
					<path class="st46" d="M544.9,891.9c-0.2,1.6-0.7,3.1-1.5,4.6c-0.2,0.4-0.1,0.8,0.3,1c0.7,0.4,1.4,0.8,2.1,1.3
						c0.8,0.5,1.6-0.8,0.8-1.3c-0.7-0.4-1.4-0.8-2.1-1.3c0.1,0.3,0.2,0.7,0.3,1c0.8-1.6,1.4-3.2,1.6-4.9
						C546.5,891.4,545.1,891,544.9,891.9L544.9,891.9z"/>
				</g>
			</g>
			<g>
				<g>
					<path class="st46" d="M545.1,903.6c2.5,0.8,5.1,0.6,7.5-0.5c0.9-0.4,0.1-1.7-0.8-1.3c-2,1-4.2,1.1-6.3,0.4
						C544.6,901.9,544.2,903.3,545.1,903.6L545.1,903.6z"/>
				</g>
			</g>
			<g>
				<g>
					<path class="st46" d="M534.8,946.2c0.3-3,0.2-5.9-0.4-8.8c-0.2-0.9-1.6-0.5-1.4,0.4c0.5,2.8,0.6,5.6,0.3,8.4
						C533.2,947.1,534.7,947.1,534.8,946.2L534.8,946.2z"/>
				</g>
			</g>
			<g>
				<g>
					<path class="st46" d="M535.6,946.9c1.7-3.1,3.3-6.2,5-9.3c0.5-0.9-0.8-1.6-1.3-0.8c-1.7,3.1-3.3,6.2-5,9.3
						C533.8,947,535.1,947.7,535.6,946.9L535.6,946.9z"/>
				</g>
			</g>
			<g>
				<g>
					<path class="st46" d="M573.7,940.4c0.9,2.4,1.5,4.8,1.9,7.3c0.1,1,1.6,0.5,1.4-0.4c-0.4-2.5-1-4.9-1.9-7.3
						C574.8,939.1,573.4,939.5,573.7,940.4L573.7,940.4z"/>
				</g>
			</g>
			<g>
				<g>
					<path class="st46" d="M577.6,935.9c-0.4,3.8-0.6,7.7-0.5,11.6c0,1,1.5,1,1.5,0c-0.1-3.9,0.1-7.7,0.5-11.6
						C579.2,934.9,577.7,934.9,577.6,935.9L577.6,935.9z"/>
				</g>
			</g>
			<g>
				<g>
					<path class="st46" d="M579,917.1c-2.1,3-3.1,6.5-2.7,10.2c0.1,1,1.6,1,1.5,0c-0.4-3.4,0.5-6.6,2.5-9.4
						C580.9,917.1,579.6,916.3,579,917.1L579,917.1z"/>
				</g>
			</g>
			<g>
				<g>
					<path class="st46" d="M530.5,921.3c-0.4,2.7-0.5,5.4-0.5,8.1c0,1,1.5,1,1.5,0c0-2.7,0.2-5.4,0.5-8.1
						C532.1,920.3,530.6,920.4,530.5,921.3L530.5,921.3z"/>
				</g>
			</g>
		</g>
		<g id="Boy_2_">
			<g>
				<path class="st47" d="M759.9,571.2H572c-2.4,0-4.4-1.9-4.9-4.5l-19.5-98.5c-0.4-1.9,0.9-3.8,2.7-3.8h187.9
					c2.4,0,4.4,1.9,4.9,4.5l19.5,98.5C762.9,569.4,761.6,571.2,759.9,571.2z"/>
			</g>
			<g>
				<path d="M885.9,611.6c1.5,2.4,4.8,2.9,7.6,2.7c2.9-0.2,5.9-0.9,7.8-3.1c1.8-2.2,1.6-6.2-1.1-7.3c3.1,0.1,6.1-2.3,6.6-5.3
					c0.5-3-1.5-6.3-4.5-7.2c3-1.3,4.9-4.8,4.3-8c-0.6-3.2-3.6-5.8-6.9-5.8c2.5-3.6,2-8.9-1-12.1c-3-3.2-8.3-3.8-12-1.5
					c0.1-4.5-3.5-8.8-7.9-9.5c-4.5-0.7-9.2,2.4-10.3,6.7c-2.5-3.3-7.7-3.8-11.2-1.6c-3.5,2.2-5.3,6.6-5.1,10.7c-4-0.1-7.7,3.1-8.2,7
					c-0.5,3.9,2.4,8,6.3,8.8L885.9,611.6z"/>
			</g>
			<path class="st15" d="M780.2,631l-2.2,34.1l-30-4.2c-7.7-1.1-13.4-7.5-13.6-15.3l-1.8-77.7l25.9,0l4.9,62.9L780.2,631z"/>
			<path class="st3" d="M951.1,738.7L926,727.6l-21.5,3.1v47.8h-90.5l4.3-107.8l-40.6-2.1l2.4-37.6l52,0.5c4.1,0,8.2,0.6,12.2,1.6
				l61.5,15.5c11.5,2.9,20.7,11.6,24.2,23L951.1,738.7z"/>
			<path class="st15" d="M933.6,716.9c-0.4-1.2-41.3-50.8-41.3-50.8l-19.7,15.4l44.7,68.9c2.5,3.9,7,6.1,11.6,5.7l10.6-0.9
				c8.1-0.7,13.6-8.5,11.7-16.4l-8-25.9L933.6,716.9z"/>
			<path d="M751.1,948.3l-1.1,20.4h-62.5c-3.5,0-4.7-4.6-1.8-6.3l24.2-14.5c8.4,0,23.5,11.3,26.9,5
				C740.2,946.6,751.1,948.3,751.1,948.3z"/>
			<path class="st48" d="M816.1,829.2l-58.4-5.5l-5.5,104.2h-42.8l-4.7-138.6c0-19.7,18.1-26.9,30.2-25.2l79.2,14.4L816.1,829.2z"/>
			<path d="M684,951.9l-14,16.8l-43.3-50.5c-1.7-2,0.2-5,2.7-4.3l28.2,7.7c0,0,11.9,15.4,11.9,23.1
				C669.5,952.4,680.5,948.2,684,951.9z"/>
			<path class="st3" d="M689.9,944.8l-5.9,7.1c-3.5-3.7-14.5,0.5-14.5-7.2c0-7.7-11.9-23.1-11.9-23.1l3.5-5.3L689.9,944.8z"/>
			<path class="st5" d="M904.5,778.5v16.9c0,19-15.4,34.4-34.4,34.4h-84.8l-84.6,101.9l-1.6,0.7l-30.2-27.9l73.9-111.7
				c5.9-9,15.9-14.3,26.7-14.3H904.5z"/>
			<polygon class="st1" points="700.8,931.7 689.9,944.8 661.1,916.3 668.9,904.5 699.2,932.4 			"/>
			<path class="st3" d="M751.4,941.8l-0.3,6.5c0,0-10.9-1.7-14.2,4.6c-3.3,6.3-18.5-5-26.9-5l-0.2-6H751.4z"/>
			<polygon points="904.5,778.5 849.8,778.5 905.4,787.1 			"/>
			<polygon class="st1" points="752.2,927.9 751.4,941.8 709.8,941.8 709.3,927.9 			"/>
			<g>
				<path class="st3" d="M775.3,561.5H587.4c-2.4,0-4.4-1.9-4.9-4.5L563,458.5c-0.4-1.9,0.9-3.8,2.7-3.8h187.9
					c2.4,0,4.4,1.9,4.9,4.5l19.5,98.5C778.4,559.6,777.1,561.5,775.3,561.5z"/>
				<path class="st9" d="M644.4,489.7l10,39.8c1.1,4.3,6.3,6.2,9.8,3.4l30.2-23c3.8-2.9,3.1-8.9-1.4-10.7l-40.2-16.8
					C648.1,480.5,643.1,484.7,644.4,489.7z"/>
			</g>
			<path class="st1" d="M732.6,567.9l-2.4-6.4h9.2l2-2.7c2-2.6,5.1-3.9,8.3-3.5l5.3,0.7l-1.2-8.4c-0.4-3.1,1-6.3,3.6-8.1l0,0
				c1.3-0.9,3.1-0.1,3.4,1.5l2.4,17.2c0.2,1.2-0.1,2.5-0.8,3.5l-4,6.2L732.6,567.9z"/>
			<g>
				<path class="st4" d="M877.8,778.5H721c-2.8,0-5.1-2.3-5.1-5.1v-89.9c0-2.8,2.3-5.1,5.1-5.1h156.8c2.8,0,5.1,2.3,5.1,5.1v89.9
					C883,776.2,880.6,778.5,877.8,778.5z"/>
				<path class="st6" d="M779.9,711.3v34.2c0,2.5,2.7,4.1,4.9,2.9l31-17.1c2.3-1.3,2.3-4.6,0-5.8l-31-17.1
					C782.6,707.2,779.9,708.8,779.9,711.3z"/>
			</g>
			<path class="st1" d="M889.1,668.6l-4.8-1.8c-1.6-0.6-3.3-0.9-5-0.9l-19.6-0.4c-1.7,0-3.3,0.7-4.5,1.9l-9.1,9.9
				c-3,3.3-4.5,7.6-4.1,12l0,0c0.3,3.6,3.7,6,7.2,5.2l15.4-3.4c2.9-0.7,5.4-2.8,6.4-5.6l1.5-4L889.1,668.6z"/>
			<path class="st1" d="M885.2,604.7l-5.5,1.3l2.1-9.9l-6.3-6.4V584l-25.4-5.9l-6.2,34.7c-0.9,5,2.1,9.8,7,11.2l9.7,2.8
				c0,0-1.5,17.4,0,28.2c1.5,10.8,22.6-8.2,22.6-8.2v-25.2l0.5-0.1c4.3-0.9,7.3-4.7,7.3-9.1v-3.1C891,606.3,888.2,604.1,885.2,604.7
				z"/>
			<g>
				<g>
					<path d="M856,594.1c-0.5,2-1.1,4-2,5.9c-0.5,1.2-1.7,2.5-1.9,3.7c-0.3,2.2,3.2,2.6,4.7,2.9c0.9,0.2,1.3-1.3,0.4-1.4
						c-0.8-0.1-3.3-0.4-3.4-1.6c-0.1-0.6,1.4-2.6,1.7-3.2c0.9-1.9,1.5-3.9,2-5.9C857.6,593.6,856.2,593.2,856,594.1L856,594.1z"/>
				</g>
			</g>
			<g>
				<g>
					<path d="M861.2,627.4c4.9,1.4,9.9,0.7,14.2-2c0.8-0.5,0.1-1.8-0.8-1.3c-4,2.5-8.6,3.1-13.1,1.8
						C860.6,625.6,860.2,627.1,861.2,627.4L861.2,627.4z"/>
				</g>
			</g>
			<g>
				<g>
					<path d="M854.1,615.8c4.8,2.6,10.6,2,14.7-1.6c0.7-0.6-0.3-1.7-1.1-1.1c-3.6,3.1-8.7,3.6-12.9,1.4
						C854,614.1,853.3,615.4,854.1,615.8L854.1,615.8z"/>
				</g>
			</g>
			<g>
				<g>
					<path d="M857.1,672.6c-6.3,4.6-9.2,12.4-7.4,20c0.2,0.9,1.7,0.5,1.4-0.4c-1.6-6.9,1-14.1,6.7-18.3
						C858.6,673.3,857.9,672,857.1,672.6L857.1,672.6z"/>
				</g>
			</g>
			<g>
				<g>
					<path d="M862.1,673.6c-4.9,4.8-6.9,11.4-5.7,18.2c0.2,0.9,1.6,0.5,1.4-0.4c-1.2-6.2,0.8-12.3,5.3-16.7
						C863.9,673.9,862.8,672.9,862.1,673.6L862.1,673.6z"/>
				</g>
			</g>
			<g>
				<g>
					<path d="M868.1,675.6c-3.7,3.8-5.3,8.8-4.4,14c0.2,1,1.6,0.5,1.4-0.4c-0.8-4.6,0.7-9.2,4-12.5
						C869.8,676,868.7,674.9,868.1,675.6L868.1,675.6z"/>
				</g>
			</g>
			<g>
				<g>
					<path d="M894,715.9c0.3,19.8-0.2,39.5-1.5,59.2c-0.1,1,1.4,1,1.5,0c1.3-19.7,1.8-39.5,1.5-59.2
						C895.5,714.9,894,714.9,894,715.9L894,715.9z"/>
				</g>
			</g>
			<g>
				<g>
					<path d="M830.2,632.1c-7.3,5.7-11.2,14.7-10.3,23.9c0.1,1,1.6,1,1.5,0c-0.9-8.9,2.8-17.4,9.9-22.8
						C832,632.6,830.9,631.5,830.2,632.1L830.2,632.1z"/>
				</g>
			</g>
			<g>
				<g>
					<path d="M910.4,654.4c-6.7,1-11.2,8-9.5,14.6c0.2,0.9,1.7,0.5,1.4-0.4c-1.5-5.8,2.5-11.8,8.5-12.7
						C911.8,655.8,911.4,654.3,910.4,654.4L910.4,654.4z"/>
				</g>
			</g>
			<g>
				<g>
					<path d="M735.7,575.6c6,0.5,12,1,18,1.6c1,0.1,1-1.4,0-1.5c-6-0.5-12-1-18-1.6C734.8,574.1,734.8,575.6,735.7,575.6
						L735.7,575.6z"/>
				</g>
			</g>
			<g>
				<g>
					<path d="M761.2,632.6c-2.5,3.1-4.5,6.5-6,10.2c-0.3,0.9,1.1,1.3,1.4,0.4c1.4-3.5,3.2-6.7,5.6-9.6
						C762.9,632.9,761.8,631.8,761.2,632.6L761.2,632.6z"/>
				</g>
			</g>
			<g>
				<g>
					<path d="M935.6,718.4c5.2,4.4,7.9,10.6,7.6,17.3c0,1,1.5,1,1.5,0c0.3-7.1-2.6-13.8-8-18.4C936,716.7,934.9,717.8,935.6,718.4
						L935.6,718.4z"/>
				</g>
			</g>
			<g>
				<g>
					<path d="M885.5,682.4c3.4-3,6.8-6,10.2-9.1c0.7-0.6-0.3-1.7-1.1-1.1c-3.4,3-6.8,6-10.2,9.1C883.7,681.9,884.8,683,885.5,682.4
						L885.5,682.4z"/>
				</g>
			</g>
			<g>
				<g>
					<path d="M883.3,783.4c0.5,10-9.2,15.1-17.8,16.4c-8.6,1.3-17.5,1.1-26.2,1.4c-17.9,0.8-35.9,1.5-53.8,2.3
						c-7,0.3-14.4,0.2-20.4,4.2c-6.3,4.1-10.9,10.9-15.7,16.6c-10.8,12.9-21.4,26.1-31.6,39.6c-11.8,15.5-23.1,31.2-34.1,47.3
						c-0.5,0.8,0.8,1.6,1.3,0.8c20.1-29.5,41.6-58,64.5-85.4c5.1-6.1,10.3-14.1,17.3-18.1c7.9-4.5,18.8-3.4,27.5-3.7
						c18.2-0.8,36.4-1.5,54.6-2.3c12.5-0.5,36.9-0.5,35.9-19C884.8,782.5,883.3,782.5,883.3,783.4L883.3,783.4z"/>
				</g>
			</g>
			<g>
				<g>
					<path d="M735.6,893.8c-1.1,9.4-1.7,18.9-2,28.4c0,1,1.5,1,1.5,0c0.3-9.5,1-18.9,2-28.4C737.2,892.8,735.7,892.8,735.6,893.8
						L735.6,893.8z"/>
				</g>
			</g>
			<g>
				<g>
					<path d="M788,827.4c-3.1-2.9-6.2-5.8-9.3-8.7c-0.7-0.7-1.8,0.4-1.1,1.1c3.1,2.9,6.2,5.8,9.3,8.7
						C787.6,829.1,788.7,828.1,788,827.4L788,827.4z"/>
				</g>
			</g>
			<g>
				<g>
					<path d="M672.3,897.9c8,10.5,17.4,19.9,28,27.8c0.8,0.6,1.5-0.7,0.8-1.3c-10.4-7.8-19.6-16.9-27.5-27.3
						C673,896.4,671.7,897.1,672.3,897.9L672.3,897.9z"/>
				</g>
			</g>
			<g>
				<g>
					<path d="M712.6,923c12.9-0.8,25.7-1.6,38.6-2.4c1-0.1,1-1.6,0-1.5c-12.9,0.8-25.7,1.6-38.6,2.4
						C711.6,921.5,711.6,923,712.6,923L712.6,923z"/>
				</g>
			</g>
			<g>
				<g>
					<path d="M876.5,780.3c-2.5,4.1-3.4,8.7-2.5,13.4c0.2,0.9,1.6,0.5,1.4-0.4c-0.7-4.3,0.1-8.5,2.4-12.3
						C878.3,780.3,877,779.5,876.5,780.3L876.5,780.3z"/>
				</g>
			</g>
			<g>
				<g>
					<path d="M730.4,807.1c-3.8-8.4,4.1-16.8,12.7-13.8c0.9,0.3,1.3-1.1,0.4-1.4c-10-3.4-18.7,6.6-14.4,16.1
						C729.5,808.7,730.8,808,730.4,807.1L730.4,807.1z"/>
				</g>
			</g>
			<polygon points="883,697.6 904.5,730.7 904.5,746.9 883,711.1 			"/>
		</g>
	</g>
	<g id="Bubble">
		
			<ellipse transform="matrix(0.9249 -0.3802 0.3802 0.9249 -76.2327 93.3784)" class="st19" cx="198.2" cy="239.6" rx="10.5" ry="10.5"/>
		
			<ellipse transform="matrix(0.1594 -0.9872 0.9872 0.1594 -1.6867 400.0212)" class="st19" cx="234.1" cy="201" rx="15.6" ry="15.6"/>
		<circle class="st19" cx="206.4" cy="422.3" r="11.5"/>
		<circle class="st19" cx="156.6" cy="441.6" r="16.1"/>
		<circle class="st19" cx="85.6" cy="845.7" r="12.4"/>
		<circle class="st19" cx="114.3" cy="800.5" r="6.9"/>
		<circle class="st19" cx="97.4" cy="748" r="10"/>
		<circle class="st19" cx="796.9" cy="412.4" r="13.2"/>
		
			<ellipse transform="matrix(0.2376 -0.9714 0.9714 0.2376 154.8101 1173.6377)" class="st19" cx="825.1" cy="488.2" rx="14.6" ry="14.6"/>
		
			<ellipse transform="matrix(0.7071 -0.7071 0.7071 0.7071 -41.1645 740.3979)" class="st19" cx="873.2" cy="419.9" rx="9.9" ry="9.9"/>
		
			<ellipse transform="matrix(0.9239 -0.3827 0.3827 0.9239 -311.1797 229.5556)" class="st19" cx="421.4" cy="897" rx="8.3" ry="8.3"/>
		<circle class="st19" cx="403" cy="947.5" r="17"/>
		<circle class="st19" cx="743.1" cy="239.7" r="10.6"/>
		
			<ellipse transform="matrix(0.7071 -0.7071 0.7071 0.7071 74.5837 554.7754)" class="st19" cx="707" cy="187.4" rx="19.9" ry="19.9"/>
		<circle class="st19" cx="969.1" cy="649.4" r="10.2"/>
		<circle class="st19" cx="1010.6" cy="696" r="18.3"/>
	</g>
</g>
<g id="Data_Analytics">
</g>
<g id="Web_Developing">
</g>
<g id="App_Developing">
</g>
</svg>
